<svg width="40" height="40" viewBox="0 0 40 40" fill="none" xmlns="http://www.w3.org/2000/svg">
<path d="M4.85116 5.81699C4.85116 3.52941 6.70189 1.63398 8.93628 1.63398C11.17 1.63398 13.0214 3.52941 13.0214 5.81699C13.0214 8.10457 11.17 10 8.93628 10C6.63816 10 4.85116 8.10457 4.85116 5.81699ZM11.2981 11.1111C13.2132 10.1961 14.6172 8.16993 14.6172 5.81699C14.6172 2.61438 12.0642 -3.8147e-06 8.93628 -3.8147e-06C5.80839 -3.8147e-06 3.25535 2.61438 3.25535 5.81699C3.25535 8.16993 4.59561 10.1961 6.57444 11.1111C2.80861 12.0261 0 15.098 0 18.7582V25.817C0 26.2745 0.383028 26.6667 0.829779 26.6667H4.08511V39.1503C4.08511 39.6078 4.46814 40 4.91489 40C5.36164 40 5.74466 39.6078 5.74466 39.1503V23.3333C5.74466 22.8758 5.36164 22.4837 4.91489 22.4837C4.46814 22.4837 4.08511 22.8758 4.08511 23.3333V24.9673H1.65954V18.6928C1.65954 15.2288 4.91489 12.4183 9.00001 12.4183C13.0214 12.4183 16.3411 15.2288 16.3411 18.6928V24.9673H13.9149V23.3333C13.9149 22.8758 13.5319 22.4837 13.0851 22.4837C12.6384 22.4837 12.2553 22.8758 12.2553 23.3333V39.1503C12.2553 39.6078 12.6384 40 13.0851 40C13.5319 40 13.9149 39.6078 13.9149 39.1503V26.6667H17.1709C17.6176 26.6667 18 26.2745 18 25.817V18.7582C17.8725 15.098 15.0639 12.0261 11.2981 11.1111Z" fill="#0D0701"/>
<path d="M9 29C8.46159 29 8 29.3976 8 29.8614V39.1386C8 39.6024 8.46159 40 9 40C9.53841 40 10 39.6024 10 39.1386V29.8614C10 29.3976 9.53841 29 9 29Z" fill="#0D0701"/>
<path d="M8 18H10V20H8V18Z" fill="#0D0701"/>
<path d="M30.0003 38.3007C25.4253 38.3007 21.6999 34.5752 21.6999 30C21.6999 25.4248 25.4253 21.6993 30.0003 21.6993C34.5754 21.6993 38.3001 25.4248 38.3001 30C38.3001 34.5752 34.5754 38.3007 30.0003 38.3007ZM30.0003 20C24.5104 20 20 24.5098 20 30C20 35.4902 24.5104 40 30.0003 40C35.4902 40 40 35.4902 40 30C40 24.5098 35.4902 20 30.0003 20Z" fill="#0D0701"/>
<path d="M29.5822 29.7073H28.835C28.7665 29.7073 28.7665 29.6439 28.7665 29.6439V27.4244C28.7665 27.361 28.835 27.361 28.835 27.361H29.5822V29.7073ZM32.0971 31.3561C32.165 31.3561 32.165 31.4195 32.165 31.4195V33.639C32.165 33.7024 32.0971 33.7024 32.0971 33.7024H31.3493V31.2927L32.0971 31.3561ZM32.0971 27.2976C32.165 27.2976 32.165 27.361 32.165 27.361C32.165 27.8049 32.5728 28.1854 33.0486 28.1854C33.5243 28.1854 33.9328 27.8049 33.9328 27.361C33.9328 26.4098 33.1171 25.6488 32.0971 25.6488H31.3493V24.8244C31.3493 24.3805 30.9421 24 30.4664 24C29.9907 24 29.5822 24.3805 29.5822 24.8244V25.6488H28.835C27.815 25.6488 27 26.4098 27 27.361V29.5805C27 30.4683 27.7472 31.2293 28.7665 31.2927C28.835 31.2927 28.835 31.2927 29.6507 31.2927V33.7024H28.9029C28.835 33.7024 28.835 33.639 28.835 33.639C28.835 33.1951 28.4272 32.8146 27.9514 32.8146C27.4757 32.8146 27.0679 33.1951 27.0679 33.639C27.0679 34.5902 27.8836 35.3512 28.9029 35.3512H29.6507V36.1756C29.6507 36.6195 30.0579 37 30.5336 37C31.01 37 31.4178 36.6195 31.4178 36.1756V35.3512H32.165C33.185 35.3512 34 34.5902 34 33.639V31.4195C34 30.5317 33.2528 29.7707 32.2335 29.7073C32.165 29.7073 32.165 29.7073 31.3493 29.7073V27.2976H32.0971Z" fill="#0D0701"/>
<path d="M23.829 6H35.1716C35.6176 6 36 5.53846 36 5C36 4.46154 35.6176 4 35.1716 4H23.829C23.383 4 23 4.46154 23 5C23 5.61538 23.383 6 23.829 6Z" fill="#0D0701"/>
<path d="M23.8502 11H32.1498C32.6072 11 33 10.5385 33 10C33 9.46154 32.6072 9 32.1498 9H23.8502C23.3928 9 23 9.46154 23 10C23 10.5385 23.3928 11 23.8502 11Z" fill="#0D0701"/>
<path d="M23.829 16H35.1716C35.6176 16 36 15.5385 36 15C36 14.4615 35.6176 14 35.1716 14H23.829C23.383 14 23 14.4615 23 15C23 15.6154 23.383 16 23.829 16Z" fill="#0D0701"/>
</svg>
