<svg width="40" height="40" viewBox="0 0 40 40" fill="none" xmlns="http://www.w3.org/2000/svg">
<path d="M39.1397 0H13.8596C13.3964 0 13 0.391518 13 0.848286C13 1.30506 13.3964 1.69658 13.8596 1.69658H38.3455V38.3034H13.8596C13.3964 38.3034 13 38.6949 13 39.1517C13 39.6085 13.3964 40 13.8596 40H39.1397C39.6029 40 40 39.6085 40 39.1517V0.848286C40 0.391518 39.6029 0 39.1397 0Z" fill="#0D0701"/>
<path d="M4.07892 8.00574C4.07892 6.18547 5.59225 4.69025 7.434 4.69025C9.2764 4.69025 10.7891 6.18547 10.7891 8.00574C10.7891 9.82601 9.2764 11.3212 7.434 11.3212C5.59225 11.3212 4.07892 9.82601 4.07892 8.00574ZM14.1441 26.2084C14.6046 26.2084 15 25.8184 15 25.3633V18.7323C15 15.6769 13.1576 13.0765 10.5263 11.9063C11.7099 10.9962 12.4995 9.56597 12.4995 7.94073C12.4995 5.21033 10.2623 3 7.49967 3C4.73639 3 2.49989 5.21033 2.49989 7.94073C2.49989 9.56597 3.2894 10.9962 4.47367 11.9063C1.84175 13.0765 0 15.6769 0 18.7323V25.3633C0 25.8184 0.394764 26.2084 0.855853 26.2084H3.22371V36.1549C3.22371 36.6099 3.61849 37 4.07892 37C4.53936 37 4.93411 36.6099 4.93411 36.1549V22.8929C4.93411 22.4379 4.53936 22.0478 4.07892 22.0478C3.61849 22.0478 3.22371 22.4379 3.22371 22.8929V24.5182H1.579V18.7323C1.579 15.5468 4.21028 12.9465 7.434 12.9465C10.6577 12.9465 13.2896 15.5468 13.2896 18.7323V24.5182H11.6443V22.8929C11.6443 22.4379 11.2495 22.0478 10.7891 22.0478C10.3286 22.0478 9.93452 22.4379 9.93452 22.8929V36.1549C9.93452 36.6099 10.3286 37 10.7891 37C11.2495 37 11.6443 36.6099 11.6443 36.1549V26.2084H14.1441Z" fill="#0D0701"/>
<path d="M8 29C7.46159 29 7 29.375 7 29.8125V36.1875C7 36.625 7.46159 37 8 37C8.53841 37 9 36.625 9 36.1875V29.8125C9 29.375 8.53841 29 8 29Z" fill="#0D0701"/>
<path d="M20 8C20 8.43896 20.3999 8.8152 20.8656 8.8152H33.7064L31.378 10.571C30.9788 10.8219 30.9788 11.3235 31.2452 11.6998C31.5109 12.076 32.0437 12.076 32.4423 11.8252L36.7011 8.62708C37.0996 8.31354 37.0996 7.68646 36.7011 7.37292L32.4423 4.17481C32.1095 3.92398 31.5109 3.92398 31.2452 4.30023C30.9788 4.61377 30.9788 5.17814 31.378 5.42897L33.7064 7.1848H20.8656C20.3999 7.1848 20 7.56104 20 8Z" fill="#0D0701"/>
<path d="M18.8333 37H35.1673C35.6156 37 36 36.5385 36 36C36 35.4615 35.6156 35 35.1673 35H18.8333C18.385 35 18 35.4615 18 36C18.0646 36.5385 18.385 37 18.8333 37Z" fill="#0D0701"/>
<path d="M31.5 21.7157C32.4606 21.7157 33.2151 22.4706 33.2151 23.4314C33.2151 24.3922 32.4606 25.1471 31.5 25.1471C30.5393 25.1471 29.7842 24.3922 29.7842 23.4314C29.7842 22.5392 30.5393 21.7157 31.5 21.7157ZM31.5 27C33.4213 27 35 25.4216 35 23.5C35 21.5784 33.4213 20 31.5 20C29.578 20 28 21.5784 28 23.5C28 25.4216 29.578 27 31.5 27Z" fill="#0D0701"/>
<path d="M18 13H20V15H18V13Z" fill="#0D0701"/>
<path d="M22 13H24V15H22V13Z" fill="#0D0701"/>
<path d="M7 18H9V20H7V18Z" fill="#0D0701"/>
<path d="M27 13H29V15H27V13Z" fill="#0D0701"/>
</svg>
