<svg width="40" height="41" viewBox="0 0 40 41" fill="none" xmlns="http://www.w3.org/2000/svg">
<path d="M4.12673 9.50574C4.12673 7.68547 5.63319 6.19025 7.46724 6.19025C9.30161 6.19025 10.8081 7.68547 10.8081 9.50574C10.8081 11.326 9.30161 12.8212 7.46724 12.8212C5.63319 12.8212 4.12673 11.326 4.12673 9.50574ZM10.4806 13.4063C11.6595 12.4962 12.4453 11.066 12.4453 9.44073C12.4453 6.71033 10.2185 4.5 7.46724 4.5C4.71604 4.5 2.48895 6.71033 2.48895 9.44073C2.48895 11.066 3.27504 12.4962 4.45425 13.4063C1.83404 14.5765 0 17.1769 0 20.2323V26.8633C0 27.3184 0.392851 27.7084 0.851427 27.7084H3.27504V37.6549C3.27504 38.1099 3.66815 38.5 4.12673 38.5C4.58505 38.5 4.97809 38.1099 4.97809 37.6549V24.3929C4.97809 23.9379 4.58505 23.5478 4.12673 23.5478C3.66815 23.5478 3.27504 23.9379 3.27504 24.3929V26.0182H1.63726V20.2323C1.63726 17.0468 4.25746 14.4465 7.46724 14.4465C10.6768 14.4465 13.297 17.0468 13.297 20.2323V26.0182H11.6595V24.3929C11.6595 23.9379 11.2664 23.5478 10.8081 23.5478C10.3492 23.5478 9.95619 23.9379 9.95619 24.3929V37.6549C9.95619 38.1099 10.3492 38.5 10.8081 38.5C11.2664 38.5 11.6595 38.1099 11.6595 37.6549V27.7084H14.1484C14.6072 27.7084 15 27.3184 15 26.8633V20.2323C15 17.1769 13.1005 14.5765 10.4806 13.4063Z" fill="#091E42"/>
<path d="M7.99981 30.5C7.46158 30.5 7 30.875 7 31.3125V37.6875C7 38.125 7.46158 38.5 7.99981 38.5C8.53834 38.5 9 38.125 9 37.6875V31.3125C9 30.875 8.53834 30.5 7.99981 30.5Z" fill="#091E42"/>
<path d="M7 18.5H9V20.5H7V18.5Z" fill="#091E42"/>
<path d="M36.6205 38.8007H21.3794C20.4518 38.8007 19.7231 38.0817 19.7231 37.1667C19.7231 36.2516 20.4518 35.5327 21.3794 35.5327C23.3012 35.5327 35.0962 35.5327 36.5544 35.5327C37.4819 35.5327 38.211 36.2516 38.211 37.1667C38.2772 38.0817 37.5481 38.8007 36.6205 38.8007ZM31.5183 33.8333H26.4821V31.3497C26.4821 29.9771 27.6088 28.866 29.0002 28.866C30.3915 28.866 31.5183 29.9771 31.5183 31.3497V33.8333ZM22.2406 28.0163C22.2406 24.3562 25.2893 21.3497 29.0002 21.3497C32.7111 21.3497 35.7591 24.2908 35.7591 28.0163V33.8333H33.2411V31.3497C33.2411 29.0621 31.3191 27.1667 29.0002 27.1667C26.6806 27.1667 24.7593 29.0621 24.7593 31.3497V33.8333H22.2406V28.0163ZM22.2406 12.9837V12.134C22.3074 12.134 22.3736 12.134 22.4397 12.134C23.8318 11.8072 27.7412 11.1536 29.464 12.0686C31.2529 13.049 33.904 12.4608 35.7591 11.7418V12.9837C35.7591 16.6438 32.7111 19.6503 29.0002 19.6503C25.2893 19.6503 22.2406 16.7091 22.2406 12.9837ZM19.7231 3.83333C19.7231 2.9183 20.4518 2.19934 21.3794 2.19934H36.6205C37.5481 2.19934 38.2772 2.9183 38.2772 3.83333C38.2772 4.74836 37.5481 5.46732 36.6205 5.46732H21.3794C20.4518 5.53268 19.7231 4.74836 19.7231 3.83333ZM22.2406 7.16666H35.7591V9.97712C34.3678 10.5654 31.6506 11.3497 30.2592 10.6307C27.8735 9.38889 23.3673 10.2386 22.2406 10.5V7.16666ZM37.4819 33.9641V28.0163C37.4819 24.7484 35.56 21.8725 32.7111 20.5C35.56 19.1274 37.4819 16.317 37.4819 12.9837V7.03595C38.9401 6.64379 40 5.3366 40 3.83333C40 2.00327 38.4763 0.499996 36.6205 0.499996H21.3794C19.524 0.499996 18 2.00327 18 3.83333C18 5.40196 19.0603 6.70915 20.5181 7.03595V12.9837C20.5181 16.2516 22.4397 19.1274 25.2893 20.5C22.4397 21.8725 20.5181 24.683 20.5181 28.0163V33.9641C19.1266 34.2908 18.0665 35.598 18.0665 37.1667C18.0665 38.9967 19.5906 40.5 21.4457 40.5H36.6205C38.4763 40.5 40 38.9967 40 37.1667C40 35.598 38.9401 34.2908 37.4819 33.9641Z" fill="#091E42"/>
</svg>
