<svg width="28" height="28" viewBox="0 0 28 28" fill="none" xmlns="http://www.w3.org/2000/svg">
<path d="M13.6462 3.31323C14.5195 3.31323 15.1745 4.00788 15.1745 4.80941C15.1745 5.66437 14.4649 6.30559 13.6462 6.30559C12.7728 6.30559 12.1178 5.61093 12.1178 4.80941C12.1178 4.00788 12.7728 3.31323 13.6462 3.31323ZM13.6462 7.00024C14.8465 7.00024 15.8836 6.03841 15.8836 4.80941C15.8836 3.5804 14.9016 2.61857 13.6462 2.61857C12.4453 2.61857 11.4082 3.5804 11.4082 4.80941C11.4082 6.03841 12.3907 7.00024 13.6462 7.00024Z" fill="#0B182A"/>
<path d="M23.688 27.359H3.54749C2.89248 27.359 2.34663 26.8247 2.34663 26.1835C2.34663 25.5422 2.89248 25.0079 3.54749 25.0079C3.875 25.0079 23.3053 25.0079 23.688 25.0079C24.3424 25.0079 24.8883 25.5422 24.8883 26.1835C24.8883 26.8247 24.3424 27.359 23.688 27.359ZM4.74833 23.1911C4.74833 22.5499 5.29418 22.0155 5.94919 22.0155C7.25921 22.0155 19.2121 22.0155 21.2863 22.0155C21.9413 22.0155 22.4871 22.5499 22.4871 23.1911C22.4871 23.8323 21.9413 24.3667 21.2863 24.3667H5.94919C5.29418 24.3667 4.74833 23.8323 4.74833 23.1911ZM8.18715 20.1987C8.18715 19.5575 8.73298 19.0232 9.38799 19.0232C10.2613 19.0232 16.9747 19.0232 17.902 19.0232C18.5571 19.0232 19.1029 19.5575 19.1029 20.1987C19.1029 20.84 18.5571 21.3743 17.902 21.3743H9.38799C8.73298 21.3743 8.18715 20.84 8.18715 20.1987ZM12.2804 16.0308H15.0096V18.3819H12.2804V16.0308ZM10.9158 9.72547C10.9158 8.97738 11.5708 8.33616 12.335 8.33616H14.9545C15.7187 8.33616 16.3737 8.97738 16.3737 9.72547V15.3361C15.0637 15.3361 12.0621 15.3361 10.9158 15.3361V9.72547ZM23.688 24.3667H22.76C23.033 24.0461 23.1962 23.6186 23.1962 23.1911C23.1962 22.1758 22.3779 21.3743 21.3408 21.3743H19.3758C19.6487 21.0537 19.8125 20.6262 19.8125 20.1987C19.8125 19.1835 18.9937 18.3819 17.9566 18.3819H15.7187V16.0308H16.7017C16.8649 16.0308 17.0287 15.8705 17.0287 15.7102V9.72547C17.0287 8.60334 16.1008 7.69494 14.9545 7.69494H12.335C11.1893 7.69494 10.2613 8.60334 10.2613 9.72547V15.7102C10.2613 15.8705 10.4251 16.0308 10.5883 16.0308H11.6254V18.3819H9.38799C8.35089 18.3819 7.53214 19.1835 7.53214 20.1987C7.53214 20.6262 7.69589 21.0537 7.96881 21.3743H6.00376C4.96666 21.3743 4.14791 22.1758 4.14791 23.1911C4.14791 23.6186 4.31167 24.0461 4.58459 24.3667H3.65666C2.61956 24.3667 1.80078 25.1682 1.80078 26.1835C1.80078 27.1987 2.61956 28.0002 3.65666 28.0002H23.7971C24.8342 28.0002 25.6525 27.1987 25.6525 26.1835C25.5984 25.1682 24.7245 24.3667 23.688 24.3667Z" fill="#0B182A"/>
<path d="M2.4017 14.3207C3.32963 14.3207 4.09381 15.0688 4.09381 15.9772C4.09381 16.8856 3.32963 17.6337 2.4017 17.6337C1.47377 17.6337 0.710116 16.8856 0.710116 15.9772C0.710116 15.0688 1.41919 14.3207 2.4017 14.3207ZM2.4017 18.3284C3.71172 18.3284 4.8034 17.2597 4.8034 15.9772C4.8034 14.6948 3.71172 13.6261 2.4017 13.6261C1.09168 13.6261 0 14.6948 0 15.9772C0 17.2597 1.0371 18.3284 2.4017 18.3284Z" fill="#0B182A"/>
<path d="M25.9258 18.008C25.1616 18.008 24.5617 17.4202 24.5617 16.6721C24.5617 15.924 25.1616 15.3363 25.9258 15.3363C26.6899 15.3363 27.2909 15.924 27.2909 16.6721C27.2909 17.4202 26.6899 18.008 25.9258 18.008ZM25.9258 14.695C24.7795 14.695 23.8516 15.6034 23.8516 16.7256C23.8516 17.8477 24.7795 18.7561 25.9258 18.7561C27.072 18.7561 27.9999 17.8477 27.9999 16.7256C27.9999 15.6034 27.018 14.695 25.9258 14.695Z" fill="#0B182A"/>
<path d="M25.7628 -0.000160336C26.0341 -0.000160336 26.2545 0.215183 26.2545 0.480755C26.2545 0.746327 26.0341 0.96167 25.7628 0.96167C25.4915 0.96167 25.2715 0.746327 25.2715 0.480755C25.2715 0.215183 25.4915 -0.000160336 25.7628 -0.000160336Z" fill="#0B182A"/>
<path d="M0.818846 0.695152C1.09015 0.695152 1.3101 0.910495 1.3101 1.17607C1.3101 1.44164 1.09015 1.65698 0.818846 1.65698C0.547547 1.65698 0.328125 1.44164 0.328125 1.17607C0.328125 0.910495 0.547547 0.695152 0.818846 0.695152Z" fill="#0B182A"/>
<path d="M7.64111 7.37386C7.91295 7.37386 8.13239 7.58921 8.13239 7.85478C8.13239 8.12035 7.91295 8.33569 7.64111 8.33569C7.36981 8.33569 7.15039 8.12035 7.15039 7.85478C7.15039 7.58921 7.36981 7.37386 7.64111 7.37386Z" fill="#0B182A"/>
<path d="M0.491777 21.3736C0.763076 21.3736 0.983052 21.589 0.983052 21.8545C0.983052 22.1201 0.763076 22.3354 0.491777 22.3354C0.220477 22.3354 0 22.1201 0 21.8545C0 21.589 0.220477 21.3736 0.491777 21.3736Z" fill="#0B182A"/>
<path d="M20.6319 7.69442C20.9032 7.69442 21.1231 7.90976 21.1231 8.17533C21.1231 8.44091 20.9032 8.65625 20.6319 8.65625C20.3606 8.65625 20.1406 8.44091 20.1406 8.17533C20.1406 7.90976 20.3606 7.69442 20.6319 7.69442Z" fill="#0B182A"/>
<path d="M27.4542 11.0081C27.7255 11.0081 27.9454 11.2235 27.9454 11.4891C27.9454 11.7546 27.7255 11.97 27.4542 11.97C27.1829 11.97 26.9629 11.7546 26.9629 11.4891C26.9629 11.2235 27.1829 11.0081 27.4542 11.0081Z" fill="#0B182A"/>
<path d="M27.4542 22.3892C27.7255 22.3892 27.9454 22.6046 27.9454 22.8702C27.9454 23.1357 27.7255 23.3511 27.4542 23.3511C27.1829 23.3511 26.9629 23.1357 26.9629 22.8702C26.9629 22.6046 27.1829 22.3892 27.4542 22.3892Z" fill="#0B182A"/>
</svg>
