<svg width="28" height="25" viewBox="0 0 28 25" fill="none" xmlns="http://www.w3.org/2000/svg">
<path d="M11.1895 4.23363C11.3336 4.18711 11.4292 4.09408 11.4777 4.00105C11.6698 3.67543 11.6217 3.21027 11.6217 1.81477H11.0934C11.0934 2.97768 11.0934 3.16375 11.0934 3.39633C11.0454 3.72195 10.9493 3.81498 10.7092 3.81498C10.6131 3.81498 10.517 3.81498 10.421 3.76846C10.3249 3.72195 10.2769 3.72195 10.2769 3.72195L10.1328 4.18711C10.2769 4.28014 10.469 4.32666 10.7092 4.32666C10.9013 4.32666 11.0934 4.28014 11.1895 4.23363Z" fill="#0B182A"/>
<path d="M12.8717 2.79109C12.9192 2.60503 13.0153 2.46548 13.2079 2.37244C13.3515 2.27941 13.5917 2.27941 13.7843 2.37244C14.1205 2.55851 14.2165 2.97716 14.1205 3.30277C14.072 3.48884 13.9764 3.62839 13.7843 3.72142C13.6402 3.81445 13.3515 3.81445 13.2079 3.72142C13.0153 3.62839 12.9192 3.48884 12.8717 3.30277C12.8236 3.16322 12.8717 2.88412 12.8717 2.79109ZM12.9677 4.18658C13.2554 4.32613 13.8318 4.27962 13.9764 4.18658C14.6003 3.90749 14.889 3.20974 14.6483 2.60503C14.5527 2.32593 14.3126 2.04683 13.9764 1.90728C13.6877 1.76773 13.2554 1.76773 12.9677 1.90728C12.6315 2.04683 12.4389 2.27941 12.2953 2.55851C12.1027 3.20974 12.3429 3.90749 12.9677 4.18658Z" fill="#0B182A"/>
<path d="M15.9455 3.25618H16.6175C16.6655 3.25618 16.7616 3.3027 16.8096 3.34921C16.8576 3.39573 16.8576 3.48876 16.8576 3.53528C16.8576 3.62831 16.8096 3.67483 16.7615 3.72134C16.7135 3.76786 16.6655 3.81438 16.5694 3.81438H15.897L15.9455 3.25618ZM15.9455 2.32585H16.5214C16.5694 2.32585 16.6175 2.32585 16.6655 2.37237C16.7135 2.41888 16.7135 2.4654 16.7135 2.55843C16.7135 2.65147 16.6655 2.69798 16.6175 2.7445C16.5694 2.79102 16.5214 2.79102 16.4253 2.79102H15.849L15.9455 2.32585ZM17.482 3.67483C17.482 3.48876 17.434 3.34921 17.3379 3.25618C17.2419 3.16315 17.1458 3.07011 17.0017 3.0236C17.1458 2.97708 17.1943 2.88405 17.2899 2.79102C17.5301 2.37237 17.2419 1.81417 16.8096 1.81417H15.3691V4.27954H16.6175C17.0497 4.27954 17.482 4.09348 17.482 3.67483Z" fill="#0B182A"/>
<path d="M19.0191 3.81378C18.9235 3.81378 18.8275 3.81378 18.7314 3.76727C18.5393 3.72075 18.3952 3.62772 18.2991 3.5812C18.2511 3.53468 18.2031 3.53468 18.2031 3.53468L17.9629 4.04637C18.203 4.18591 18.4912 4.27895 18.7794 4.32546C19.0191 4.37198 19.2117 4.37198 19.4038 4.32546C19.644 4.27895 19.8356 4.1394 19.9317 3.95333C19.9802 3.8603 20.0282 3.72075 20.0282 3.5812C20.0282 3.25559 19.8841 3.06952 19.5479 2.92997C19.0676 2.74391 18.6829 2.74391 18.6829 2.51132C18.6829 2.37177 18.7794 2.32526 19.0191 2.32526C19.1156 2.32526 19.1637 2.32526 19.2597 2.37177C19.4038 2.41829 19.5479 2.46481 19.644 2.51132C19.6915 2.55784 19.6915 2.55784 19.74 2.55784L19.9802 2.09268C19.7881 1.95313 19.5479 1.90661 19.3078 1.86009C18.8755 1.76706 18.3952 1.90661 18.2031 2.27874C18.1065 2.46481 18.1065 2.69739 18.155 2.88345C18.203 3.023 18.3472 3.11604 18.4912 3.20907C18.8275 3.39514 19.2117 3.39514 19.3553 3.53468C19.4038 3.5812 19.4038 3.5812 19.4038 3.62772C19.3078 3.72075 19.2117 3.81378 19.0191 3.81378Z" fill="#0B182A"/>
<path d="M1.20123 17.7243C0.865018 17.7243 0.576352 17.4452 0.576352 17.1196C0.576352 16.7939 0.865018 16.5148 1.20123 16.5148C1.53697 16.5148 1.82516 16.7939 1.82516 17.1196C1.82516 17.4452 1.53697 17.7243 1.20123 17.7243ZM1.20123 15.9566C0.528803 15.9566 0 16.4683 0 17.1196C0 17.7708 0.528803 18.2825 1.20123 18.2825C1.87319 18.2825 2.40154 17.7708 2.40154 17.1196C2.40154 16.4683 1.87319 15.9566 1.20123 15.9566Z" fill="#0B182A"/>
<path d="M1.05681 0.559677C1.29553 0.559677 1.4891 0.747138 1.4891 0.978325C1.4891 1.20951 1.29553 1.39697 1.05681 1.39697C0.818078 1.39697 0.625 1.20951 0.625 0.978325C0.625 0.747138 0.818078 0.559677 1.05681 0.559677Z" fill="#0B182A"/>
<path d="M2.88151 4.65172C3.12024 4.65172 3.31378 4.83918 3.31378 5.07037C3.31378 5.30155 3.12024 5.48901 2.88151 5.48901C2.64278 5.48901 2.44922 5.30155 2.44922 5.07037C2.44922 4.83918 2.64278 4.65172 2.88151 4.65172Z" fill="#0B182A"/>
<path d="M1.05681 22.3751C1.29553 22.3751 1.4891 22.5626 1.4891 22.7938C1.4891 23.0248 1.29553 23.2124 1.05681 23.2124C0.818078 23.2124 0.625 23.0248 0.625 22.7938C0.625 22.5626 0.818078 22.3751 1.05681 22.3751Z" fill="#0B182A"/>
<path d="M9.03084 7.25635H11.4314C11.576 7.25635 11.7201 7.1168 11.7201 6.97725C11.7201 6.8377 11.576 6.69815 11.4314 6.69815H9.03084C8.88627 6.69815 8.74219 6.8377 8.74219 6.97725C8.74219 7.1168 8.83824 7.25635 9.03084 7.25635Z" fill="#0B182A"/>
<path d="M16.8093 7.81607H12.5826C12.4386 7.81607 12.2949 7.95562 12.2949 8.09517C12.2949 8.23472 12.4386 8.37427 12.5826 8.37427H16.8093C16.9534 8.37427 17.0975 8.23472 17.0975 8.09517C17.1456 7.95562 17.0015 7.81607 16.8093 7.81607Z" fill="#0B182A"/>
<path d="M9.03084 8.97787C8.88627 8.97787 8.74219 9.11742 8.74219 9.25696C8.74219 9.39651 8.88627 9.53606 9.03084 9.53606H11.2878C11.4799 10.1408 12.1524 10.5594 13.1605 10.6525C13.4012 10.699 13.6413 10.699 13.929 10.699C14.0251 10.699 16.1865 10.699 16.8589 10.699C17.003 10.699 17.1471 10.5594 17.1471 10.4199C17.1471 10.2803 17.003 10.1408 16.8589 10.1408H16.8109C17.2432 9.95471 17.6754 9.76865 18.0597 9.53606C18.0597 9.53606 18.0597 9.53606 18.1072 9.53606H22.3339C22.478 9.53606 22.6226 9.39651 22.6226 9.25696C22.6226 9.11742 22.478 8.97787 22.3339 8.97787H18.9242C19.1164 8.7918 19.3085 8.60573 19.5001 8.37315H22.3339C22.478 8.37315 22.6226 8.2336 22.6226 8.09405C22.6226 7.9545 22.478 7.81495 22.3339 7.81495H19.8848C19.9809 7.62889 20.0289 7.44282 20.0289 7.21024H22.3339C22.478 7.21024 22.6226 7.07069 22.6226 6.93114C22.6226 6.79159 22.478 6.65204 22.3339 6.65204H19.8848C19.7407 6.32643 19.356 6.04733 18.9242 5.81475C17.9156 5.3961 16.5707 5.48913 15.3219 6.09385C15.1778 6.14036 15.1303 6.32643 15.1778 6.46598C15.2258 6.60553 15.418 6.65204 15.5621 6.60553C16.6668 6.09385 17.8195 6.00081 18.6836 6.37295C18.8762 6.46598 19.0198 6.55901 19.1644 6.65204H18.1557C18.0116 6.65204 17.8675 6.79159 17.8675 6.93114C17.8675 7.07069 18.0116 7.21024 18.1557 7.21024H19.4526C19.4526 7.39631 19.356 7.58237 19.2604 7.81495H18.2038C18.0597 7.81495 17.9156 7.9545 17.9156 8.09405C17.9156 8.2336 18.0597 8.37315 18.2038 8.37315H18.7801C18.3959 8.74528 17.8676 9.0709 17.2912 9.35C17.3392 9.16393 17.1956 8.97787 17.003 8.97787H12.7768C12.6327 8.97787 12.4886 9.11742 12.4886 9.25696C12.4886 9.39651 12.6327 9.53606 12.7768 9.53606H16.8109C15.8022 9.95471 14.5054 10.2338 13.4012 10.0943C12.6327 10.0012 12.1524 9.72213 12.0083 9.35C11.9122 9.02438 12.0563 8.2336 12.6327 7.44282C12.6802 7.39631 12.7287 7.30327 12.7768 7.25676H17.003C17.1471 7.25676 17.2912 7.11721 17.2912 6.97766C17.2912 6.83811 17.1471 6.69856 17.003 6.69856H13.2566C13.6889 6.2334 14.3137 5.76823 15.1303 5.53565C15.2739 5.48913 15.3704 5.30307 15.3219 5.16352C15.2739 5.02397 15.0818 4.93094 14.9377 4.97745C13.4967 5.44262 12.2964 6.60553 11.7201 7.90799C11.672 7.90799 11.624 7.86147 11.624 7.86147H9.22248C9.07838 7.86147 8.93431 8.00102 8.93431 8.14057C8.93431 8.28012 9.07838 8.41967 9.22248 8.41967H11.528C11.4799 8.60573 11.4314 8.83832 11.4314 9.02438L9.03084 8.97787Z" fill="#0B182A"/>
<path d="M9.03084 10.7451H11.4314C11.576 10.7451 11.7201 10.6056 11.7201 10.466C11.7201 10.3265 11.576 10.1869 11.4314 10.1869H9.03084C8.88627 10.1869 8.74219 10.3265 8.74219 10.466C8.74219 10.6056 8.83824 10.7451 9.03084 10.7451Z" fill="#0B182A"/>
<path d="M22.2371 10.1408H18.0108C17.8668 10.1408 17.7227 10.2803 17.7227 10.4199C17.7227 10.5594 17.8668 10.699 18.0108 10.699H22.2371C22.3816 10.699 22.5252 10.5594 22.5252 10.4199C22.5252 10.2803 22.3816 10.1408 22.2371 10.1408Z" fill="#0B182A"/>
<path d="M9.03084 11.9082H11.4314C11.576 11.9082 11.7201 11.7687 11.7201 11.6291C11.7201 11.4896 11.576 11.35 11.4314 11.35H9.03084C8.88627 11.35 8.74219 11.4896 8.74219 11.6291C8.74219 11.7687 8.83824 11.9082 9.03084 11.9082Z" fill="#0B182A"/>
<path d="M16.8093 11.3048H12.5826C12.4386 11.3048 12.2949 11.4444 12.2949 11.5839C12.2949 11.7235 12.4386 11.863 12.5826 11.863H16.8093C16.9534 11.863 17.0975 11.7235 17.0975 11.5839C17.1456 11.4444 17.0015 11.3048 16.8093 11.3048Z" fill="#0B182A"/>
<path d="M22.2371 11.3048H18.0108C17.8668 11.3048 17.7227 11.4444 17.7227 11.5839C17.7227 11.7235 17.8668 11.863 18.0108 11.863H22.2371C22.3816 11.863 22.5252 11.7235 22.5252 11.5839C22.5252 11.4444 22.3816 11.3048 22.2371 11.3048Z" fill="#0B182A"/>
<path d="M9.03084 13.0715H11.4314C11.576 13.0715 11.7201 12.932 11.7201 12.7924C11.7201 12.6529 11.576 12.4668 11.4314 12.4668H9.03084C8.88627 12.4668 8.74219 12.6064 8.74219 12.7459C8.74219 12.8855 8.83824 13.0715 9.03084 13.0715Z" fill="#0B182A"/>
<path d="M16.8093 12.4672H12.5826C12.4386 12.4672 12.2949 12.6067 12.2949 12.7463C12.2949 12.8858 12.4386 13.0254 12.5826 13.0254H16.8093C16.9534 13.0254 17.0975 12.8858 17.0975 12.7463C17.0975 12.6067 17.0015 12.4672 16.8093 12.4672Z" fill="#0B182A"/>
<path d="M22.2371 12.4672H18.0108C17.8668 12.4672 17.7227 12.6067 17.7227 12.7463C17.7227 12.8858 17.8668 13.0254 18.0108 13.0254H22.2371C22.3816 13.0254 22.5252 12.8858 22.5252 12.7463C22.5252 12.6067 22.3816 12.4672 22.2371 12.4672Z" fill="#0B182A"/>
<path d="M9.03084 14.2336H11.4314C11.576 14.2336 11.7201 14.0941 11.7201 13.9545C11.7201 13.815 11.576 13.6754 11.4314 13.6754H9.03084C8.88627 13.6754 8.74219 13.815 8.74219 13.9545C8.74219 14.0941 8.83824 14.2336 9.03084 14.2336Z" fill="#0B182A"/>
<path d="M16.8093 13.6293H12.5826C12.4386 13.6293 12.2949 13.7689 12.2949 13.9084C12.2949 14.048 12.4386 14.1875 12.5826 14.1875H16.8093C16.9534 14.1875 17.0975 14.048 17.0975 13.9084C17.0975 13.7689 17.0015 13.6293 16.8093 13.6293Z" fill="#0B182A"/>
<path d="M22.2371 13.6293H18.0108C17.8668 13.6293 17.7227 13.7689 17.7227 13.9084C17.7227 14.048 17.8668 14.1875 18.0108 14.1875H22.2371C22.3816 14.1875 22.5252 14.048 22.5252 13.9084C22.5252 13.7689 22.3816 13.6293 22.2371 13.6293Z" fill="#0B182A"/>
<path d="M9.03084 15.397H11.4314C11.576 15.397 11.7201 15.2574 11.7201 15.1179C11.7201 14.9783 11.576 14.7923 11.4314 14.7923H9.03084C8.88627 14.7923 8.74219 14.9318 8.74219 15.0714C8.74219 15.2109 8.83824 15.397 9.03084 15.397Z" fill="#0B182A"/>
<path d="M16.8093 14.7936H12.5826C12.4386 14.7936 12.2949 14.9332 12.2949 15.0727C12.2949 15.2123 12.4386 15.3518 12.5826 15.3518H16.8093C16.9534 15.3518 17.0975 15.2123 17.0975 15.0727C17.0975 14.9332 17.0015 14.7936 16.8093 14.7936Z" fill="#0B182A"/>
<path d="M22.2371 14.7936H18.0108C17.8668 14.7936 17.7227 14.9332 17.7227 15.0727C17.7227 15.2123 17.8668 15.3518 18.0108 15.3518H22.2371C22.3816 15.3518 22.5252 15.2123 22.5252 15.0727C22.5252 14.9332 22.3816 14.7936 22.2371 14.7936Z" fill="#0B182A"/>
<path d="M9.03084 16.5603H11.4314C11.576 16.5603 11.7201 16.4208 11.7201 16.2812C11.7201 16.1417 11.576 16.0021 11.4314 16.0021H9.03084C8.88627 16.0021 8.74219 16.1417 8.74219 16.2812C8.74219 16.4208 8.83824 16.5603 9.03084 16.5603Z" fill="#0B182A"/>
<path d="M16.8093 15.9557H12.5826C12.4386 15.9557 12.2949 16.0953 12.2949 16.2348C12.2949 16.3744 12.4386 16.5139 12.5826 16.5139H16.8093C16.9534 16.5139 17.0975 16.3744 17.0975 16.2348C17.0975 16.0953 17.0015 15.9557 16.8093 15.9557Z" fill="#0B182A"/>
<path d="M22.2371 15.9557H18.0108C17.8668 15.9557 17.7227 16.0953 17.7227 16.2348C17.7227 16.3744 17.8668 16.5139 18.0108 16.5139H22.2371C22.3816 16.5139 22.5252 16.3744 22.5252 16.2348C22.5252 16.0953 22.3816 15.9557 22.2371 15.9557Z" fill="#0B182A"/>
<path d="M11.7201 17.3977C11.7201 17.2581 11.576 17.1186 11.4314 17.1186H9.03084C8.88627 17.1186 8.74219 17.2581 8.74219 17.3977C8.74219 17.5372 8.88627 17.6768 9.03084 17.6768H11.4314C11.576 17.7233 11.7201 17.5837 11.7201 17.3977Z" fill="#0B182A"/>
<path d="M16.8093 17.1181H12.5826C12.4386 17.1181 12.2949 17.2576 12.2949 17.3972C12.2949 17.5367 12.4386 17.6763 12.5826 17.6763H16.8093C16.9534 17.6763 17.0975 17.5367 17.0975 17.3972C17.0975 17.2576 17.0015 17.1181 16.8093 17.1181Z" fill="#0B182A"/>
<path d="M22.2371 17.1181H18.0108C17.8668 17.1181 17.7227 17.2576 17.7227 17.3972C17.7227 17.5367 17.8668 17.6763 18.0108 17.6763H22.2371C22.3816 17.6763 22.5252 17.5367 22.5252 17.3972C22.5252 17.2576 22.3816 17.1181 22.2371 17.1181Z" fill="#0B182A"/>
<path d="M26.4153 21.4906H25.2145V19.723H26.4153C26.8956 19.723 27.3278 20.0951 27.3278 20.6068C27.3278 21.1185 26.9431 21.4906 26.4153 21.4906ZM23.7255 22.3744C23.7255 23.4908 22.813 24.3746 21.6602 24.3746H7.06028C7.34799 24.049 7.54059 23.6769 7.54059 23.2117C7.54059 22.2349 7.54059 1.48853 7.54059 0.511681H23.7255V19.1183H12.9191C12.8715 19.1183 12.8235 19.1183 12.7755 19.1648L10.6621 20.3742C10.47 20.4672 10.47 20.7463 10.6621 20.8859L12.7755 22.0488C12.8235 22.0953 12.8715 22.0953 12.9191 22.0953H23.7255V22.3744ZM4.56268 23.2117V7.53566H6.96422C6.96422 8.46599 6.96422 23.0256 6.96422 23.2582C6.96422 23.9094 6.43542 24.4211 5.76298 24.4211C5.09055 24.3746 4.56268 23.8629 4.56268 23.2117ZM24.6381 20.3277H14.7443V19.723H24.6381V20.3277ZM13.0152 21.4906L11.4301 20.6068L13.0152 19.723H14.1203V21.4906H13.0152ZM14.7443 21.4906V20.8859H24.6381V21.4906H14.7443ZM26.4153 19.1648H24.3019V0.279099C24.3019 0.139549 24.1578 0 24.0137 0H7.25194C7.10832 0 6.96422 0.139549 6.96422 0.279099V6.97747H4.27449C4.1304 6.97747 3.98633 7.11702 3.98633 7.25657V23.2582C3.98633 24.2816 4.8989 25.1189 6.00313 24.9793C6.09919 25.0258 5.37922 24.9793 21.7087 24.9793C23.1977 24.9793 24.398 23.8164 24.398 22.3744V22.0488H26.5113C27.3278 22.0488 27.9998 21.3976 27.9998 20.6068C27.9523 19.816 27.2798 19.1648 26.4153 19.1648Z" fill="#0B182A"/>
</svg>
