<svg width="41" height="40" viewBox="0 0 41 40" fill="none" xmlns="http://www.w3.org/2000/svg">
<path d="M37.7058 14.7679C36.7683 14.7679 35.8309 15.0981 35.1609 15.8247L32.6834 17.2779H28.1959V15.6266C28.1959 11.9276 24.7803 8.88913 20.4942 8.88913C16.2073 8.88913 12.7917 11.8615 12.7917 15.5605C12.7917 16.0229 13.1943 16.4192 13.663 16.4192C14.1317 16.4192 14.5329 16.0229 14.5329 15.5605C14.5329 12.7863 17.2123 10.5405 20.4942 10.5405C23.7753 10.5405 26.4547 12.7863 26.4547 15.5605V17.8724C25.651 18.5329 25.3828 19.6558 25.7178 20.5806H15.2029C15.2698 20.3164 15.3367 20.0521 15.3367 19.7219C15.3367 18.3348 14.1986 17.2118 12.7917 17.2118H8.37177L5.89369 15.7587C5.22434 15.0981 4.28685 14.7018 3.28184 14.7018C1.40621 14.7679 0 16.2211 0 18.0705V28.1767C0 30.0262 1.54061 31.5454 3.41557 31.5454H8.23738L13.7967 39.4718C14.0642 39.8681 14.6005 39.9342 15.0024 39.67C15.4042 39.4058 15.4711 38.8773 15.2029 38.481L9.37615 30.2244C9.24241 30.0262 8.97493 29.8941 8.70613 29.8941H3.41557C2.47809 29.8941 1.74121 29.1675 1.74121 28.2428V18.1366C1.74121 17.2118 2.47809 16.4192 3.48311 16.4853C3.95185 16.4853 4.4206 16.6834 4.68807 17.0797C4.7556 17.1458 4.82181 17.2118 4.88934 17.2779L7.70243 18.9292C7.83617 18.9953 7.96991 19.0613 8.17118 19.0613H12.7917C13.2605 19.0613 13.663 19.4577 13.663 19.92C13.663 20.3824 13.2605 20.7787 12.7917 20.7787C10.9836 20.7787 9.5774 20.7787 7.70243 20.7787C7.56803 20.7787 7.36742 20.7127 7.23369 20.6466L6.42997 20.1842C6.16183 20.0521 5.82682 20.0521 5.55868 20.1842C5.29121 20.3164 5.15682 20.6466 5.15682 20.9108V27.5162C5.15682 27.9785 5.55868 28.3749 6.02743 28.3749H9.44368C9.64428 28.3749 9.84488 28.4409 9.97928 28.573L16.2748 37.2921C16.5423 37.6884 17.0786 37.7544 17.4798 37.4902C17.8823 37.226 17.9485 36.6976 17.6811 36.3013C10.8499 26.7896 11.3186 27.3841 11.1849 27.252C10.7162 26.7896 10.0462 26.5254 9.37615 26.5254H6.83115V22.1658C7.09928 22.2319 7.36743 22.298 7.70243 22.298C9.30926 22.298 18.0161 22.298 19.6235 22.298V39.1416C19.6235 39.6039 20.0254 40.0002 20.4942 40.0002C20.9629 40.0002 21.3641 39.6039 21.3641 39.1416V22.298C22.771 22.298 31.879 22.298 33.2859 22.298C33.554 22.298 33.8883 22.2319 34.1565 22.1658V26.5254H31.6115C30.9415 26.5254 30.2722 26.7896 29.8034 27.252C29.7365 27.318 30.1378 26.7896 23.3741 36.1031C23.106 36.4994 23.1729 37.0278 23.5747 37.2921C23.9766 37.5563 24.5122 37.4902 24.7804 37.0939L31.0753 28.3749C31.2103 28.2428 31.4102 28.1767 31.6115 28.1767H35.0271C35.4959 28.1767 35.8984 27.7804 35.8984 27.318V20.7127C35.8984 20.3824 35.764 20.1182 35.4959 19.9861C35.2284 19.854 34.8934 19.854 34.6259 19.9861L33.8215 20.4485C33.6878 20.5145 33.554 20.5806 33.3528 20.5806C31.4103 20.5806 30.0716 20.5806 28.2628 20.5806C27.7941 20.5806 27.3922 20.1842 27.3922 19.7219C27.3922 19.2595 27.7941 18.8632 28.2628 18.8632H32.884C33.0177 18.8632 33.219 18.7971 33.3528 18.7311L36.1658 17.0797C36.2334 17.0137 36.2996 16.9476 36.3671 16.8816C36.7021 16.4853 37.1709 16.2871 37.7058 16.2871C38.644 16.3532 39.3802 17.0797 39.3802 17.9384V28.0446C39.3802 28.9693 38.644 29.6959 37.7058 29.6959H32.4153C32.1478 29.6959 31.879 29.828 31.7452 30.0262L25.9184 38.2829C25.651 38.6792 25.7178 39.2076 26.1197 39.4718C26.5216 39.736 27.0572 39.67 27.3247 39.2737L32.884 31.3473H37.5721C39.4477 31.3473 40.9877 29.828 40.9877 27.9785V18.1366C40.9877 16.2871 39.5814 14.8339 37.7058 14.7679Z" fill="#091E42"/>
<path d="M36.7919 7.13733C38.1691 7.13733 39.2836 8.2523 39.2836 9.62962C39.2836 11.0069 38.1691 12.1219 36.7919 12.1219C35.4141 12.1219 34.2989 11.0069 34.2989 9.62962C34.2989 8.2523 35.4141 7.13733 36.7919 7.13733ZM36.7919 13.8271C39.0872 13.8271 40.9888 11.9251 40.9888 9.62962C40.9888 7.33409 39.0872 5.43209 36.7919 5.43209C34.4954 5.43209 32.5938 7.33409 32.5938 9.62962C32.5938 11.9251 34.4954 13.8271 36.7919 13.8271Z" fill="#091E42"/>
<path d="M4.19818 7.13733C5.57531 7.13733 6.68984 8.2523 6.68984 9.62962C6.68984 11.0069 5.57531 12.1219 4.19818 12.1219C2.8204 12.1219 1.70519 11.0069 1.70519 9.62962C1.70519 8.2523 2.8204 7.13733 4.19818 7.13733ZM4.19818 13.8271C6.4934 13.8271 8.39506 11.9251 8.39506 9.62962C8.39506 7.33409 6.4934 5.43209 4.19818 5.43209C1.90231 5.43209 0 7.33409 0 9.62962C0 11.9251 1.90231 13.8271 4.19818 13.8271Z" fill="#091E42"/>
<path d="M20.4947 1.7052C21.8717 1.7052 22.9868 2.82017 22.9868 4.19749C22.9868 5.5748 21.8717 6.68977 20.4947 6.68977C19.1171 6.68977 18.002 5.5748 18.002 4.19749C18.002 2.82017 19.1171 1.7052 20.4947 1.7052ZM20.4947 8.39502C22.7898 8.39502 24.6919 6.49301 24.6919 4.19749C24.6919 1.90196 22.7898 -4.19617e-05 20.4947 -4.19617e-05C18.199 -4.19617e-05 16.2969 1.90196 16.2969 4.19749C16.2969 6.49301 18.199 8.39502 20.4947 8.39502Z" fill="#091E42"/>
</svg>
