<svg width="37" height="37" viewBox="0 0 37 37" fill="none" xmlns="http://www.w3.org/2000/svg">
<path fill-rule="evenodd" clip-rule="evenodd" d="M30.0658 5.28012C30.3509 5.26991 30.6284 5.37337 30.8372 5.56774C31.046 5.76211 31.169 6.03147 31.1792 6.31657L31.6412 19.2159C31.6514 19.501 31.5479 19.7785 31.3536 19.9873C31.1592 20.1961 30.8898 20.3191 30.6047 20.3293C30.3196 20.3395 30.0422 20.2361 29.8334 20.0417C29.6245 19.8473 29.5015 19.578 29.4913 19.2929L29.1223 8.98847L8.09072 31.5845C7.99436 31.6881 7.87855 31.7716 7.7499 31.8304C7.62125 31.8891 7.48229 31.922 7.34095 31.927C7.19961 31.9321 7.05865 31.9093 6.92613 31.8599C6.79361 31.8104 6.67212 31.7354 6.5686 31.639C6.46508 31.5427 6.38155 31.4269 6.32278 31.2982C6.26402 31.1696 6.23117 31.0306 6.2261 30.8893C6.22104 30.7479 6.24387 30.607 6.29328 30.4745C6.3427 30.3419 6.41773 30.2204 6.51409 30.1169L27.5479 7.52293L17.2435 7.89194C16.9584 7.90215 16.6809 7.79869 16.4721 7.60432C16.2633 7.40995 16.1402 7.14059 16.13 6.8555C16.1198 6.5704 16.2233 6.29293 16.4176 6.08412C16.612 5.87531 16.8814 5.75226 17.1665 5.74206L30.0658 5.28012Z" fill="#F54200"/>
</svg>
