<svg width="33" height="32" viewBox="0 0 33 32" fill="none" xmlns="http://www.w3.org/2000/svg">
<path d="M3.4089 17.3037C3.4089 16.5663 3.99433 15.9868 4.74033 15.9868C5.48582 15.9868 6.07125 16.5663 6.07125 17.3037C6.07125 18.0412 5.48582 18.6206 4.74033 18.6206C3.99433 18.6733 3.4089 18.0938 3.4089 17.3037ZM6.81674 19.042C7.24318 18.5679 7.45639 17.9885 7.45639 17.3037C7.45639 15.8288 6.2313 14.6173 4.74033 14.6173C3.24884 14.6173 2.02375 15.8288 2.02375 17.3037C2.02375 17.9885 2.29014 18.5679 2.66288 19.042C1.06557 19.6741 0 21.0436 0 22.6239V25.9424C0 26.3111 0.320089 26.6272 0.69283 26.6272H2.02375V31.3152C2.02375 31.684 2.34332 32 2.71606 32C3.0888 32 3.4089 31.684 3.4089 31.3152V24.7309C3.4089 24.3621 3.0888 24.0461 2.71606 24.0461C2.34332 24.0461 2.02375 24.3621 2.02375 24.7309V25.3103H1.33144V22.6765C1.33144 21.2016 2.8761 20.0428 4.74033 20.0428C6.60404 20.0428 8.14871 21.2016 8.14871 22.6765V25.3103H7.45639V24.7309C7.45639 24.3621 7.13683 24.0461 6.76356 24.0461C6.39082 24.0461 6.07125 24.3621 6.07125 24.7309V31.3152C6.07125 31.684 6.39082 32 6.76356 32C7.13683 32 7.45639 31.684 7.45639 31.3152V26.6272H8.78784C9.16058 26.6272 9.47963 26.3111 9.47963 25.9424V22.6239C9.53333 21.0963 8.4151 19.7267 6.81674 19.042Z" fill="#0D0701"/>
<path d="M5.13612 27.2593C4.71056 27.2593 4.3457 27.5789 4.3457 27.9517V31.3075C4.3457 31.6804 4.71056 32 5.13612 32C5.56169 32 5.92595 31.6804 5.92595 31.3075V27.9517C5.92595 27.5256 5.56169 27.2593 5.13612 27.2593Z" fill="#0D0701"/>
<path d="M31.3943 30.629H29.5708C29.5708 30.1544 29.5708 8.74576 29.5708 8.42938H31.3943V30.629ZM26.4064 25.936H28.2299V30.629H26.4064V25.936ZM23.1879 22.5612H25.0114C25.0114 23.0358 25.0114 30.2072 25.0114 30.629H23.1879V22.5612ZM20.0235 17.1827H21.847C21.847 17.71 21.847 29.9962 21.847 30.629H20.0235C20.0235 30.1017 20.0235 17.8154 20.0235 17.1827ZM13.6406 22.5612H15.4641C15.4641 24.3013 15.4641 28.7834 15.4641 30.629H13.6406V22.5612ZM18.629 26.6215V30.629H16.805V26.6215H18.629ZM32.0915 7.11111H28.9271C28.5517 7.11111 28.2299 7.42749 28.2299 7.79661V24.6177H26.4064V21.9284C26.4064 21.5593 26.0846 21.2429 25.7092 21.2429H23.1879V16.5499C23.1879 16.1808 22.8661 15.8644 22.4907 15.8644H19.3263C18.9508 15.8644 18.629 16.1808 18.629 16.5499V25.3032H16.805V21.9284C16.805 21.5593 16.4832 21.2429 16.1078 21.2429H12.9434C12.568 21.2429 12.2461 21.5593 12.2461 21.9284V31.3145C12.2461 31.6836 12.568 32 12.9434 32C17.234 32 28.3905 32 32.0915 32C32.4675 32 32.7893 31.6836 32.7893 31.3145V7.79661C32.7893 7.42749 32.4675 7.11111 32.0915 7.11111Z" fill="#0D0701"/>
<path d="M20.3737 5.24335C20.7447 5.24335 21.0628 5.55361 21.0628 5.91557C21.0628 6.27754 20.7447 6.5878 20.3737 6.5878C20.0027 6.5878 19.6847 6.27754 19.6847 5.91557C19.7376 5.55361 20.0027 5.24335 20.3737 5.24335ZM25.1443 11.8622C25.1443 12.2241 24.8262 12.5344 24.4552 12.5344C24.0842 12.5344 23.7662 12.2241 23.7662 11.8622C23.7662 11.5002 24.0842 11.19 24.4552 11.19C24.8262 11.19 25.1443 11.5002 25.1443 11.8622ZM15.02 11.8622C14.649 11.8622 14.3309 11.5519 14.3309 11.19C14.3309 10.828 14.649 10.5177 15.02 10.5177C15.391 10.5177 15.709 10.828 15.709 11.19C15.6561 11.5519 15.391 11.8622 15.02 11.8622ZM7.54605 7.88054C7.17453 7.88054 6.85647 7.57028 6.85647 7.20831C6.85647 6.84635 7.17453 6.53609 7.54605 6.53609C7.91705 6.53609 8.23513 6.84635 8.23513 7.20831C8.23513 7.57028 7.91705 7.88054 7.54605 7.88054ZM13.5889 9.74209L9.55982 7.51857C9.71912 6.32925 8.76489 5.29506 7.54605 5.29506C6.43254 5.29506 5.53125 6.17412 5.53125 7.26002C5.53125 8.34593 6.43254 9.22499 7.54605 9.22499C8.07582 9.22499 8.5532 9.01815 8.92419 8.70789L12.9528 10.9314C12.7935 12.1207 13.7477 13.1549 14.967 13.1549C16.2393 13.1549 17.193 12.069 16.9813 10.828L20.0027 7.82883C20.2144 7.88054 20.4796 7.88054 20.6918 7.82883L22.8654 10.5177C22.6003 10.8797 22.4409 11.3451 22.4409 11.8622C22.4409 12.9481 23.3423 13.8271 24.4552 13.8271C25.5688 13.8271 26.4695 12.9481 26.4695 11.8622C26.4695 10.6729 25.3565 9.69038 24.1372 9.89722L21.9112 7.20831C22.2293 6.84635 22.388 6.38096 22.388 5.91557C22.388 4.82967 21.4867 3.95061 20.3737 3.95061C19.2608 3.95061 18.3595 4.82967 18.3595 5.91557C18.3595 6.38096 18.5188 6.84635 18.8368 7.1566L16.2923 9.63867C15.4973 9.01815 14.3309 9.06986 13.5889 9.74209Z" fill="#0D0701"/>
<path d="M0.695945 1.18518H9.57619C9.95061 1.18518 10.2716 0.911676 10.2716 0.592588C10.2716 0.2735 9.95061 -4.52995e-06 9.57619 -4.52995e-06H0.695945C0.321528 -4.52995e-06 0 0.2735 0 0.592588C0 0.911676 0.321528 1.18518 0.695945 1.18518Z" fill="#0D0701"/>
<path d="M10.2707 3.35797C10.2707 3.03888 9.9529 2.76538 9.58277 2.76538H4.24213C3.87148 2.76538 3.55469 3.03888 3.55469 3.35797C3.55469 3.67706 3.87148 3.95056 4.24213 3.95056H9.6361C10.0062 3.95056 10.2707 3.67706 10.2707 3.35797Z" fill="#0D0701"/>
</svg>
