<svg width="32" height="32" viewBox="0 0 32 32" fill="none" xmlns="http://www.w3.org/2000/svg">
<path d="M3.88093 4.65359C3.88093 2.82353 5.36151 1.30719 7.14902 1.30719C8.93602 1.30719 10.4171 2.82353 10.4171 4.65359C10.4171 6.48366 8.93602 8 7.14902 8C5.31053 8 3.88093 6.48366 3.88093 4.65359ZM9.03849 8.88889C10.5706 8.15686 11.6938 6.53595 11.6938 4.65359C11.6938 2.0915 9.65133 0 7.14902 0C4.64671 0 2.60428 2.0915 2.60428 4.65359C2.60428 6.53595 3.67649 8.15686 5.25955 8.88889C2.24689 9.62091 0 12.0784 0 15.0065V20.6536C0 21.0196 0.306423 21.3333 0.663823 21.3333H3.26809V31.3203C3.26809 31.6863 3.57451 32 3.93191 32C4.28931 32 4.59573 31.6863 4.59573 31.3203V18.6667C4.59573 18.3007 4.28931 17.9869 3.93191 17.9869C3.57451 17.9869 3.26809 18.3007 3.26809 18.6667V19.9739H1.32763V14.9542C1.32763 12.183 3.93191 9.93464 7.20001 9.93464C10.4171 9.93464 13.0729 12.183 13.0729 14.9542V19.9739H11.1319V18.6667C11.1319 18.3007 10.8255 17.9869 10.4681 17.9869C10.1107 17.9869 9.80427 18.3007 9.80427 18.6667V31.3203C9.80427 31.6863 10.1107 32 10.4681 32C10.8255 32 11.1319 31.6863 11.1319 31.3203V21.3333H13.7367C14.0941 21.3333 14.4 21.0196 14.4 20.6536V15.0065C14.298 12.0784 12.0512 9.62091 9.03849 8.88889Z" fill="#0D0701"/>
<path d="M7.20039 23.2C6.76967 23.2 6.40039 23.5181 6.40039 23.8892V31.3108C6.40039 31.6819 6.76967 32 7.20039 32C7.63112 32 8.00039 31.6819 8.00039 31.3108V23.8892C8.00039 23.5181 7.63112 23.2 7.20039 23.2Z" fill="#0D0701"/>
<path d="M6.40039 14.4H8.00039V16H6.40039V14.4Z" fill="#0D0701"/>
<path d="M24.0003 30.6405C20.3402 30.6405 17.3599 27.6601 17.3599 24C17.3599 20.3399 20.3402 17.3595 24.0003 17.3595C27.6603 17.3595 30.6401 20.3399 30.6401 24C30.6401 27.6601 27.6603 30.6405 24.0003 30.6405ZM24.0003 16C19.6083 16 16 19.6078 16 24C16 28.3922 19.6083 32 24.0003 32C28.3922 32 32 28.3922 32 24C32 19.6078 28.3922 16 24.0003 16Z" fill="#0D0701"/>
<path d="M23.6653 23.7658H23.0676C23.0128 23.7658 23.0128 23.7151 23.0128 23.7151V21.9395C23.0128 21.8888 23.0676 21.8888 23.0676 21.8888H23.6653V23.7658ZM25.6773 25.0849C25.7316 25.0849 25.7316 25.1356 25.7316 25.1356V26.9112C25.7316 26.9619 25.6773 26.9619 25.6773 26.9619H25.0791V25.0341L25.6773 25.0849ZM25.6773 21.838C25.7316 21.838 25.7316 21.8888 25.7316 21.8888C25.7316 22.2439 26.0579 22.5483 26.4385 22.5483C26.819 22.5483 27.1459 22.2439 27.1459 21.8888C27.1459 21.1278 26.4933 20.519 25.6773 20.519H25.0791V19.8595C25.0791 19.5044 24.7533 19.2 24.3727 19.2C23.9922 19.2 23.6653 19.5044 23.6653 19.8595V20.519H23.0676C22.2516 20.519 21.5996 21.1278 21.5996 21.8888V23.6644C21.5996 24.3746 22.1973 24.9834 23.0128 25.0341C23.0676 25.0341 23.0676 25.0341 23.7202 25.0341V26.9619H23.1219C23.0676 26.9619 23.0676 26.9112 23.0676 26.9112C23.0676 26.5561 22.7413 26.2517 22.3608 26.2517C21.9802 26.2517 21.6539 26.5561 21.6539 26.9112C21.6539 27.6722 22.3065 28.281 23.1219 28.281H23.7202V28.9405C23.7202 29.2956 24.0459 29.6 24.4265 29.6C24.8076 29.6 25.1339 29.2956 25.1339 28.9405V28.281H25.7316C26.5476 28.281 27.1996 27.6722 27.1996 26.9112V25.1356C27.1996 24.4253 26.6019 23.8166 25.7864 23.7658C25.7316 23.7658 25.7316 23.7658 25.0791 23.7658V21.838H25.6773Z" fill="#0D0701"/>
<path d="M19.0636 4.80005H28.1377C28.4945 4.80005 28.8004 4.43082 28.8004 4.00005C28.8004 3.56928 28.4945 3.20005 28.1377 3.20005H19.0636C18.7068 3.20005 18.4004 3.56928 18.4004 4.00005C18.4004 4.49236 18.7068 4.80005 19.0636 4.80005Z" fill="#0D0701"/>
<path d="M19.0806 8.80005H25.7202C26.0861 8.80005 26.4004 8.43082 26.4004 8.00005C26.4004 7.56928 26.0861 7.20005 25.7202 7.20005H19.0806C18.7146 7.20005 18.4004 7.56928 18.4004 8.00005C18.4004 8.43082 18.7146 8.80005 19.0806 8.80005Z" fill="#0D0701"/>
<path d="M19.0636 12.8H28.1377C28.4945 12.8 28.8004 12.4308 28.8004 12C28.8004 11.5693 28.4945 11.2 28.1377 11.2H19.0636C18.7068 11.2 18.4004 11.5693 18.4004 12C18.4004 12.4924 18.7068 12.8 19.0636 12.8Z" fill="#0D0701"/>
</svg>
