<svg width="33" height="32" viewBox="0 0 33 32" fill="none" xmlns="http://www.w3.org/2000/svg">
<path d="M21.6094 4.65359C21.6094 2.82353 23.1345 1.30719 24.9752 1.30719C26.8153 1.30719 28.3405 2.82353 28.3405 4.65359C28.3405 6.48366 26.8153 8 24.9752 8C23.1345 8 21.6094 6.48366 21.6094 4.65359ZM26.9203 8.88889C28.498 8.15686 29.6551 6.53595 29.6551 4.65359C29.6551 2.0915 27.5514 0 24.9752 0C22.3985 0 20.2953 2.0915 20.2953 4.65359C20.2953 6.53595 21.3994 8.15686 23.0295 8.88889C19.8748 9.62091 17.5605 12.0784 17.5605 15.0065V20.6536C17.5605 21.0196 17.8766 21.3333 18.2446 21.3333H20.9263V31.3203C20.9263 31.6863 21.2414 32 21.6094 32C21.9774 32 22.2935 31.6863 22.2935 31.3203V18.6667C22.2935 18.3007 21.9774 17.9869 21.6094 17.9869C21.2414 17.9869 20.9263 18.3007 20.9263 18.6667V19.9739H18.9276V14.9542C18.9276 12.183 21.6094 9.93464 24.9752 9.93464C28.288 9.93464 31.0222 12.183 31.0222 14.9542V19.9739H29.024V18.6667C29.024 18.3007 28.7085 17.9869 28.3405 17.9869C27.9724 17.9869 27.6569 18.3007 27.6569 18.6667V31.3203C27.6569 31.6863 27.9724 32 28.3405 32C28.7085 32 29.024 31.6863 29.024 31.3203V21.3333H31.7058C32.0738 21.3333 32.3898 21.0196 32.3898 20.6536V15.0065C32.3368 12.0784 30.0231 9.62091 26.9203 8.88889Z" fill="#0D0701"/>
<path d="M24.9758 23.4146C24.5556 23.4146 24.1953 23.7249 24.1953 24.087V31.3277C24.1953 31.6897 24.5556 32 24.9758 32C25.396 32 25.7563 31.6897 25.7563 31.3277V24.087C25.6963 23.7249 25.396 23.4146 24.9758 23.4146Z" fill="#0D0701"/>
<path d="M24.1953 14.8293H25.366V16H24.1953V14.8293Z" fill="#0D0701"/>
<path d="M9.34811 11.6166C9.34811 13.0652 8.14676 14.2551 6.68468 14.2551C5.22208 14.2551 4.02124 13.0652 4.02124 11.6166C4.02124 10.1681 5.22208 8.97816 6.68468 8.97816C8.14676 8.97816 9.34811 10.1681 9.34811 11.6166ZM8.66922 23.4638H4.70014V20.1528H8.66922V23.4638ZM13.3172 0.390244H0.678388C0.312867 0.390244 0 0.700651 0 1.06279C0 1.42493 0.312867 1.73534 0.678388 1.73534H6.00579V7.6848C4.12553 7.99521 2.66344 9.65071 2.66344 11.5649C2.66344 13.5308 4.12553 15.1346 6.00579 15.445V18.8077H4.02124C3.65572 18.8077 3.34235 19.1181 3.34235 19.4803V24.0846C3.34235 24.4468 3.65572 24.7572 4.02124 24.7572H6.00579V31.3275C6.00579 31.6896 6.31916 32 6.68468 32C7.0502 32 7.3641 31.6896 7.3641 31.3275V24.8089H9.34811C9.71364 24.8089 10.027 24.4985 10.027 24.1364V19.532C10.027 19.1699 9.71364 18.8594 9.34811 18.8594H7.3641V15.4967C9.24384 15.1863 10.7059 13.5308 10.7059 11.6166C10.7059 9.65071 9.24384 8.04694 7.3641 7.73654V1.73534H13.3694C13.7349 1.73534 14.0488 1.42493 14.0488 1.06279C13.9961 0.700651 13.6833 0.390244 13.3172 0.390244Z" fill="#0D0701"/>
</svg>
