<svg width="33" height="32" viewBox="0 0 33 32" fill="none" xmlns="http://www.w3.org/2000/svg">
<path d="M3.99649 4.65359C3.99649 2.82353 5.52168 1.30719 7.36241 1.30719C9.20262 1.30719 10.7273 2.82353 10.7273 4.65359C10.7273 6.48366 9.20262 8 7.36241 8C5.46866 8 3.99649 6.48366 3.99649 4.65359ZM14.7243 15.0065C14.7243 12.0784 12.4105 9.6732 9.30762 8.88889C10.8853 8.15686 12.0425 6.53595 12.0425 4.65359C12.0425 2.0915 9.9387 0 7.36241 0C4.7856 0 2.68183 2.0915 2.68183 4.65359C2.68183 6.53595 3.78647 8.15686 5.41667 8.88889C2.31379 9.62091 0 12.0784 0 15.0065V20.6536C0 21.0196 0.315559 21.3333 0.6836 21.3333H3.36541V31.3203C3.36541 31.6863 3.68096 32 4.04952 32C4.41756 32 4.73256 31.6863 4.73256 31.3203V18.6667C4.73256 18.3007 4.41756 17.9869 4.04952 17.9869C3.68096 17.9869 3.36541 18.3007 3.36541 18.6667V19.9739H1.36718V14.9542C1.36718 12.183 4.04952 9.93464 7.41439 9.93464C10.7273 9.93464 13.4621 12.183 13.4621 14.9542V19.9739H11.4634V18.6667C11.4634 18.3007 11.1484 17.9869 10.7803 17.9869C10.4123 17.9869 10.0962 18.3007 10.0962 18.6667V31.3203C10.0962 31.6863 10.4123 32 10.7803 32C11.1484 32 11.4634 31.6863 11.4634 31.3203V21.3333H14.1457C14.5137 21.3333 14.8293 21.0196 14.8293 20.6536L14.7243 15.0065Z" fill="#0D0701"/>
<path d="M7.41496 23.4146C6.9949 23.4146 6.63477 23.7249 6.63477 24.087V31.3277C6.63477 31.6897 6.9949 32 7.41496 32C7.83503 32 8.19574 31.6897 8.19574 31.3277V24.087C8.19574 23.7249 7.83503 23.4146 7.41496 23.4146Z" fill="#0D0701"/>
<path d="M7.02344 14.8293H8.19417V16H7.02344V14.8293Z" fill="#0D0701"/>
<path d="M31.0633 30.5879H28.3666C28.3666 29.5419 28.3666 8.98768 28.3666 7.94167H31.0633V30.5879ZM24.3478 17.2512H27.0446V30.5879H24.3478C24.3478 30.0126 24.3478 17.8265 24.3478 17.2512ZM20.2764 22.5859H22.9731V30.5879H20.2764C20.2764 28.9666 20.2764 24.4164 20.2764 22.5859ZM16.2571 24.6256H18.9538V30.6402H16.2571V24.6256ZM31.7507 6.63415H27.732C27.3619 6.63415 27.0446 6.94795 27.0446 7.31406V15.996H23.66C23.2899 15.996 22.9731 16.3098 22.9731 16.6759V21.3307H19.5884C19.2183 21.3307 18.9016 21.6445 18.9016 22.0106V23.3181H15.5169C15.1468 23.3181 14.8301 23.6319 14.8301 23.998V31.3201C14.8301 31.6862 15.1468 32 15.5169 32C18.7427 32 27.9965 32 31.6979 32C32.068 32 32.3853 31.6862 32.3853 31.3201V7.26175C32.4381 6.89565 32.1208 6.63415 31.7507 6.63415Z" fill="#0D0701"/>
</svg>
