<svg width="27" height="28" viewBox="0 0 27 28" fill="none" xmlns="http://www.w3.org/2000/svg">
<path d="M13.9207 17.6139C13.8234 17.5182 13.6291 17.5182 13.4831 17.6139C13.2397 17.8533 12.8503 17.8533 12.6069 17.6139C12.5095 17.5182 12.3148 17.5182 12.1687 17.6139C12.0714 17.7097 12.0714 17.9011 12.1687 18.0447C12.6555 18.5233 13.4344 18.5233 13.9207 18.0447C14.0181 17.9011 14.0181 17.7097 13.9207 17.6139Z" fill="#0D0701"/>
<path d="M20.4928 27.4735H18.5943V25.7026C18.5943 25.559 18.4482 25.4154 18.3022 25.4154C18.1562 25.4154 18.0101 25.559 18.0101 25.7026V27.4735H14.6517L13.7267 23.7402L14.0675 24.2188C14.2135 24.4102 14.5051 24.3624 14.6025 24.1709L15.6248 22.0649C15.9173 22.2564 16.2089 22.4 16.5015 22.5436L18.789 23.5008C19.7621 23.9316 20.5415 25.7026 20.5415 26.947L20.4928 27.4735ZM13.0452 23.6444L14.0183 27.5214H12.0716L13.0452 23.6444ZM5.59755 26.947C5.59755 25.7026 6.37643 23.8837 7.35004 23.5008L9.63804 22.5436C9.92964 22.4 10.2222 22.2564 10.5138 22.0649L11.4879 24.1709C11.5848 24.3624 11.8769 24.4102 12.0229 24.2188L12.461 23.6923L11.5361 27.5214H8.17714V25.7504C8.17714 25.6068 8.03159 25.4632 7.88555 25.4632C7.73902 25.4632 7.59297 25.6068 7.59297 25.7504V27.5214H5.59755V26.947ZM13.9701 20.2461V21.0119L13.0452 21.9213L12.0716 20.9641V20.2461C12.7044 20.4376 13.3368 20.4376 13.9701 20.2461ZM10.1244 16.8957V14.0239C12.0229 14.3589 13.2399 14.1196 13.921 13.8324V13.976C13.8728 14.2153 14.1162 14.3589 14.3109 14.3111L15.2358 13.976L15.1385 14.3589C15.0893 14.5982 15.3327 14.7897 15.5274 14.694L16.0142 14.5504V16.9435C16.0142 18.523 14.7003 19.8154 13.0939 19.8154C11.4387 19.7675 10.1244 18.4752 10.1244 16.8957ZM12.461 10.7213C13.7754 10.6734 14.9432 11.1521 14.9924 11.1521C15.0411 11.1521 15.0411 11.1521 15.0893 11.1521C15.0893 11.1521 15.0893 11.1521 15.1385 11.1521C15.1385 11.1521 15.1867 11.1521 15.1867 11.1042C15.1867 11.1042 15.2358 11.1042 15.2358 11.0563V11.0085C15.2358 10.9606 15.2358 10.9606 15.2358 10.9128V10.7692C15.7708 11.1521 16.6475 12.0615 16.4523 14.2153C16.3068 13.9282 16.355 13.976 16.355 13.9282C16.355 13.9282 16.355 13.9282 16.3068 13.9282C16.3068 13.9282 16.3068 13.9282 16.2576 13.9282C16.2576 13.9282 16.2576 13.9282 16.209 13.9282C16.1608 13.9282 16.1608 13.9282 16.1608 13.9282L15.82 14.0717L15.9173 13.6888C15.966 13.4495 15.7226 13.2581 15.5274 13.3538L14.5051 13.5452L14.5543 13.3059C14.5543 13.2102 14.5051 13.0666 14.4082 13.0187C14.3109 12.9709 14.1644 12.9709 14.0675 13.0187C14.0675 13.0187 12.4119 14.2153 8.71311 13.0187C9.49152 11.5828 10.7572 10.817 12.461 10.7213ZM14.6517 21.2034C14.7977 21.347 14.9433 21.4906 15.0893 21.6342L14.2617 23.4051L13.4833 22.3521L14.6517 21.2034ZM11.4387 21.2513L11.4879 21.2991L12.6071 22.4L11.7795 23.453L11.0006 21.682C11.1467 21.5384 11.2927 21.3948 11.4387 21.2513ZM18.9837 22.9265L16.6957 21.9692C16.3068 21.7778 15.9173 21.5863 15.5766 21.2991C15.284 21.0598 15.1384 20.9162 14.895 20.5812C14.895 20.5812 14.895 20.5812 14.8459 20.5812C14.8459 20.5812 14.8459 20.5812 14.7977 20.5333C14.7485 20.5333 14.7977 20.5333 14.7485 20.5333C14.7003 20.5333 14.7485 20.5333 14.7003 20.5333C14.6516 20.5333 14.6517 20.5333 14.6517 20.5333C14.6517 20.5333 14.6517 20.5333 14.6025 20.5333V20.0547C15.7708 19.4803 16.5984 18.2837 16.5984 16.9435V15.6034C16.6476 15.6512 16.6957 15.6512 16.7449 15.6991C16.7931 15.6991 16.7931 15.6991 16.8418 15.6991H16.8905C16.9391 15.6512 16.9883 15.6034 17.0365 15.5555V15.5076C17.426 13.641 17.2799 12.1572 16.5015 11.1042C15.9173 10.2905 15.1867 10.0512 15.1385 10.0512C14.9433 10.0034 14.7485 10.1469 14.7485 10.3384V10.5299C14.2617 10.3863 13.3859 10.1948 12.3637 10.1948C10.9519 10.2427 9.00472 10.7692 7.93374 13.1623C7.88555 13.3059 7.93373 13.4495 8.07978 13.4974C8.32318 13.5931 8.90733 13.7846 9.39462 13.8803V16.8957C9.39462 18.2359 10.173 19.4324 11.3414 20.0068V20.4854C11.3414 20.4854 11.3414 20.4854 11.2927 20.4854C11.2927 20.4854 11.2927 20.4854 11.244 20.4854C11.244 20.4854 11.244 20.4854 11.1953 20.4854C11.1467 20.4854 11.1953 20.4854 11.1466 20.5333C10.9519 20.8205 10.7085 21.0119 10.3678 21.2991C10.0757 21.5384 9.68622 21.7299 9.34546 21.9213L7.05796 22.8786C5.6949 23.453 4.91602 25.6068 4.91602 26.8991V27.7128C4.91602 27.8564 5.06158 28 5.2081 28C5.98651 28 19.9573 28 20.7362 28C20.8823 28 21.0278 27.8564 21.0278 27.7128V26.947C21.1257 25.6547 20.3463 23.5008 18.9837 22.9265Z" fill="#0D0701"/>
<path d="M11.5849 4.02046C11.731 4.02046 11.8283 3.92473 11.877 3.829L12.7532 1.24438L13.6295 3.829C13.6777 3.97259 13.7755 4.02046 13.9211 4.02046H16.6959L14.4571 5.64781C14.3597 5.74354 14.311 5.83927 14.3597 5.98286L15.236 8.56748L12.9962 6.94013C12.8993 6.8444 12.7532 6.8444 12.6559 6.94013L10.4166 8.56748L11.2928 5.98286C11.3415 5.83927 11.2928 5.74354 11.1955 5.64781L8.95664 4.02046H11.5849ZM7.69095 3.97259L10.5139 5.98286L9.44295 9.23757C9.39475 9.38116 9.44295 9.47689 9.54031 9.57261C9.63816 9.66834 9.78372 9.66834 9.88156 9.57261L12.7046 7.56235L15.5275 9.57261C15.6249 9.66834 15.7709 9.66834 15.8683 9.57261C15.9661 9.47689 16.0144 9.38116 15.9662 9.23757L14.8952 5.98286L17.7182 3.97259C17.8155 3.87687 17.8642 3.78114 17.8155 3.63755C17.7669 3.49396 17.6695 3.4461 17.5235 3.4461H14.0184L13.0453 0.191383C12.9962 0.0477934 12.8993 -6.96182e-05 12.7532 -6.96182e-05C12.6072 -6.96182e-05 12.5098 0.0956564 12.4612 0.191383L11.3902 3.4461H7.88568C7.73915 3.4461 7.64226 3.54182 7.5931 3.63755C7.5449 3.78114 7.59311 3.87687 7.69095 3.97259Z" fill="#0D0701"/>
<path d="M19.7138 6.55705C19.8598 6.55705 19.9572 6.46133 20.0059 6.3656L20.4927 4.9297L20.9795 6.3656C21.0277 6.50919 21.1255 6.55705 21.2711 6.55705H22.8294L21.5637 7.46646C21.4663 7.56218 21.4176 7.65791 21.4663 7.8015L21.9526 9.2374L20.6869 8.328C20.59 8.23227 20.444 8.23227 20.3462 8.328L19.0323 9.2374L19.5191 7.8015C19.5678 7.65791 19.5191 7.56218 19.4217 7.46646L18.156 6.55705H19.7138ZM16.939 6.17414C16.8903 6.31773 16.939 6.41346 17.0364 6.50919L18.8862 7.8015L18.2047 9.90749C18.156 10.0511 18.2047 10.1468 18.3021 10.2425C18.3994 10.3383 18.5455 10.3383 18.6428 10.2425L20.4927 8.95022L22.3426 10.2425C22.3912 10.2904 22.4394 10.2904 22.5368 10.2904C22.732 10.2904 22.8776 10.0989 22.8294 9.90749L22.0987 7.8015L23.9485 6.50919C24.0459 6.41346 24.095 6.31773 24.0459 6.17414C23.9977 6.03055 23.8998 5.98269 23.7543 5.98269H21.4663L20.7848 3.8767C20.7361 3.73311 20.6387 3.68525 20.4927 3.68525C20.3462 3.68525 20.2493 3.78097 20.2006 3.8767L19.5191 5.98269H17.2316C17.0855 5.93483 16.9882 6.03055 16.939 6.17414Z" fill="#0D0701"/>
<path d="M4.13784 6.55705C4.2834 6.55705 4.38075 6.46133 4.42943 6.3656L4.91624 4.9297L5.40305 6.3656C5.45173 6.50919 5.54909 6.55705 5.69514 6.55705H7.25243L5.98673 7.46646C5.88985 7.56218 5.84118 7.65791 5.88986 7.8015L6.37667 9.2374L5.11096 8.328C5.0136 8.23227 4.86757 8.23227 4.77021 8.328L3.5045 9.2374L3.99131 7.8015C4.03999 7.65791 3.99131 7.56218 3.89395 7.46646L2.62874 6.55705H4.13784ZM1.46042 6.50919L3.30978 7.8015L2.62874 9.90749C2.57958 10.0511 2.62875 10.1468 2.72563 10.2425C2.82299 10.3383 2.96902 10.3383 3.06638 10.2425L4.91624 8.95022L6.76612 10.2425C6.81432 10.2904 6.86346 10.2904 6.96082 10.2904C7.15506 10.2904 7.3016 10.0989 7.25243 9.90749L6.5227 7.8015L8.37256 6.50919C8.46992 6.41346 8.51812 6.31773 8.46992 6.17414C8.42075 6.03055 8.3234 5.98269 8.17736 5.98269H5.88986L5.20833 3.8767C5.15964 3.73311 5.0618 3.68525 4.91624 3.68525C4.7702 3.68525 4.67283 3.78097 4.62415 3.8767L3.94264 5.98269H1.65465C1.50861 5.98269 1.41125 6.07842 1.36306 6.17414C1.31389 6.26987 1.36306 6.41346 1.46042 6.50919Z" fill="#0D0701"/>
<path d="M23.4139 17.3265C22.5864 17.3265 21.9048 16.6564 21.9048 15.8427C21.9048 15.0291 22.5864 14.359 23.4139 14.359C24.241 14.359 24.923 15.0291 24.923 15.8427C24.923 16.6564 24.241 17.3265 23.4139 17.3265ZM23.4139 13.7367C22.2456 13.7367 21.2715 14.694 21.2715 15.8427C21.2715 16.9915 22.2456 17.9487 23.4139 17.9487C24.5823 17.9487 25.5554 16.9915 25.5554 15.8427C25.5554 14.694 24.5823 13.7367 23.4139 13.7367Z" fill="#0D0701"/>
<path d="M2.09306 20.294C1.60674 20.294 1.16813 19.9111 1.16813 19.3846C1.16813 18.8581 1.55757 18.4752 2.09306 18.4752C2.62903 18.4752 3.01801 18.8581 3.01801 19.3846C3.01801 19.9111 2.57987 20.294 2.09306 20.294ZM2.09306 17.9009C1.26597 17.9009 0.583984 18.571 0.583984 19.3846C0.583984 20.1983 1.26597 20.8684 2.09306 20.8684C2.92063 20.8684 3.60216 20.1983 3.60216 19.3846C3.60216 18.571 2.92063 17.9009 2.09306 17.9009Z" fill="#0D0701"/>
<path d="M25.653 24.7931C25.8949 24.7931 26.0911 24.986 26.0911 25.2239C26.0911 25.4618 25.8949 25.6547 25.653 25.6547C25.411 25.6547 25.2148 25.4618 25.2148 25.2239C25.2148 24.986 25.411 24.7931 25.653 24.7931Z" fill="#0D0701"/>
<path d="M18.692 18.8106C18.934 18.8106 19.1301 19.0035 19.1301 19.2413C19.1301 19.4792 18.934 19.6721 18.692 19.6721C18.4501 19.6721 18.2539 19.4792 18.2539 19.2413C18.2539 19.0035 18.4501 18.8106 18.692 18.8106Z" fill="#0D0701"/>
<path d="M25.069 11.0568C25.311 11.0568 25.5071 11.2497 25.5071 11.4876C25.5071 11.7254 25.311 11.9183 25.069 11.9183C24.827 11.9183 24.6309 11.7254 24.6309 11.4876C24.6309 11.2497 24.827 11.0568 25.069 11.0568Z" fill="#0D0701"/>
<path d="M22.9274 1.77127C23.1693 1.77127 23.365 1.96416 23.365 2.20204C23.365 2.43992 23.1693 2.63281 22.9274 2.63281C22.6854 2.63281 22.4893 2.43992 22.4893 2.20204C22.4893 1.96416 22.6854 1.77127 22.9274 1.77127Z" fill="#0D0701"/>
<path d="M7.10658 0.862091C7.34854 0.862091 7.5447 1.05498 7.5447 1.29286C7.5447 1.53074 7.34854 1.72363 7.10658 1.72363C6.86462 1.72363 6.66797 1.53074 6.66797 1.29286C6.66797 1.05498 6.86462 0.862091 7.10658 0.862091Z" fill="#0D0701"/>
<path d="M0.438141 9.85989C0.680098 9.85989 0.876258 10.0528 0.876258 10.2907C0.876258 10.5285 0.680098 10.7214 0.438141 10.7214C0.196184 10.7214 0 10.5285 0 10.2907C0 10.0528 0.196184 9.85989 0.438141 9.85989Z" fill="#0D0701"/>
<path d="M5.3053 13.1629C5.54726 13.1629 5.74342 13.3558 5.74342 13.5936C5.74342 13.8315 5.54726 14.0244 5.3053 14.0244C5.06287 14.0244 4.86719 13.8315 4.86719 13.5936C4.86719 13.3558 5.06287 13.1629 5.3053 13.1629Z" fill="#0D0701"/>
<path d="M7.39858 19.7198C7.64102 19.7198 7.83672 19.9126 7.83672 20.1505C7.83672 20.3884 7.64102 20.5813 7.39858 20.5813C7.15663 20.5813 6.96094 20.3884 6.96094 20.1505C6.96094 19.9126 7.15663 19.7198 7.39858 19.7198Z" fill="#0D0701"/>
<path d="M2.2394 25.1281C2.48136 25.1281 2.67752 25.321 2.67752 25.5589C2.67752 25.7967 2.48136 25.9896 2.2394 25.9896C1.99745 25.9896 1.80176 25.7967 1.80176 25.5589C1.80176 25.321 1.99745 25.1281 2.2394 25.1281Z" fill="#0D0701"/>
</svg>
