<svg width="28" height="28" viewBox="0 0 28 28" fill="none" xmlns="http://www.w3.org/2000/svg">
<path d="M13.8717 18.925C13.6649 19.1313 13.3039 19.1313 13.0976 18.925C12.995 18.8219 12.7887 18.8219 12.634 18.925C12.5309 19.0282 12.5309 19.2344 12.634 19.3891C13.0976 19.8532 13.8717 19.8532 14.3358 19.3891C14.4384 19.286 14.4384 19.0797 14.3358 18.925C14.2327 18.8219 14.0259 18.8219 13.8717 18.925Z" fill="#0D0701"/>
<path d="M15.16 17.6356C15.2632 17.5324 15.2632 17.3262 15.16 17.1715C14.799 16.8105 14.2323 16.8105 13.8713 17.1715C13.7682 17.2746 13.7682 17.4809 13.8713 17.6356C13.9744 17.7387 14.1802 17.7387 14.3354 17.6356C14.438 17.5324 14.5933 17.5324 14.6959 17.6356C14.8511 17.7903 15.0569 17.7903 15.16 17.6356Z" fill="#0D0701"/>
<path d="M13.1498 17.6356C13.2529 17.5324 13.2529 17.3262 13.1498 17.1715C12.7888 16.8105 12.221 16.8105 11.8606 17.1715C11.7574 17.2746 11.7574 17.4809 11.8606 17.6356C11.9632 17.7387 12.17 17.7387 12.3242 17.6356C12.4278 17.5324 12.582 17.5324 12.6857 17.6356C12.7888 17.7903 12.9951 17.7903 13.1498 17.6356Z" fill="#0D0701"/>
<path d="M20.1102 24.6998C19.8013 24.2357 19.4403 23.9263 19.0272 23.7716L18.3573 23.5138C21.2968 21.8637 23.3596 18.7181 23.4622 15.1085H25.4219C25.3187 18.976 23.3596 22.534 20.1102 24.6998ZM18.3058 27.3296V25.6795C18.3058 25.5248 18.151 25.3701 17.9963 25.3701C17.8416 25.3701 17.6869 25.5248 17.6869 25.6795V27.3812H13.7681V24.6482L13.9744 25.0092C14.077 25.2154 14.387 25.267 14.5412 25.0607L15.8309 22.9981C16.1398 23.2044 16.4497 23.3591 16.6555 23.4622L18.8215 24.3904C19.2856 24.5967 19.7492 25.1639 20.0591 25.8858C20.2649 26.3499 20.4201 26.9171 20.4717 27.3812L18.3058 27.3296ZM6.8067 25.8858C7.11561 25.1123 7.57973 24.5967 8.04437 24.3904L10.2098 23.4622C10.4161 23.3591 10.6218 23.2559 10.7771 23.1528C10.8286 23.1528 10.8286 23.1012 10.8802 23.1012C10.9318 23.0497 10.9833 22.9981 11.0865 22.9981L12.3757 25.0607C12.5304 25.267 12.8393 25.267 12.9425 25.0092L13.1493 24.6482V27.3812H9.33311V25.6795C9.33311 25.5248 9.1784 25.3701 9.02369 25.3701C8.86898 25.3701 8.71427 25.5248 8.71427 25.6795V27.3812H6.49676C6.4457 26.8656 6.60042 26.3499 6.8067 25.8858ZM1.54658 15.1085H3.50623C3.60937 18.7181 5.6206 21.8121 8.55957 23.4622L7.78653 23.7716C7.42554 23.9263 7.06455 24.2357 6.75462 24.6482C3.60937 22.4825 1.64972 18.9244 1.54658 15.1085ZM13.1493 2.88742V4.84693C7.94123 4.95006 3.66094 9.23002 3.50623 14.4897H1.54658C1.75286 8.14714 6.85775 3.04212 13.1493 2.88742ZM14.9021 22.2246C15.0053 22.3278 15.1089 22.4825 15.2631 22.5856L14.2322 24.2357L13.7681 23.3591L14.9021 22.2246ZM11.9116 22.2246L13.0461 23.3591L12.5815 24.2357L11.5506 22.5856C11.6537 22.4309 11.8085 22.3278 11.9116 22.2246ZM10.4676 16.3977C11.0349 14.8507 11.9627 13.3553 13.2003 13.0975C13.0972 14.7476 11.9627 16.0367 10.4676 16.3977ZM13.8192 13.0975C15.1089 13.3037 16.0887 14.7991 16.6555 16.3977C15.1089 16.0883 13.9223 14.7476 13.8192 13.0975ZM13.4582 21.0386C13.1493 20.8839 12.8914 20.7292 12.6851 20.5745L12.6336 20.5229C11.2928 19.4916 11.0865 18.2025 11.1381 16.9133C12.2205 16.5008 13.0972 15.6758 13.5613 14.5929C14.0255 15.6758 14.9021 16.5524 16.0367 16.9649C15.9851 18.3056 15.6757 19.801 13.4582 21.0386ZM9.79723 19.5948C9.79723 18.976 9.95195 18.0478 10.2098 17.1196C10.2614 17.1196 10.3645 17.1196 10.4161 17.068C10.4161 18.1509 10.5708 19.6463 12.0147 20.8839C11.7053 21.5027 11.1896 22.0699 10.6218 22.4309C10.0551 21.8637 9.79723 20.987 9.79723 19.5948ZM13.4071 22.7918L12.2726 21.6574C12.3757 21.5027 12.4783 21.3996 12.5304 21.2449C12.7367 21.3996 12.9946 21.5543 13.3035 21.6574C13.4071 21.709 13.5103 21.709 13.6134 21.6574C13.8713 21.5543 14.077 21.3996 14.2833 21.2449C14.3354 21.3996 14.438 21.5027 14.5412 21.6574L13.4071 22.7918ZM14.799 20.8839C16.3977 19.5432 16.6039 18.0994 16.6555 17.068C16.7586 17.068 16.8102 17.1196 16.9134 17.1196C17.1712 18.0478 17.3259 18.976 17.3259 19.5948C17.3259 21.0902 17.0681 22.0184 16.3977 22.5856C15.7278 22.1731 15.16 21.6058 14.799 20.8839ZM19.956 15.1085H22.8434C22.7403 18.5119 20.729 21.6574 17.6354 23.1528L17.0165 22.895C17.8416 22.0184 17.9447 20.7292 17.9447 19.5948C17.9447 17.6353 16.604 12.4271 13.5613 12.4271H13.5103C11.5506 12.4787 10.3129 14.6444 9.69409 16.7071C9.43624 17.5837 9.17839 18.7181 9.17839 19.5948C9.17839 20.6261 9.28154 21.9152 10.1067 22.7918C9.95195 22.8434 9.95194 22.8434 9.28153 23.1528C6.23891 21.6058 4.27978 18.5119 4.12507 15.1085H7.01246C7.16768 15.1085 7.32238 14.9538 7.32238 14.7991C7.32238 14.6444 7.16768 14.4897 7.01246 14.4897H4.12507C4.27978 9.59099 8.25013 5.62041 13.1493 5.46572V8.3534C13.1493 8.5081 13.3035 8.6628 13.4582 8.6628C13.6134 8.6628 13.7681 8.5081 13.7681 8.3534V5.46572C18.6667 5.62041 22.6376 9.59099 22.7918 14.4897H19.9039C19.7492 14.4897 19.595 14.6444 19.595 14.7991C19.595 14.9538 19.7492 15.1085 19.956 15.1085ZM25.4219 14.4897H23.4622C23.3075 9.23002 19.0272 5.00162 13.8192 4.84693V2.88742C20.1102 3.04212 25.2672 8.14714 25.4219 14.4897ZM13.5103 2.21707C6.60043 2.21707 0.927734 7.83775 0.927734 14.7991C0.927734 18.976 2.99052 22.8434 6.4457 25.2154C6.03263 26.0405 5.7748 26.9687 5.7748 27.6906C5.7748 27.8453 5.9295 28 6.08472 28C6.8067 28 17.7385 28 20.7811 28C20.9358 28 21.09 27.8453 21.09 27.6906C21.09 26.9687 20.8837 26.0921 20.4717 25.267C23.9779 22.9465 26.0923 19.0275 26.0923 14.7991C26.0407 7.83775 20.4201 2.21707 13.5103 2.21707Z" fill="#0D0701"/>
<path d="M24.9574 1.59807C25.9373 1.59807 26.7108 2.37156 26.7108 3.35131C26.7108 4.33106 25.9373 5.10455 24.9574 5.10455C23.9776 5.10455 23.2041 4.33106 23.2041 3.35131C23.2041 2.37156 23.9776 1.59807 24.9574 1.59807ZM24.9574 5.7749C26.2983 5.7749 27.3812 4.69202 27.3812 3.35131C27.3812 2.01059 26.2467 0.927711 24.9574 0.927711C23.6682 0.927711 22.5342 2.01059 22.5342 3.35131C22.5342 4.69202 23.6171 5.7749 24.9574 5.7749Z" fill="#0D0701"/>
<path d="M2.21696 27.0209C1.49498 27.0209 0.927716 26.4537 0.927716 25.7317C0.927716 25.0098 1.49498 24.4426 2.21696 24.4426C2.93894 24.4426 3.50621 25.0098 3.50621 25.7317C3.50621 26.4537 2.93894 27.0209 2.21696 27.0209ZM2.21696 23.8238C1.134 23.8238 0.257812 24.7004 0.257812 25.7833C0.257812 26.8662 1.134 27.7428 2.21696 27.7428C3.29993 27.7428 4.17611 26.8662 4.17611 25.7833C4.17611 24.7004 3.29993 23.8238 2.21696 23.8238Z" fill="#0D0701"/>
<path d="M26.5569 9.02421C26.8127 9.02421 27.021 9.23202 27.021 9.4883C27.021 9.74458 26.8127 9.95239 26.5569 9.95239C26.3006 9.95239 26.0928 9.74458 26.0928 9.4883C26.0928 9.23202 26.3006 9.02421 26.5569 9.02421Z" fill="#0D0701"/>
<path d="M19.4407 3.70741e-05C19.697 3.70741e-05 19.9043 0.207848 19.9043 0.46413C19.9043 0.720412 19.697 0.928223 19.4407 0.928223C19.1844 0.928223 18.9766 0.720412 18.9766 0.46413C18.9766 0.207848 19.1844 3.70741e-05 19.4407 3.70741e-05Z" fill="#0D0701"/>
<path d="M5.92944 0.928504C6.18576 0.928504 6.39356 1.13631 6.39356 1.3926C6.39356 1.64888 6.18576 1.85669 5.92944 1.85669C5.67312 1.85669 5.46582 1.64888 5.46582 1.3926C5.46582 1.13631 5.67312 0.928504 5.92944 0.928504Z" fill="#0D0701"/>
<path d="M0.772739 6.08475C1.02906 6.08475 1.23686 6.29256 1.23686 6.54885C1.23686 6.80513 1.02906 7.01294 0.772739 7.01294C0.516422 7.01294 0.308594 6.80513 0.308594 6.54885C0.308594 6.29256 0.516422 6.08475 0.772739 6.08475Z" fill="#0D0701"/>
<path d="M27.5359 19.9562C27.7922 19.9562 28.0005 20.164 28.0005 20.4203C28.0005 20.6766 27.7922 20.8844 27.5359 20.8844C27.2801 20.8844 27.0723 20.6766 27.0723 20.4203C27.0723 20.164 27.2801 19.9562 27.5359 19.9562Z" fill="#0D0701"/>
<path d="M24.2874 26.4019C24.5437 26.4019 24.7515 26.6097 24.7515 26.866C24.7515 27.1223 24.5437 27.3301 24.2874 27.3301C24.031 27.3301 23.8232 27.1223 23.8232 26.866C23.8232 26.6097 24.031 26.4019 24.2874 26.4019Z" fill="#0D0701"/>
<path d="M0.463622 19.9561C0.719939 19.9561 0.927743 20.1639 0.927743 20.4202C0.927743 20.6765 0.719939 20.8843 0.463622 20.8843C0.207305 20.8843 0 20.6765 0 20.4202C0 20.1639 0.207305 19.9561 0.463622 19.9561Z" fill="#0D0701"/>
</svg>
