<svg width="27" height="28" viewBox="0 0 27 28" fill="none" xmlns="http://www.w3.org/2000/svg">
<path d="M13.3865 21.1899C13.7284 21.1899 14.0058 21.467 14.0058 21.8089C14.0058 22.1508 13.7284 22.428 13.3865 22.428C13.0445 22.428 12.7676 22.1508 12.7676 21.8089C12.7676 21.467 13.0445 21.1899 13.3865 21.1899Z" fill="#02111A"/>
<path d="M26.2012 22.0476C26.2012 22.7143 25.6295 23.2857 24.963 23.2857C24.0578 23.2857 2.90617 23.2857 1.8104 23.2857C1.14342 23.2857 0.57171 22.7143 0.57171 22.0476V6.04757C0.57171 5.38091 1.14342 4.80948 1.8104 4.80948H5.62129V5.99995H2.0486C1.90568 5.99995 1.76276 6.14281 1.76276 6.28567V20C1.76276 20.1428 1.90568 20.2857 2.0486 20.2857H24.6772C24.8196 20.2857 24.963 20.1428 24.963 20V6.33329C24.963 6.19043 24.8196 6.04757 24.6772 6.04757H21.104V4.8571H24.9149C25.5819 4.8571 26.1536 5.42853 26.1536 6.09519V22.0476H26.2012ZM17.579 25.6667C18.0549 25.6667 18.4842 26.0476 18.4842 26.5714C18.4842 27.0952 18.1026 27.4762 17.579 27.4762H9.24208C8.76566 27.4762 8.33689 27.0952 8.33689 26.5714C8.33689 26.0476 8.71802 25.6667 9.24208 25.6667C10.2902 25.6667 11.1473 24.9048 11.2907 23.8571H15.4827C15.6256 24.8571 16.4827 25.6667 17.579 25.6667ZM20.5323 4.80948V6.90472H6.24064C6.24064 6.38091 6.24064 5.28567 6.24064 4.80948H20.5323ZM5.66893 18.2381C5.66893 18.3809 5.81186 18.5238 5.95478 18.5238H20.8658C21.0087 18.5238 21.1517 18.3809 21.1517 18.2381V6.619H24.439V19.7143H2.3821V6.619H5.66893V18.2381ZM6.24064 7.52377H20.5323V17.9524H6.24064V7.52377ZM24.963 4.23805C24.5814 4.23805 2.23918 4.23805 1.8104 4.23805C0.809921 4.23805 0 5.04757 0 6.04757V22.0476C0 23.0476 0.809921 23.8571 1.8104 23.8571H10.6713C10.5279 24.5238 9.90907 25.0476 9.19444 25.0476C8.38452 25.0476 7.71754 25.7143 7.71754 26.5238C7.71754 27.3333 8.38452 28 9.19444 28H17.5309C18.3413 28 19.0078 27.3333 19.0078 26.5238C19.0078 25.7143 18.3413 25.0476 17.5309 25.0476C16.8162 25.0476 16.1974 24.5238 16.0544 23.8571H24.9149C25.9159 23.8571 26.7253 23.0476 26.7253 22.0476V6.04757C26.7729 5.04757 25.963 4.23805 24.963 4.23805Z" fill="#02111A"/>
<path d="M11.243 13.4763H10.8137V12.9049C10.8137 12.762 10.6713 12.6192 10.5279 12.6192C10.3854 12.6192 10.242 12.762 10.242 12.9049V13.4763H8.62268V12.9049C8.62268 12.762 8.47975 12.6192 8.33683 12.6192C8.1939 12.6192 8.05097 12.762 8.05097 12.9049V13.4763H7.6222C7.57456 13.2858 7.52692 13.0953 7.52692 12.9049C7.52692 12.0001 8.14627 11.2382 9.00382 11.0001L8.62268 11.9525C8.57504 12.0477 8.62268 12.1906 8.67033 12.2858L9.24202 12.8573C9.33731 12.9525 9.52788 12.9525 9.67081 12.8573L10.242 12.2858C10.3378 12.1906 10.3378 12.0953 10.2902 11.9525L9.90902 11.0001C10.7666 11.1906 11.3855 11.9525 11.3855 12.9049C11.2906 13.0477 11.2906 13.2858 11.243 13.4763ZM8.5274 9.52391C8.5274 9.09534 8.90853 8.71439 9.33731 8.71439C9.76609 8.71439 10.1472 9.09534 10.1472 9.52391C10.1472 9.95248 9.76609 10.3334 9.33731 10.3334C8.90853 10.3334 8.5274 9.95248 8.5274 9.52391ZM9.38495 11.4287L9.57552 11.9525L9.38495 12.143L9.19438 11.9525L9.38495 11.4287ZM10.3378 10.5239C10.6237 10.2858 10.7666 9.90486 10.7666 9.52391C10.7666 8.762 10.1472 8.09534 9.33731 8.09534C8.57504 8.09534 7.90806 8.71439 7.90806 9.52391C7.90806 9.90486 8.05098 10.2858 8.33683 10.5239C7.43163 10.9049 6.76465 11.8096 6.76465 12.8573C6.76465 13.1906 6.81228 13.5715 6.95521 13.8573C7.00285 13.9525 7.09814 14.0477 7.24106 14.0477H11.3855C11.5289 14.0477 11.6237 13.9525 11.6713 13.8573C11.7666 13.5715 11.8623 13.1906 11.8623 12.8573C11.9095 11.8096 11.243 10.9049 10.3378 10.5239Z" fill="#02111A"/>
<path d="M23.534 0.666754C24.201 0.666754 24.7246 1.19056 24.7246 1.85723C24.7246 2.5239 24.201 3.04771 23.534 3.04771C22.867 3.04771 22.343 2.5239 22.343 1.85723C22.343 1.19056 22.867 0.666754 23.534 0.666754ZM23.534 3.61914C24.5345 3.61914 25.3444 2.80962 25.3444 1.80961C25.3444 0.809611 24.5345 8.55923e-05 23.534 8.55923e-05C22.5336 8.55923e-05 21.7236 0.809611 21.7236 1.80961C21.7236 2.80962 22.5336 3.61914 23.534 3.61914Z" fill="#02111A"/>
<path d="M3.28697 26.8569C2.81102 26.8569 2.38225 26.476 2.38225 25.9522C2.38225 25.4283 2.76338 25.0474 3.28697 25.0474C3.8115 25.0474 4.19218 25.4283 4.19218 25.9522C4.19218 26.476 3.76386 26.8569 3.28697 26.8569ZM3.28697 24.476C2.47753 24.476 1.81055 25.1426 1.81055 25.9522C1.81055 26.7617 2.47753 27.4283 3.28697 27.4283C4.09736 27.4283 4.76388 26.7617 4.76388 25.9522C4.76388 25.1426 4.09736 24.476 3.28697 24.476Z" fill="#02111A"/>
<path d="M19.4844 0.666293C19.7212 0.666293 19.9128 0.858198 19.9128 1.09487C19.9128 1.33153 19.7212 1.52344 19.4844 1.52344C19.2477 1.52344 19.0557 1.33153 19.0557 1.09487C19.0557 0.858198 19.2477 0.666293 19.4844 0.666293Z" fill="#02111A"/>
<path d="M25.7247 24.762C25.9615 24.762 26.1535 24.9539 26.1535 25.1906C26.1535 25.4272 25.9615 25.6191 25.7247 25.6191C25.4879 25.6191 25.2959 25.4272 25.2959 25.1906C25.2959 24.9539 25.4879 24.762 25.7247 24.762Z" fill="#02111A"/>
<path d="M20.961 24.762C21.1983 24.762 21.3898 24.9539 21.3898 25.1906C21.3898 25.4272 21.1983 25.6191 20.961 25.6191C20.7242 25.6191 20.5322 25.4272 20.5322 25.1906C20.5322 24.9539 20.7242 24.762 20.961 24.762Z" fill="#02111A"/>
<path d="M6.38386 24.4762C6.62066 24.4762 6.81263 24.6681 6.81263 24.9048C6.81263 25.1415 6.62066 25.3334 6.38386 25.3334C6.14707 25.3334 5.95508 25.1415 5.95508 24.9048C5.95508 24.6681 6.14707 24.4762 6.38386 24.4762Z" fill="#02111A"/>
<path d="M13.8155 2.47611C14.0523 2.47611 14.2443 2.66801 14.2443 2.90468C14.2443 3.14135 14.0523 3.33325 13.8155 3.33325C13.5787 3.33325 13.3867 3.14135 13.3867 2.90468C13.3867 2.66801 13.5787 2.47611 13.8155 2.47611Z" fill="#02111A"/>
<path d="M6.38386 0.952182C6.62066 0.952182 6.81263 1.14409 6.81263 1.38075C6.81263 1.61742 6.62066 1.80933 6.38386 1.80933C6.14707 1.80933 5.95508 1.61742 5.95508 1.38075C5.95508 1.14409 6.14707 0.952182 6.38386 0.952182Z" fill="#02111A"/>
<path d="M19.3413 11.6666H14.2917C14.1488 11.6666 14.0059 11.8095 14.0059 11.9523C14.0059 12.0952 14.1488 12.238 14.2917 12.238H19.3413C19.4847 12.238 19.6272 12.0952 19.6272 11.9523C19.6272 11.8095 19.4847 11.6666 19.3413 11.6666Z" fill="#02111A"/>
<path d="M19.3413 12.8573H14.2917C14.1488 12.8573 14.0059 13.0001 14.0059 13.143C14.0059 13.2859 14.1488 13.4287 14.2917 13.4287H19.3413C19.4847 13.4287 19.6272 13.2859 19.6272 13.143C19.6272 13.0001 19.4847 12.8573 19.3413 12.8573Z" fill="#02111A"/>
<path d="M19.3413 8.38096H14.2917C14.1488 8.38096 14.0059 8.52382 14.0059 8.66668C14.0059 8.80954 14.1488 8.95239 14.2917 8.95239H19.3413C19.4847 8.95239 19.6272 8.80954 19.6272 8.66668C19.6272 8.52382 19.4847 8.38096 19.3413 8.38096Z" fill="#02111A"/>
<path d="M19.3413 9.57103H14.2917C14.1488 9.57103 14.0059 9.71388 14.0059 9.85674C14.0059 9.9996 14.1488 10.1425 14.2917 10.1425H19.3413C19.4847 10.1425 19.6272 9.9996 19.6272 9.85674C19.6272 9.71388 19.4847 9.57103 19.3413 9.57103Z" fill="#02111A"/>
<path d="M19.3413 14.0473H14.2917C14.1488 14.0473 14.0059 14.1902 14.0059 14.3331C14.0059 14.4759 14.1488 14.6188 14.2917 14.6188H19.3413C19.4847 14.6188 19.6272 14.4759 19.6272 14.3331C19.6272 14.1902 19.4847 14.0473 19.3413 14.0473Z" fill="#02111A"/>
<path d="M19.3413 15.2381H14.2917C14.1488 15.2381 14.0059 15.381 14.0059 15.5239C14.0059 15.6667 14.1488 15.8096 14.2917 15.8096H19.3413C19.4847 15.8096 19.6272 15.6667 19.6272 15.5239C19.6272 15.381 19.4847 15.2381 19.3413 15.2381Z" fill="#02111A"/>
<path d="M19.3413 16.4288H14.2917C14.1488 16.4288 14.0059 16.5717 14.0059 16.7145C14.0059 16.8574 14.1488 17.0002 14.2917 17.0002H19.3413C19.4847 17.0002 19.6272 16.8574 19.6272 16.7145C19.6272 16.5717 19.4847 16.4288 19.3413 16.4288Z" fill="#02111A"/>
<path d="M2.66761 1.85723C3.00064 1.85723 3.28648 2.14295 3.28648 2.47628C3.28648 2.80962 3.00064 3.09533 2.66761 3.09533C2.33412 3.09533 2.04826 2.80962 2.04826 2.47628C2.0959 2.09533 2.33412 1.85723 2.66761 1.85723ZM2.66761 3.61914C3.33413 3.61914 3.85819 3.09533 3.85819 2.42866C3.85819 1.76199 3.33413 1.23818 2.66761 1.23818C2.00063 1.23818 1.47656 1.76199 1.47656 2.42866C1.47656 3.09533 2.00063 3.61914 2.66761 3.61914Z" fill="#02111A"/>
</svg>
