<svg width="49" height="60" viewBox="0 0 49 60" fill="none" xmlns="http://www.w3.org/2000/svg">
<path d="M4.07276 28.3037C4.45363 29.9696 1.79677 32.6839 2.52407 34.187C3.26668 35.716 7.06611 35.3382 8.11998 36.649C9.17844 37.9689 7.96627 41.5659 9.29317 42.619C10.6124 43.6682 13.8719 41.6975 15.4099 42.4342C16.9203 43.1596 17.3976 46.9255 19.0717 47.3064C20.6945 47.6728 22.7648 44.4924 24.4986 44.4924C26.2331 44.4924 28.3041 47.6728 29.927 47.3064C31.6011 46.9247 32.0768 43.1596 33.5887 42.4358C35.1252 41.6975 38.3855 43.669 39.7032 42.6213C41.0308 41.5682 39.8187 37.9712 40.8771 36.6528C41.9318 35.3405 45.732 35.716 46.4723 34.187C47.2026 32.6877 44.5443 29.9703 44.9259 28.3037C45.2953 26.6895 48.8836 25.3901 48.8836 23.668C48.8836 21.9428 45.2953 20.6427 44.9259 19.0285C44.5443 17.3642 47.2026 14.6483 46.4746 13.1452C45.732 11.6162 41.9325 11.994 40.8779 10.6832C39.8194 9.36485 41.0324 5.76626 39.7047 4.71474C38.3862 3.66549 35.1267 5.63471 33.5895 4.90024C32.0775 4.17262 31.6011 0.406757 29.927 0.0296377C28.3041 -0.338357 26.2338 2.84207 24.4986 2.84207C22.7648 2.84207 20.6945 -0.338357 19.0717 0.0296377C17.3976 0.407517 16.9219 4.17262 15.4099 4.89873C13.8734 5.63548 10.6132 3.66549 9.29545 4.71322C7.96779 5.76702 9.17921 9.36409 8.12075 10.6832C7.06688 11.9925 3.26668 11.6162 2.52484 13.1452C1.79601 14.6445 4.45286 17.3642 4.07199 19.0285C3.7026 20.6427 0.114258 21.9421 0.114258 23.668C0.115023 25.3894 3.70337 26.6895 4.07276 28.3037ZM24.3494 5.618C34.3757 5.618 42.503 13.6987 42.503 23.668C42.503 33.635 34.3757 41.7157 24.3494 41.7157C14.3239 41.7157 6.19656 33.635 6.19656 23.668C6.19656 13.6987 14.3239 5.618 24.3494 5.618Z" fill="#433972"/>
<path d="M35.6911 34.4915C48.1165 21.7029 32.6832 2.00223 17.2782 9.87003C12.2307 12.4566 8.77539 17.6747 8.77539 23.7063C8.77616 37.7259 25.9776 44.5087 35.6911 34.4915ZM15.7754 22.8639C16.7391 21.9067 18.2992 21.9067 19.2636 22.8639L21.5281 25.1152L29.5989 17.0938C30.5625 16.1351 32.1173 16.1351 33.0817 17.0938C34.0507 18.0488 34.0507 19.6006 33.0817 20.5571L23.2711 30.3151C22.7877 30.7941 22.1606 31.0298 21.5281 31.0298C20.8964 31.0298 20.2693 30.7948 19.7844 30.3151L15.7762 26.3295C14.8118 25.3722 14.8118 23.8211 15.7754 22.8639Z" fill="#433972"/>
<path d="M42.3324 42.0273C42.1496 42.8713 41.7772 43.6658 41.0223 44.2657C40.3769 44.7782 39.5608 45.0397 38.5972 45.0397C37.7414 45.0397 36.8879 44.8436 36.0627 44.6527C35.467 44.5136 34.849 44.3714 34.475 44.3714C34.4238 44.4452 34.0498 45.2344 33.825 45.7043C33.1397 47.1405 32.2862 48.9288 30.3972 49.3568C30.1563 49.4123 29.9078 49.4382 29.6569 49.4382C28.1297 49.4382 26.8915 48.4475 25.7994 47.5724C25.4246 47.272 24.8273 46.7953 24.5 46.6318C24.1711 46.7946 23.5746 47.272 23.1991 47.5724C22.1078 48.4483 20.8696 49.4382 19.3415 49.4382C19.0922 49.4382 18.8429 49.4123 18.602 49.3568C16.7122 48.9295 15.8572 47.139 15.172 45.7004C14.9823 45.3005 14.6825 44.6733 14.4706 44.3767C14.0263 44.3973 13.4734 44.5265 12.9365 44.6505C11.1821 45.058 9.19442 45.2359 7.97077 44.2619C7.21823 43.6643 6.8473 42.8713 6.66452 42.0296L0.784116 47.8757C0.0858704 48.5684 -0.171096 49.588 0.114932 50.5285C0.400961 51.4667 1.1841 52.1746 2.15231 52.3669L6.75936 53.2831L7.68015 57.8595C7.87364 58.8221 8.58412 59.6014 9.52939 59.8865C10.4747 60.1694 11.5002 59.9147 12.1977 59.2205L24.5 46.9907L36.8023 59.2205C37.4998 59.9147 38.5253 60.1701 39.4706 59.8865C40.4159 59.6014 41.1256 58.8221 41.3198 57.8595L42.2406 53.2831L46.8477 52.3669C47.8159 52.1746 48.599 51.4675 48.8851 50.5285C49.1711 49.588 48.9141 48.5676 48.2159 47.8757L42.3324 42.0273Z" fill="#433972"/>
</svg>
