<svg width="61" height="60" viewBox="0 0 61 60" fill="none" xmlns="http://www.w3.org/2000/svg">
<path d="M5.08594 8.13428C5.76936 12.6791 8.07563 21.8905 15.7705 27.437L16.5049 26.7974C13.892 21.8623 12.0657 15.4959 11.3076 8.01025L11.2617 7.56006H5L5.08594 8.13428ZM49.6885 8.01025C48.9304 15.4959 47.1041 21.8623 44.4912 26.7974L45.2256 27.437C52.9215 21.8905 55.2267 12.6791 55.9102 8.13428L55.9971 7.56006H49.7344L49.6885 8.01025ZM30.0742 5.60986L27.8525 12.3921L20.7139 12.4106L19.1875 12.4146L20.4199 13.314L26.1846 17.5239L23.9971 24.3179L23.5293 25.77L24.7656 24.8765L30.5498 20.6948L36.334 24.8765L37.5703 25.77L37.1025 24.3179L34.9141 17.5239L40.6797 13.314L41.9121 12.4146L40.3857 12.4106L33.2461 12.3921L31.0244 5.60986L30.5498 4.15967L30.0742 5.60986ZM27.0957 37.2612L26.7939 37.1304C25.7502 36.6799 24.7374 36.1208 23.7666 35.4399L23.6846 35.3823L23.5869 35.3608L23.0791 35.2456C12.5087 32.749 6.90117 25.5099 3.9209 18.7749C2.40618 15.3518 1.57466 12.067 1.12207 9.62061C0.895911 8.39817 0.76528 7.38694 0.69043 6.67529C0.653016 6.31957 0.629245 6.03891 0.615234 5.84424C0.608241 5.74706 0.603541 5.67137 0.600586 5.61865L0.59668 5.53662V5.53271L0.518555 3.35498H11.0059L10.9873 2.8374C10.9594 2.06819 10.9312 1.30979 10.9219 0.536621H50.0781C50.0688 1.31001 50.0406 2.06893 50.0127 2.8374L49.9941 3.35498H60.4814L60.4033 5.53271V5.53662L60.3994 5.61865C60.3965 5.67137 60.3918 5.74706 60.3848 5.84424C60.3708 6.03891 60.347 6.31957 60.3096 6.67529C60.2347 7.38694 60.1041 8.39817 59.8779 9.62061C59.4253 12.067 58.5939 15.3518 57.0791 18.7749C54.0513 25.6168 48.3118 32.9789 37.4121 35.3608L37.3135 35.3823L37.2305 35.4399C36.2618 36.1206 35.2495 36.6799 34.2041 37.1304L33.9023 37.2603V47.0552H36.957C39.1479 47.0552 40.9247 48.8321 40.9248 51.0239V51.5239H42.2324C44.4252 51.5239 46.2021 53.3009 46.2021 55.4927V59.4634H14.7979V55.4927C14.7979 53.3009 16.5748 51.5239 18.7676 51.5239H20.0752V51.0239C20.0753 48.8321 21.8521 47.0552 24.043 47.0552H27.0957V37.2612Z" fill="#F54200" stroke="black"/>
</svg>
