<svg width="31" height="32" viewBox="0 0 31 32" fill="none" xmlns="http://www.w3.org/2000/svg">
<path d="M15.2264 24.2164C15.6154 24.2164 15.9308 24.5331 15.9308 24.9239C15.9308 25.3146 15.6154 25.6313 15.2264 25.6313C14.8374 25.6313 14.5225 25.3146 14.5225 24.9239C14.5225 24.5331 14.8374 24.2164 15.2264 24.2164Z" fill="#F54200"/>
<path d="M29.8016 25.197C29.8016 25.9589 29.1514 26.612 28.3933 26.612C27.3637 26.612 3.30552 26.612 2.05918 26.612C1.30054 26.612 0.650271 25.9589 0.650271 25.197V6.91127C0.650271 6.14936 1.30054 5.4963 2.05918 5.4963H6.39373V6.85685H2.33011C2.16754 6.85685 2.00499 7.02011 2.00499 7.18338V22.8569C2.00499 23.0201 2.16754 23.1834 2.33011 23.1834H28.0682C28.2302 23.1834 28.3933 23.0201 28.3933 22.8569V7.2378C28.3933 7.07454 28.2302 6.91127 28.0682 6.91127H24.004V5.55072H28.3385C29.0972 5.55072 29.7475 6.20379 29.7475 6.96569V25.197H29.8016ZM19.9946 29.3331C20.5359 29.3331 21.0242 29.7685 21.0242 30.3671C21.0242 30.9657 20.5901 31.4011 19.9946 31.4011H10.5121C9.97018 31.4011 9.48249 30.9657 9.48249 30.3671C9.48249 29.7685 9.91599 29.3331 10.5121 29.3331C11.7042 29.3331 12.6791 28.4623 12.8422 27.2651H17.6103C17.7728 28.4079 18.7477 29.3331 19.9946 29.3331ZM23.3537 5.4963V7.89087H7.09819C7.09819 7.29222 7.09819 6.04052 7.09819 5.4963H23.3537ZM6.44792 20.8433C6.44792 21.0065 6.61049 21.1698 6.77305 21.1698H23.7331C23.8956 21.1698 24.0582 21.0065 24.0582 20.8433V7.56433H27.7972V22.5303H2.70944V7.56433H6.44792V20.8433ZM7.09819 8.59835H23.3537V20.5167H7.09819V8.59835ZM28.3933 4.84324C27.9592 4.84324 2.54688 4.84324 2.05918 4.84324C0.921215 4.84324 0 5.76841 0 6.91127V25.197C0 26.3399 0.921215 27.2651 2.05918 27.2651H12.1377C11.9746 28.027 11.2707 28.6256 10.4579 28.6256C9.53667 28.6256 8.77804 29.3875 8.77804 30.3127C8.77804 31.2378 9.53667 31.9998 10.4579 31.9998H19.9398C20.8616 31.9998 21.6197 31.2378 21.6197 30.3127C21.6197 29.3875 20.8616 28.6256 19.9398 28.6256C19.127 28.6256 18.4231 28.027 18.2605 27.2651H28.3385C29.477 27.2651 30.3977 26.3399 30.3977 25.197V6.91127C30.4519 5.76841 29.5307 4.84324 28.3933 4.84324Z" fill="#F54200"/>
<path d="M12.7881 15.4011H12.2998V14.7481C12.2998 14.5848 12.1378 14.4215 11.9747 14.4215C11.8127 14.4215 11.6496 14.5848 11.6496 14.7481V15.4011H9.80769V14.7481C9.80769 14.5848 9.64512 14.4215 9.48255 14.4215C9.31999 14.4215 9.15742 14.5848 9.15742 14.7481V15.4011H8.66973C8.61554 15.1834 8.56135 14.9658 8.56135 14.7481C8.56135 13.7141 9.26581 12.8433 10.2412 12.5712L9.80769 13.6596C9.7535 13.7685 9.80769 13.9317 9.86188 14.0406L10.5121 14.6937C10.6205 14.8025 10.8373 14.8025 10.9998 14.6937L11.6496 14.0406C11.7585 13.9317 11.7585 13.8229 11.7043 13.6596L11.2708 12.5712C12.2462 12.7889 12.9501 13.6596 12.9501 14.7481C12.8423 14.9113 12.8423 15.1834 12.7881 15.4011ZM9.69931 10.8841C9.69931 10.3943 10.1328 9.95895 10.6205 9.95895C11.1082 9.95895 11.5417 10.3943 11.5417 10.8841C11.5417 11.3739 11.1082 11.8093 10.6205 11.8093C10.1328 11.8093 9.69931 11.3739 9.69931 10.8841ZM10.6747 13.061L10.8915 13.6596L10.6747 13.8773L10.4579 13.6596L10.6747 13.061ZM11.7585 12.027C12.0836 11.7549 12.2462 11.3195 12.2462 10.8841C12.2462 10.0134 11.5417 9.25146 10.6205 9.25146C9.7535 9.25146 8.99486 9.95895 8.99486 10.8841C8.99486 11.3195 9.15742 11.7549 9.48255 12.027C8.45297 12.4624 7.69434 13.4964 7.69434 14.6937C7.69434 15.0746 7.74851 15.51 7.91108 15.8365C7.96527 15.9454 8.07365 16.0542 8.23622 16.0542H12.9501C13.1132 16.0542 13.221 15.9454 13.2752 15.8365C13.3836 15.51 13.4925 15.0746 13.4925 14.6937C13.5462 13.4964 12.7881 12.4624 11.7585 12.027Z" fill="#F54200"/>
<path d="M26.7672 0.761342C27.5258 0.761342 28.1214 1.35998 28.1214 2.12189C28.1214 2.88379 27.5258 3.48244 26.7672 3.48244C26.0085 3.48244 25.4125 2.88379 25.4125 2.12189C25.4125 1.35998 26.0085 0.761342 26.7672 0.761342ZM26.7672 4.1355C27.9051 4.1355 28.8264 3.21033 28.8264 2.06747C28.8264 0.924607 27.9051 -0.000564575 26.7672 -0.000564575C25.6292 -0.000564575 24.708 0.924607 24.708 2.06747C24.708 3.21033 25.6292 4.1355 26.7672 4.1355Z" fill="#F54200"/>
<path d="M3.73887 30.6929C3.19752 30.6929 2.70983 30.2575 2.70983 29.6589C2.70983 29.0602 3.14333 28.6249 3.73887 28.6249C4.33549 28.6249 4.76847 29.0602 4.76847 29.6589C4.76847 30.2575 4.2813 30.6929 3.73887 30.6929ZM3.73887 27.9718C2.8182 27.9718 2.05957 28.7337 2.05957 29.6589C2.05957 30.584 2.8182 31.3459 3.73887 31.3459C4.66062 31.3459 5.41873 30.584 5.41873 29.6589C5.41873 28.7337 4.66062 27.9718 3.73887 27.9718Z" fill="#F54200"/>
<path d="M22.1625 0.761373C22.4318 0.761373 22.6497 0.980693 22.6497 1.25117C22.6497 1.52165 22.4318 1.74097 22.1625 1.74097C21.8932 1.74097 21.6748 1.52165 21.6748 1.25117C21.6748 0.980693 21.8932 0.761373 22.1625 0.761373Z" fill="#F54200"/>
<path d="M29.2602 28.2982C29.5295 28.2982 29.7479 28.5176 29.7479 28.788C29.7479 29.0585 29.5295 29.2778 29.2602 29.2778C28.9908 29.2778 28.7725 29.0585 28.7725 28.788C28.7725 28.5176 28.9908 28.2982 29.2602 28.2982Z" fill="#F54200"/>
<path d="M23.8422 28.2982C24.1121 28.2982 24.3299 28.5176 24.3299 28.788C24.3299 29.0585 24.1121 29.2778 23.8422 29.2778C23.5729 29.2778 23.3545 29.0585 23.3545 28.788C23.3545 28.5176 23.5729 28.2982 23.8422 28.2982Z" fill="#F54200"/>
<path d="M7.26114 27.9716C7.53047 27.9716 7.74883 28.1909 7.74883 28.4614C7.74883 28.7319 7.53047 28.9512 7.26114 28.9512C6.99181 28.9512 6.77344 28.7319 6.77344 28.4614C6.77344 28.1909 6.99181 27.9716 7.26114 27.9716Z" fill="#F54200"/>
<path d="M15.7143 2.82949C15.9836 2.82949 16.202 3.04881 16.202 3.31929C16.202 3.58976 15.9836 3.80908 15.7143 3.80908C15.4449 3.80908 15.2266 3.58976 15.2266 3.31929C15.2266 3.04881 15.4449 2.82949 15.7143 2.82949Z" fill="#F54200"/>
<path d="M7.26114 1.08852C7.53047 1.08852 7.74883 1.30784 7.74883 1.57832C7.74883 1.8488 7.53047 2.06812 7.26114 2.06812C6.99181 2.06812 6.77344 1.8488 6.77344 1.57832C6.77344 1.30784 6.99181 1.08852 7.26114 1.08852Z" fill="#F54200"/>
<path d="M21.9993 13.3328H16.2558C16.0932 13.3328 15.9307 13.496 15.9307 13.6593C15.9307 13.8226 16.0932 13.9858 16.2558 13.9858H21.9993C22.1624 13.9858 22.3244 13.8226 22.3244 13.6593C22.3244 13.496 22.1624 13.3328 21.9993 13.3328Z" fill="#F54200"/>
<path d="M21.9993 14.6939H16.2558C16.0932 14.6939 15.9307 14.8571 15.9307 15.0204C15.9307 15.1837 16.0932 15.3469 16.2558 15.3469H21.9993C22.1624 15.3469 22.3244 15.1837 22.3244 15.0204C22.3244 14.8571 22.1624 14.6939 21.9993 14.6939Z" fill="#F54200"/>
<path d="M21.9993 9.57789H16.2558C16.0932 9.57789 15.9307 9.74116 15.9307 9.90443C15.9307 10.0677 16.0932 10.231 16.2558 10.231H21.9993C22.1624 10.231 22.3244 10.0677 22.3244 9.90443C22.3244 9.74116 22.1624 9.57789 21.9993 9.57789Z" fill="#F54200"/>
<path d="M21.9993 10.938H16.2558C16.0932 10.938 15.9307 11.1013 15.9307 11.2645C15.9307 11.4278 16.0932 11.5911 16.2558 11.5911H21.9993C22.1624 11.5911 22.3244 11.4278 22.3244 11.2645C22.3244 11.1013 22.1624 10.938 21.9993 10.938Z" fill="#F54200"/>
<path d="M21.9993 16.054H16.2558C16.0932 16.054 15.9307 16.2172 15.9307 16.3805C15.9307 16.5438 16.0932 16.707 16.2558 16.707H21.9993C22.1624 16.707 22.3244 16.5438 22.3244 16.3805C22.3244 16.2172 22.1624 16.054 21.9993 16.054Z" fill="#F54200"/>
<path d="M21.9993 17.4141H16.2558C16.0932 17.4141 15.9307 17.5773 15.9307 17.7406C15.9307 17.9039 16.0932 18.0671 16.2558 18.0671H21.9993C22.1624 18.0671 22.3244 17.9039 22.3244 17.7406C22.3244 17.5773 22.1624 17.4141 21.9993 17.4141Z" fill="#F54200"/>
<path d="M21.9993 18.7752H16.2558C16.0932 18.7752 15.9307 18.9384 15.9307 19.1017C15.9307 19.265 16.0932 19.4282 16.2558 19.4282H21.9993C22.1624 19.4282 22.3244 19.265 22.3244 19.1017C22.3244 18.9384 22.1624 18.7752 21.9993 18.7752Z" fill="#F54200"/>
<path d="M3.03441 2.12189C3.41319 2.12189 3.73832 2.44842 3.73832 2.82937C3.73832 3.21033 3.41319 3.53686 3.03441 3.53686C2.65508 3.53686 2.32995 3.21033 2.32995 2.82937C2.38413 2.394 2.65508 2.12189 3.03441 2.12189ZM3.03441 4.1355C3.79251 4.1355 4.38859 3.53686 4.38859 2.77495C4.38859 2.01305 3.79251 1.4144 3.03441 1.4144C2.27576 1.4144 1.67969 2.01305 1.67969 2.77495C1.67969 3.53686 2.27576 4.1355 3.03441 4.1355Z" fill="#F54200"/>
</svg>
