<svg width="32" height="32" viewBox="0 0 32 32" fill="none" xmlns="http://www.w3.org/2000/svg">
<path d="M10.2194 19.973C10.1077 19.8626 9.88426 19.8626 9.71672 19.973C9.43747 20.2488 8.99066 20.2488 8.71141 19.973C8.59971 19.8626 8.37632 19.8626 8.20877 19.973C8.09708 20.0833 8.09708 20.304 8.20877 20.4695C8.76727 21.0212 9.66086 21.0212 10.2194 20.4695C10.3311 20.304 10.3311 20.0833 10.2194 19.973Z" fill="#F54200"/>
<path d="M17.7591 31.3389H15.3017V29.2976C15.3017 29.132 15.1341 28.9665 14.9666 28.9665C14.7996 28.9665 14.6315 29.132 14.6315 29.2976V31.3389H11.0577L9.99652 27.0355L10.3875 27.5872C10.555 27.8079 10.8901 27.7527 11.0018 27.5321L12.1747 25.1045C12.5092 25.3252 12.8443 25.4907 13.1794 25.6562L15.8043 26.7596C16.9213 27.2562 17.8149 29.2976 17.8149 30.732L17.7591 31.3389ZM9.21463 26.9252L10.3316 31.3941H8.15349L9.21463 26.9252ZM0.670189 30.732C0.670189 29.2976 1.56379 27.201 2.68078 26.7596L5.30571 25.6562C5.64081 25.4907 5.9759 25.3252 6.311 25.1045L7.42744 27.5321C7.53914 27.7527 7.87424 27.8079 8.04179 27.5872L8.54443 26.9803L7.48329 31.3941H3.90947V29.3527C3.90947 29.1872 3.74192 29.0217 3.57437 29.0217C3.40682 29.0217 3.23927 29.1872 3.23927 29.3527V31.3941H0.781889V30.732H0.670189ZM10.2758 23.008V23.8907L9.21463 24.939L8.09764 23.8355V23.008C8.82369 23.2286 9.54973 23.2286 10.2758 23.008ZM5.86365 19.1459V15.8356C8.04178 16.2218 9.43803 15.946 10.2199 15.6149V15.7804C10.1641 16.0563 10.4433 16.2218 10.6667 16.1666L11.7279 15.7804L11.6162 16.2218C11.5603 16.4977 11.7832 16.7184 12.063 16.608L12.6215 16.4425V19.2011C12.6215 21.0218 11.1135 22.5114 9.27048 22.5114C7.37159 22.4562 5.86365 20.9666 5.86365 19.1459ZM8.54443 12.0288C10.0524 11.9736 11.3928 12.5253 11.4486 12.5253C11.5045 12.5253 11.5045 12.5253 11.5603 12.5253C11.5603 12.5253 11.5603 12.5253 11.6162 12.5253C11.672 12.5253 11.672 12.5253 11.672 12.4701L11.7279 12.415V12.3598C11.7279 12.3046 11.7279 12.3046 11.7279 12.2494V12.0839C12.3422 12.5253 13.3475 13.5736 13.1241 16.0563C12.9566 15.7253 13.0124 15.7804 13.0124 15.7253C13.0124 15.7253 13.0124 15.7253 12.9566 15.7253C12.9566 15.7253 12.9566 15.7253 12.9007 15.7253C12.8443 15.7253 12.8443 15.7253 12.8443 15.7253C12.7884 15.7253 12.7884 15.7253 12.7884 15.7253L12.3981 15.8908L12.5092 15.4494C12.5656 15.1736 12.2864 14.9529 12.063 15.0632L10.946 15.5046L11.0018 15.2287C11.0018 15.1184 10.946 14.9529 10.8343 14.8977C10.7226 14.8425 10.555 14.8425 10.4433 14.8977C10.4433 14.8977 8.54443 16.277 4.30041 14.8977C5.1376 13.0219 6.58969 12.1391 8.54443 12.0288ZM11.0577 24.1114C11.2252 24.2769 11.3928 24.4424 11.5603 24.6079L10.6109 26.6493L9.71728 25.4355L11.0577 24.1114ZM7.37159 24.1666L8.71198 25.4907L7.81839 26.7045L6.86895 24.6631C7.03705 24.4976 7.20404 24.3321 7.37159 24.1666ZM16.0277 26.0976L13.4034 24.9941C12.9566 24.7735 12.5092 24.5528 12.1188 24.2217C11.7832 23.9459 11.6162 23.7804 11.3369 23.3942C11.3369 23.3942 11.3369 23.3942 11.2811 23.3942C11.2811 23.3942 11.2811 23.3942 11.2252 23.339C11.1694 23.339 11.1694 23.339 11.1694 23.339C11.1135 23.339 11.1135 23.339 11.1135 23.339C11.0577 23.339 11.0577 23.339 11.0577 23.339C11.0577 23.339 11.0577 23.339 11.0018 23.339V22.7873C12.3422 22.1252 13.2917 20.7459 13.2917 19.2011V17.6563C13.2917 17.6563 13.2917 17.6563 13.3475 17.6563C13.3475 17.6563 13.4034 17.6563 13.4034 17.7115H13.4586C13.4586 17.7115 13.4587 17.7115 13.5145 17.7115C13.5703 17.7115 13.5704 17.7115 13.6262 17.7115H13.6826C13.7385 17.6563 13.7943 17.6011 13.8496 17.5459C13.8496 17.4908 13.8496 17.4908 13.8496 17.4908C14.2964 15.3391 14.1288 13.6287 13.2352 12.415C12.5656 11.4219 11.7279 11.2012 11.7279 11.2012C11.5045 11.146 11.2811 11.3115 11.2811 11.5322V11.7529C10.7226 11.5874 9.71727 11.3667 8.54443 11.3667C6.92479 11.4219 4.69136 12.0288 3.46267 14.7874C3.40682 14.9529 3.51852 15.1184 3.63022 15.1736C3.96532 15.2839 4.57967 15.5046 5.13761 15.6149V19.1459C5.13761 20.6907 6.0312 22.07 7.37159 22.7321V23.2838C7.37159 23.2838 7.37159 23.2838 7.31574 23.2838H7.25989C7.25989 23.2838 7.20404 23.2838 7.20404 23.339L7.14819 23.3942C6.92479 23.7252 6.64555 23.9459 6.2546 24.2769C5.9195 24.5528 5.47271 24.7735 5.08176 24.9941L2.45738 26.0976C0.893591 26.7596 0 29.2424 0 30.732V31.6699C0 31.8355 0.167539 32.001 0.335088 32.001C0.837734 32.001 17.5915 32.001 18.15 32.001C18.3176 32.001 18.4851 31.8355 18.4851 31.6699V30.732C18.4851 29.2424 17.5915 26.7596 16.0277 26.0976Z" fill="#F54200"/>
<path d="M31.3294 12.6905L29.3752 12.9111C29.2071 12.9111 29.0959 13.0215 29.0959 13.187C28.9842 13.6835 28.7608 14.1249 28.5369 14.5663C28.4816 14.6766 28.4816 14.8422 28.5933 14.9525L29.822 16.4421L28.4816 17.6559L26.9736 16.4421C26.8619 16.3318 26.6944 16.3318 26.5827 16.387C26.1359 16.6628 25.6891 16.8283 25.1865 16.9387C25.0189 16.9939 24.9631 17.1042 24.9072 17.2145L24.6844 19.1456H22.8966L22.6738 17.2145C22.6738 17.049 22.5621 16.9387 22.3945 16.9387C21.8919 16.8283 21.4445 16.6077 20.9983 16.387C20.886 16.3318 20.719 16.3318 20.6073 16.4421L19.0994 17.6559L17.8707 16.4421L19.0994 14.9525C19.2111 14.8422 19.2111 14.6766 19.1553 14.5663C18.876 14.1249 18.7085 13.6835 18.5968 13.187C18.5409 13.0215 18.4292 12.9663 18.3175 12.9111L16.3628 12.6905V10.925L18.3175 10.7043C18.485 10.7043 18.5968 10.5939 18.5968 10.4284C18.7085 9.93186 18.9319 9.49048 19.1553 9.04911C19.2111 8.93877 19.2111 8.77325 19.0994 8.66291L17.8707 7.17327L19.0994 5.95948L20.6073 7.17327C20.719 7.28361 20.886 7.28361 20.9983 7.22844C21.4445 6.95258 21.8919 6.78706 22.3945 6.67672C22.5621 6.62155 22.6174 6.5112 22.6738 6.40086L22.8966 4.46984H24.6844L24.9072 6.40086C24.9072 6.56637 25.0189 6.67672 25.1865 6.67672C25.6891 6.78706 26.1359 7.00775 26.5827 7.22844C26.6944 7.28361 26.8619 7.28361 26.9736 7.17327L28.4816 5.95948L29.7097 7.17327L28.4816 8.77325C28.3699 8.88359 28.3699 9.04911 28.4252 9.15945C28.705 9.60083 28.8725 10.0422 28.9842 10.5387C29.0401 10.7043 29.1518 10.7594 29.2635 10.8146L31.2177 11.0353L31.3294 12.6905ZM31.665 10.3181L29.598 10.0974C29.4863 9.71117 29.3188 9.32497 29.1518 8.99394L30.4363 7.39395C30.5475 7.28361 30.5475 7.06292 30.4363 6.95258L28.7608 5.29742C28.6486 5.18708 28.4252 5.18708 28.314 5.29742L26.6944 6.56637C26.3593 6.40086 25.9683 6.23534 25.5774 6.125L25.354 4.08364C25.354 3.91812 25.1865 3.75261 25.0189 3.75261H22.6174C22.4504 3.75261 22.2828 3.86295 22.2828 4.08364L22.0589 6.125C21.6679 6.23534 21.277 6.40086 20.9424 6.56637L19.3228 5.29742C19.2111 5.18708 18.9877 5.18708 18.876 5.29742L17.2005 6.95258C17.0888 7.06292 17.0888 7.28361 17.2005 7.39395L18.4851 8.99394C18.3175 9.32497 18.15 9.71117 18.0383 10.0974L15.9718 10.3181C15.8043 10.3181 15.6367 10.4836 15.6367 10.6491V13.0215C15.6367 13.187 15.7484 13.3525 15.9718 13.3525L18.0383 13.5732C18.15 13.9594 18.3175 14.2904 18.4851 14.6766L17.2005 16.2766C17.0888 16.387 17.0888 16.6077 17.2005 16.718L18.876 18.3732C18.9877 18.4835 19.2111 18.4835 19.3228 18.3732L20.9424 17.1042C21.277 17.2697 21.6679 17.4352 22.0589 17.5456L22.2828 19.5869C22.2828 19.7525 22.4504 19.918 22.6174 19.918H25.0189C25.1865 19.918 25.354 19.8076 25.354 19.5869L25.5774 17.5456C25.9683 17.4352 26.3035 17.2697 26.6944 17.1042L28.314 18.3732C28.4252 18.4835 28.6486 18.4835 28.7608 18.3732L30.4363 16.718C30.5475 16.6077 30.5475 16.387 30.4363 16.2766L29.1518 14.6766C29.3188 14.3456 29.4863 13.9594 29.598 13.5732L31.665 13.3525C31.832 13.3525 31.9996 13.187 31.9996 13.0215V10.6491C31.9996 10.4836 31.8879 10.3181 31.665 10.3181Z" fill="#F54200"/>
<path d="M23.8461 14.732C22.2264 14.732 20.886 13.4079 20.886 11.8079C20.886 10.2079 22.2264 8.88376 23.8461 8.88376C25.4657 8.88376 26.8055 10.2079 26.8055 11.8079C26.8055 13.463 25.4657 14.732 23.8461 14.732ZM23.8461 8.2217C21.8355 8.2217 20.2158 9.82168 20.2158 11.8079C20.2158 13.7941 21.8355 15.394 23.8461 15.394C25.8566 15.394 27.4757 13.7941 27.4757 11.8079C27.4757 9.82168 25.8566 8.2217 23.8461 8.2217Z" fill="#F54200"/>
<path d="M6.25496 2.37368C7.59535 2.37368 8.71234 3.47712 8.71234 4.80124C8.71234 6.12537 7.59535 7.22881 6.25496 7.22881C4.91512 7.22881 3.79813 6.12537 3.79813 4.80124C3.79813 3.47712 4.91512 2.37368 6.25496 2.37368ZM6.25496 7.89087C7.9863 7.89087 9.38254 6.51157 9.38254 4.80124C9.38254 3.09092 7.9863 1.71162 6.25496 1.71162C4.52417 1.71162 3.12793 3.09092 3.12793 4.80124C3.12793 6.51157 4.52417 7.89087 6.25496 7.89087Z" fill="#F54200"/>
<path d="M25.4655 26.8692C24.6841 26.8692 24.0692 26.2623 24.0692 25.4899C24.0692 24.7175 24.6841 24.1106 25.4655 24.1106C26.2474 24.1106 26.8617 24.7175 26.8617 25.4899C26.8617 26.2623 26.1915 26.8692 25.4655 26.8692ZM25.4655 23.4485C24.2932 23.4485 23.3438 24.3865 23.3438 25.5451C23.3438 26.7037 24.2932 27.6416 25.4655 27.6416C26.6383 27.6416 27.5878 26.7037 27.5878 25.5451C27.5878 24.3865 26.5825 23.4485 25.4655 23.4485Z" fill="#F54200"/>
<path d="M19.323 0.000558674C19.6006 0.000558674 19.825 0.222901 19.825 0.497106C19.825 0.77131 19.6006 0.993652 19.323 0.993652C19.0448 0.993652 18.8203 0.77131 18.8203 0.497106C18.8203 0.222901 19.0448 0.000558674 19.323 0.000558674Z" fill="#F54200"/>
<path d="M31.2179 20.6895C31.4955 20.6895 31.7206 20.9119 31.7206 21.1861C31.7206 21.4603 31.4955 21.6826 31.2179 21.6826C30.9403 21.6826 30.7158 21.4603 30.7158 21.1861C30.7158 20.9119 30.9403 20.6895 31.2179 20.6895Z" fill="#F54200"/>
<path d="M12.3425 5.51765C12.6201 5.51765 12.8446 5.73999 12.8446 6.0142C12.8446 6.2884 12.6201 6.51074 12.3425 6.51074C12.0649 6.51074 11.8398 6.2884 11.8398 6.0142C11.8398 5.73999 12.0649 5.51765 12.3425 5.51765Z" fill="#F54200"/>
<path d="M1.89912 9.65583C2.17671 9.65583 2.40177 9.87817 2.40177 10.1524C2.40177 10.4266 2.17671 10.6489 1.89912 10.6489C1.62153 10.6489 1.39648 10.4266 1.39648 10.1524C1.39648 9.87817 1.62153 9.65583 1.89912 9.65583Z" fill="#F54200"/>
<path d="M3.29561 21.0211C3.5732 21.0211 3.79826 21.2434 3.79826 21.5176C3.79826 21.7918 3.5732 22.0142 3.29561 22.0142C3.01746 22.0142 2.79297 21.7918 2.79297 21.5176C2.79297 21.2434 3.01746 21.0211 3.29561 21.0211Z" fill="#F54200"/>
<path d="M21.7805 27.9176C22.0581 27.9176 22.2832 28.1399 22.2832 28.4141C22.2832 28.6883 22.0581 28.9106 21.7805 28.9106C21.503 28.9106 21.2773 28.6883 21.2773 28.4141C21.2773 28.1399 21.503 27.9176 21.7805 27.9176Z" fill="#F54200"/>
<path d="M16.195 21.0211C16.4726 21.0211 16.6977 21.2434 16.6977 21.5176C16.6977 21.7918 16.4726 22.0142 16.195 22.0142C15.9174 22.0142 15.6924 21.7918 15.6924 21.5176C15.6924 21.2434 15.9174 21.0211 16.195 21.0211Z" fill="#F54200"/>
</svg>
