<svg width="36" height="38" viewBox="0 0 36 38" fill="none" xmlns="http://www.w3.org/2000/svg">
<path d="M18.8919 23.9048C18.7597 23.7749 18.4961 23.7749 18.2979 23.9048C17.9676 24.2296 17.4391 24.2296 17.1088 23.9048C16.9766 23.7749 16.7123 23.7749 16.5141 23.9048C16.382 24.0347 16.382 24.2945 16.5141 24.4894C17.1748 25.139 18.2319 25.139 18.8919 24.4894C19.024 24.2945 19.024 24.0347 18.8919 23.9048Z" fill="#F54200"/>
<path d="M27.8116 37.2855H25.235V34.8821C25.235 34.6872 25.0368 34.4923 24.8386 34.4923C24.6404 34.4923 24.4422 34.6872 24.4422 34.8821V37.2855H19.8844L18.6291 32.2188L19.0916 32.8684C19.2898 33.1282 19.6855 33.0633 19.8176 32.8034L21.205 29.9453C21.6021 30.2051 21.9978 30.4 22.3949 30.5949L25.4993 31.894C26.8199 32.4786 27.8776 34.8821 27.8776 36.5709L27.8116 37.2855ZM17.7042 32.0889L19.0248 37.3504H16.3829L17.7042 32.0889ZM7.5968 36.5709C7.5968 34.8821 8.65384 32.4137 9.97516 31.894L13.0803 30.5949C13.476 30.4 13.873 30.2051 14.2688 29.9453L15.5907 32.8034C15.7222 33.0633 16.1186 33.1282 16.3168 32.8684L16.9114 32.1539L15.6562 37.3504H11.0976V34.947C11.0976 34.7521 10.9001 34.5573 10.7019 34.5573C10.5031 34.5573 10.3048 34.7521 10.3048 34.947V37.3504H7.5968V36.5709ZM18.9594 27.4769V28.5163L17.7042 29.7504L16.3829 28.4513V27.4769C17.2417 27.7368 18.0999 27.7368 18.9594 27.4769ZM13.7402 22.9299V19.0325C16.3168 19.4872 17.9685 19.1624 18.8927 18.7727V18.9676C18.8273 19.2923 19.1576 19.4872 19.4219 19.4223L20.6772 18.9676L20.545 19.4872C20.4783 19.812 20.8086 20.0718 21.0729 19.9419L21.7336 19.747V22.9949C21.7336 25.1385 19.9504 26.8923 17.7702 26.8923C15.524 26.8274 13.7402 25.0735 13.7402 22.9299ZM16.9114 14.5505C18.6952 14.4855 20.2801 15.1351 20.3468 15.1351C20.4129 15.1351 20.4129 15.1351 20.4783 15.1351C20.4783 15.1351 20.4783 15.1351 20.545 15.1351C20.545 15.1351 20.6104 15.1351 20.6104 15.0701C20.6104 15.0701 20.6772 15.0701 20.6772 15.0052V14.9402C20.6772 14.8753 20.6772 14.8753 20.6772 14.8103V14.6154C21.4032 15.1351 22.5931 16.3693 22.3281 19.2923C22.1306 18.9026 22.196 18.9676 22.196 18.9026C22.196 18.9026 22.196 18.9026 22.1306 18.9026C22.1306 18.9026 22.1306 18.9026 22.0639 18.9026C22.0639 18.9026 22.0639 18.9026 21.9978 18.9026C21.9324 18.9026 21.9324 18.9026 21.9324 18.9026L21.4699 19.0975L21.6021 18.5778C21.6681 18.253 21.3378 17.9932 21.0729 18.1231L19.6855 18.3829L19.7522 18.0582C19.7522 17.9282 19.6855 17.7334 19.554 17.6684C19.4219 17.6035 19.223 17.6035 19.0916 17.6684C19.0916 17.6684 16.8447 19.2923 11.825 17.6684C12.8814 15.7197 14.5991 14.6804 16.9114 14.5505ZM19.8844 28.7761C20.0826 28.971 20.2801 29.1658 20.4783 29.3607L19.3552 31.7641L18.2988 30.3351L19.8844 28.7761ZM15.524 28.841L15.5907 28.906L17.1096 30.4L15.9865 31.8291L14.9294 29.4257C15.1276 29.2308 15.3258 29.0359 15.524 28.841ZM25.7635 31.1145L22.6584 29.8154C22.1306 29.5556 21.6021 29.2957 21.1396 28.906C20.7426 28.5812 20.545 28.3863 20.2147 27.9316C20.2147 27.9316 20.2147 27.9316 20.148 27.9316C20.148 27.9316 20.148 27.9316 20.0826 27.8667C20.0158 27.8667 20.0825 27.8667 20.0158 27.8667C19.9504 27.8667 20.0158 27.8667 19.9504 27.8667C19.8844 27.8667 19.8844 27.8667 19.8844 27.8667C19.8844 27.8667 19.8844 27.8667 19.8176 27.8667V27.2171C21.4032 26.4376 22.5263 24.8137 22.5263 22.9949V21.1761C22.5931 21.2411 22.6585 21.2411 22.7252 21.306C22.7906 21.306 22.7906 21.306 22.8567 21.306H22.9227C22.9888 21.2411 23.0555 21.1761 23.1209 21.1111V21.0462C23.6495 18.5129 23.4513 16.4992 22.3949 15.0701C21.6021 13.9659 20.6104 13.6411 20.545 13.6411C20.2801 13.5761 20.0158 13.771 20.0158 14.0308V14.2906C19.3552 14.0958 18.1666 13.8359 16.7793 13.8359C14.8634 13.9009 12.2208 14.6154 10.7673 17.8633C10.7019 18.0582 10.7673 18.253 10.9655 18.318C11.2958 18.4479 12.0886 18.7077 12.7499 18.8376V22.9299C12.7499 24.7487 13.8063 26.3727 15.3919 27.1522V27.8017C15.3919 27.8017 15.3919 27.8017 15.3258 27.8017C15.3258 27.8017 15.3258 27.8017 15.2598 27.8017C15.2598 27.8017 15.2598 27.8017 15.1937 27.8017C15.1276 27.8017 15.1937 27.8017 15.1276 27.8667C14.8634 28.2564 14.5331 28.5163 14.0706 28.906C13.6742 29.2308 13.1456 29.4906 12.6832 29.7504L9.57876 31.0496C7.72892 31.8291 6.67188 34.7521 6.67188 36.506V37.6103C6.67188 37.8051 6.86942 38 7.06827 38C8.12467 38 27.0849 38 28.1419 38C28.3401 38 28.5377 37.8051 28.5377 37.6103V36.5709C28.6704 34.8171 27.6127 31.894 25.7635 31.1145Z" fill="#F54200"/>
<path d="M15.7223 5.4564C15.9205 5.4564 16.0526 5.32649 16.1187 5.19658L17.3079 1.68889L18.4971 5.19658C18.5625 5.39145 18.6953 5.4564 18.8928 5.4564H22.6585L19.6202 7.66495C19.4881 7.79486 19.422 7.92478 19.4881 8.11965L20.6772 11.6273L17.6376 9.41879C17.5061 9.28888 17.3079 9.28888 17.1757 9.41879L14.1367 11.6273L15.3259 8.11965C15.392 7.92478 15.3259 7.79486 15.1938 7.66495L12.1554 5.4564H15.7223ZM10.4377 5.39145L14.2689 8.11965L12.8154 12.5367C12.75 12.7316 12.8154 12.8615 12.9475 12.9914C13.0803 13.1213 13.2779 13.1213 13.4107 12.9914L17.2418 10.2632L21.073 12.9914C21.2051 13.1213 21.4033 13.1213 21.5354 12.9914C21.6682 12.8615 21.7336 12.7316 21.6682 12.5367L20.2148 8.11965L24.0459 5.39145C24.1781 5.26153 24.2441 5.13162 24.1781 4.93675C24.112 4.74188 23.9799 4.67692 23.7817 4.67692H19.0249L17.7043 0.259834C17.6376 0.0649633 17.5061 5.72205e-06 17.3079 5.72205e-06C17.1097 5.72205e-06 16.9775 0.12992 16.9115 0.259834L15.4581 4.67692H10.702C10.5031 4.67692 10.3716 4.80683 10.3049 4.93675C10.2395 5.13162 10.3049 5.26153 10.4377 5.39145Z" fill="#F54200"/>
<path d="M26.7545 8.89891C26.9527 8.89891 27.0849 8.769 27.1509 8.63908L27.8116 6.69037L28.4723 8.63908C28.5377 8.83395 28.6704 8.89891 28.868 8.89891H30.9828L29.265 10.1331C29.1329 10.263 29.0669 10.3929 29.1329 10.5878L29.7929 12.5365L28.0752 11.3023C27.9437 11.1724 27.7455 11.1724 27.6127 11.3023L25.8296 12.5365L26.4903 10.5878C26.5563 10.3929 26.4903 10.263 26.3581 10.1331L24.6405 8.89891H26.7545ZM22.9888 8.37925C22.9227 8.57413 22.9888 8.70404 23.1209 8.83395L25.6314 10.5878L24.7065 13.4459C24.6404 13.6408 24.7065 13.7707 24.8386 13.9006C24.9708 14.0305 25.169 14.0305 25.3011 13.9006L27.8116 12.1468L30.3221 13.9006C30.3882 13.9656 30.4536 13.9656 30.5857 13.9656C30.8506 13.9656 31.0482 13.7057 30.9828 13.4459L29.9911 10.5878L32.5016 8.83395C32.6338 8.70404 32.7004 8.57413 32.6337 8.37925C32.5683 8.18438 32.4355 8.11943 32.238 8.11943H29.1329L28.208 5.26131C28.1419 5.06644 28.0098 5.00148 27.8116 5.00148C27.6127 5.00148 27.4813 5.1314 27.4152 5.26131L26.4903 8.11943H23.3858C23.1876 8.05447 23.0555 8.18438 22.9888 8.37925Z" fill="#F54200"/>
<path d="M5.61615 8.89891C5.81369 8.89891 5.94581 8.769 6.01188 8.63908L6.67254 6.69037L7.3332 8.63908C7.39927 8.83395 7.5314 8.89891 7.7296 8.89891H9.84305L8.12533 10.1331C7.99385 10.263 7.9278 10.3929 7.99387 10.5878L8.65453 12.5365L6.9368 11.3023C6.80467 11.1724 6.60649 11.1724 6.47436 11.3023L4.75663 12.5365L5.4173 10.5878C5.48336 10.3929 5.41729 10.263 5.28516 10.1331L3.56811 8.89891H5.61615ZM1.98255 8.83395L4.49237 10.5878L3.56811 13.4459C3.50139 13.6408 3.56813 13.7707 3.6996 13.9006C3.83174 14.0305 4.02992 14.0305 4.16205 13.9006L6.67254 12.1468L9.18306 13.9006C9.24847 13.9656 9.31516 13.9656 9.44729 13.9656C9.7109 13.9656 9.90977 13.7057 9.84305 13.4459L8.85271 10.5878L11.3632 8.83395C11.4953 8.70404 11.5607 8.57413 11.4953 8.37925C11.4286 8.18438 11.2965 8.11943 11.0983 8.11943H7.99387L7.06894 5.26131C7.00287 5.06644 6.87008 5.00148 6.67254 5.00148C6.47434 5.00148 6.34221 5.1314 6.27614 5.26131L5.35124 8.11943H2.24615C2.04795 8.11943 1.91583 8.24934 1.85042 8.37925C1.7837 8.50917 1.85042 8.70404 1.98255 8.83395Z" fill="#F54200"/>
<path d="M31.7757 23.5147C30.6526 23.5147 29.7277 22.6053 29.7277 21.501C29.7277 20.3967 30.6526 19.4873 31.7757 19.4873C32.8982 19.4873 33.8238 20.3967 33.8238 21.501C33.8238 22.6053 32.8982 23.5147 31.7757 23.5147ZM31.7757 18.6429C30.1901 18.6429 28.8682 19.942 28.8682 21.501C28.8682 23.06 30.1901 24.3591 31.7757 24.3591C33.3613 24.3591 34.6819 23.06 34.6819 21.501C34.6819 19.942 33.3613 18.6429 31.7757 18.6429Z" fill="#F54200"/>
<path d="M2.84 27.5425C2.18 27.5425 1.58476 27.0229 1.58476 26.3084C1.58476 25.5938 2.11328 25.0742 2.84 25.0742C3.56738 25.0742 4.09527 25.5938 4.09527 26.3084C4.09527 27.0229 3.50066 27.5425 2.84 27.5425ZM2.84 24.2947C1.71754 24.2947 0.791992 25.2041 0.791992 26.3084C0.791992 27.4126 1.71754 28.322 2.84 28.322C3.96312 28.322 4.88804 27.4126 4.88804 26.3084C4.88804 25.2041 3.96312 24.2947 2.84 24.2947Z" fill="#F54200"/>
<path d="M34.8143 33.6486C35.1427 33.6486 35.4089 33.9104 35.4089 34.2333C35.4089 34.5561 35.1427 34.8179 34.8143 34.8179C34.4859 34.8179 34.2197 34.5561 34.2197 34.2333C34.2197 33.9104 34.4859 33.6486 34.8143 33.6486Z" fill="#F54200"/>
<path d="M25.367 25.5288C25.6954 25.5288 25.9616 25.7905 25.9616 26.1134C25.9616 26.4362 25.6954 26.698 25.367 26.698C25.0387 26.698 24.7725 26.4362 24.7725 26.1134C24.7725 25.7905 25.0387 25.5288 25.367 25.5288Z" fill="#F54200"/>
<path d="M34.0214 15.0053C34.3497 15.0053 34.616 15.2671 34.616 15.5899C34.616 15.9128 34.3497 16.1746 34.0214 16.1746C33.693 16.1746 33.4268 15.9128 33.4268 15.5899C33.4268 15.2671 33.693 15.0053 34.0214 15.0053Z" fill="#F54200"/>
<path d="M31.1151 2.40353C31.4435 2.40353 31.709 2.6653 31.709 2.98814C31.709 3.31098 31.4435 3.57275 31.1151 3.57275C30.7867 3.57275 30.5205 3.31098 30.5205 2.98814C30.5205 2.6653 30.7867 2.40353 31.1151 2.40353Z" fill="#F54200"/>
<path d="M9.64506 1.17062C9.97342 1.17062 10.2396 1.43239 10.2396 1.75523C10.2396 2.07807 9.97342 2.33984 9.64506 2.33984C9.31669 2.33984 9.0498 2.07807 9.0498 1.75523C9.0498 1.43239 9.31669 1.17062 9.64506 1.17062Z" fill="#F54200"/>
<path d="M0.594613 13.3813C0.922979 13.3813 1.18919 13.6431 1.18919 13.9659C1.18919 14.2888 0.922979 14.5505 0.594613 14.5505C0.266247 14.5505 0 14.2888 0 13.9659C0 13.6431 0.266247 13.3813 0.594613 13.3813Z" fill="#F54200"/>
<path d="M7.20005 17.8637C7.52842 17.8637 7.79463 18.1255 7.79463 18.4483C7.79463 18.7712 7.52842 19.033 7.20005 19.033C6.87103 19.033 6.60547 18.7712 6.60547 18.4483C6.60547 18.1255 6.87103 17.8637 7.20005 17.8637Z" fill="#F54200"/>
<path d="M10.0402 26.7631C10.3693 26.7631 10.6348 27.0249 10.6348 27.3478C10.6348 27.6706 10.3693 27.9324 10.0402 27.9324C9.71187 27.9324 9.44629 27.6706 9.44629 27.3478C9.44629 27.0249 9.71187 26.7631 10.0402 26.7631Z" fill="#F54200"/>
<path d="M3.03925 34.1032C3.36762 34.1032 3.63384 34.365 3.63384 34.6878C3.63384 35.0107 3.36762 35.2725 3.03925 35.2725C2.71089 35.2725 2.44531 35.0107 2.44531 34.6878C2.44531 34.365 2.71089 34.1032 3.03925 34.1032Z" fill="#F54200"/>
</svg>
