<svg width="44" height="45" viewBox="0 0 44 45" fill="none" xmlns="http://www.w3.org/2000/svg">
<path d="M21.7969 30.0013C21.472 30.3255 20.9047 30.3255 20.5806 30.0013C20.4193 29.8393 20.0951 29.8393 19.852 30.0013C19.6899 30.1634 19.6899 30.4875 19.852 30.7306C20.5806 31.4599 21.7969 31.4599 22.5263 30.7306C22.6875 30.5686 22.6875 30.2444 22.5263 30.0013C22.3642 29.8393 22.0393 29.8393 21.7969 30.0013Z" fill="#FF4A47"/>
<path d="M23.8225 27.9752C23.9845 27.8131 23.9845 27.489 23.8225 27.2459C23.2552 26.6786 22.3646 26.6786 21.7973 27.2459C21.6353 27.4079 21.6353 27.7321 21.7973 27.9752C21.9594 28.1372 22.2827 28.1372 22.5267 27.9752C22.6879 27.8131 22.9319 27.8131 23.0931 27.9752C23.337 28.2182 23.6604 28.2182 23.8225 27.9752Z" fill="#FF4A47"/>
<path d="M20.6631 27.9752C20.8252 27.8131 20.8252 27.489 20.6631 27.2459C20.0959 26.6786 19.2036 26.6786 18.6372 27.2459C18.4751 27.4079 18.4751 27.7321 18.6372 27.9752C18.7985 28.1372 19.1234 28.1372 19.3657 27.9752C19.5286 27.8131 19.7709 27.8131 19.9338 27.9752C20.0959 28.2182 20.42 28.2182 20.6631 27.9752Z" fill="#FF4A47"/>
<path d="M31.6006 39.076C31.1152 38.3467 30.5479 37.8605 29.8988 37.6174L28.8461 37.2122C33.4652 34.6192 36.7067 29.6763 36.868 24.0041H39.9475C39.7854 30.0815 36.7068 35.6726 31.6006 39.076ZM28.7651 43.2086V40.6156C28.7651 40.3725 28.522 40.1294 28.2789 40.1294C28.0357 40.1294 27.7926 40.3725 27.7926 40.6156V43.2896H21.6346V38.9949L21.9587 39.5621C22.12 39.8863 22.607 39.9673 22.8493 39.6432L24.8761 36.4019C25.3615 36.7261 25.8485 36.9691 26.1719 37.1312L29.5755 38.5898C30.3048 38.9139 31.0333 39.8052 31.5204 40.9397C31.8437 41.669 32.0876 42.5603 32.1687 43.2896L28.7651 43.2086ZM10.6953 40.9397C11.1807 39.7242 11.9101 38.9139 12.6402 38.5898L16.043 37.1312C16.3671 36.9691 16.6905 36.8071 16.9344 36.645C17.0154 36.645 17.0154 36.564 17.0965 36.564C17.1775 36.483 17.2585 36.4019 17.4206 36.4019L19.4466 39.6432C19.6897 39.9673 20.1751 39.9673 20.3372 39.5621L20.6621 38.9949V43.2896H14.6654V40.6156C14.6654 40.3725 14.4222 40.1294 14.1791 40.1294C13.936 40.1294 13.6929 40.3725 13.6929 40.6156V43.2896H10.2083C10.128 42.4793 10.3712 41.669 10.6953 40.9397ZM2.42949 24.0041H5.50891C5.67098 29.6763 8.83147 34.5382 13.4498 37.1312L12.235 37.6174C11.6678 37.8605 11.1005 38.3467 10.6135 38.9949C5.67099 35.5916 2.59157 30.0005 2.42949 24.0041ZM20.6621 4.79972V7.87891C12.4781 8.04097 5.75202 14.7666 5.50891 23.0318H2.42949C2.75364 13.0649 10.7755 5.04281 20.6621 4.79972ZM23.4166 35.1865C23.5787 35.3485 23.7415 35.5916 23.9838 35.7537L22.3639 38.3467L21.6346 36.9691L23.4166 35.1865ZM18.7172 35.1865L20.5 36.9691L19.7699 38.3467L18.1499 35.7537C18.312 35.5106 18.5552 35.3485 18.7172 35.1865ZM16.4482 26.0299C17.3396 23.599 18.7975 21.2491 20.7424 20.8439C20.5803 23.4369 18.7974 25.4627 16.4482 26.0299ZM21.7148 20.8439C23.7416 21.168 25.2813 23.518 26.1719 26.0299C23.7415 25.5437 21.8769 23.4369 21.7148 20.8439ZM21.1476 33.3227C20.6621 33.0796 20.2569 32.8365 19.9328 32.5935L19.8517 32.5124C17.7448 30.8918 17.4206 28.866 17.5017 26.8402C19.2027 26.192 20.5803 24.8955 21.3096 23.1938C22.039 24.8955 23.4166 26.273 25.1994 26.9213C25.1184 29.0281 24.6322 31.378 21.1476 33.3227ZM15.3947 31.0539C15.3947 30.0815 15.6378 28.6229 16.043 27.1644C16.124 27.1644 16.2861 27.1644 16.3671 27.0833C16.3671 28.785 16.6103 31.1349 18.8793 33.0796C18.3931 34.052 17.5827 34.9434 16.6905 35.5106C15.7999 34.6192 15.3947 33.2417 15.3947 31.0539ZM21.0673 36.0778L19.2845 34.2951C19.4466 34.052 19.6078 33.89 19.6897 33.6469C20.0138 33.89 20.419 34.133 20.9044 34.2951C21.0673 34.3761 21.2294 34.3761 21.3915 34.2951C21.7967 34.133 22.12 33.89 22.4441 33.6469C22.526 33.89 22.6873 34.052 22.8493 34.2951L21.0673 36.0778ZM23.2545 33.0796C25.7667 30.9728 26.0908 28.704 26.1719 27.0833C26.3339 27.0833 26.415 27.1644 26.5771 27.1644C26.9823 28.6229 27.2254 30.0815 27.2254 31.0539C27.2254 33.4038 26.8202 34.8623 25.7667 35.7537C24.714 35.1054 23.8218 34.2141 23.2545 33.0796ZM31.3583 24.0041H35.8956C35.7335 29.3522 32.5731 34.2951 27.7116 36.645L26.7391 36.2399C28.0358 34.8623 28.1978 32.8365 28.1978 31.0539C28.1978 27.9747 26.0909 19.7905 21.3096 19.7905H21.2294C18.15 19.8715 16.2051 23.2749 15.2326 26.5161C14.8274 27.8936 14.4222 29.6763 14.4222 31.0539C14.4222 32.6745 14.5843 34.7003 15.8809 36.0778C15.6378 36.1588 15.6378 36.1588 14.5843 36.645C9.80309 34.2141 6.72448 29.3522 6.48137 24.0041H11.0187C11.2626 24.0041 11.5057 23.761 11.5057 23.518C11.5057 23.2749 11.2626 23.0318 11.0187 23.0318H6.48137C6.72448 15.3338 12.9636 9.09438 20.6621 8.85128V13.389C20.6621 13.6321 20.9045 13.8752 21.1476 13.8752C21.3915 13.8752 21.6346 13.6321 21.6346 13.389V8.85128C29.3323 9.09438 35.5722 15.3338 35.8145 23.0318H31.2764C31.0333 23.0318 30.791 23.2749 30.791 23.518C30.791 23.761 31.0333 24.0041 31.3583 24.0041ZM39.9475 23.0318H36.868C36.6249 14.7666 29.8988 8.122 21.7148 7.87891V4.79972C31.6006 5.04281 39.7044 13.0649 39.9475 23.0318ZM21.2294 3.74631C10.3712 3.74631 1.45703 12.5787 1.45703 23.518C1.45703 30.0815 4.69852 36.1588 10.128 39.8863C9.47893 41.1828 9.07377 42.6413 9.07377 43.7758C9.07377 44.0189 9.31687 44.262 9.56079 44.262C10.6953 44.262 27.8737 44.262 32.6549 44.262C32.898 44.262 33.1403 44.0189 33.1403 43.7758C33.1403 42.6413 32.8162 41.2638 32.1687 39.9673C37.6784 36.3209 41.001 30.1625 41.001 23.518C40.9199 12.5787 32.0876 3.74631 21.2294 3.74631Z" fill="#FF4A47"/>
<path d="M39.2181 2.77362C40.7578 2.77362 41.9734 3.98909 41.9734 5.52869C41.9734 7.06828 40.7578 8.28375 39.2181 8.28375C37.6784 8.28375 36.4629 7.06828 36.4629 5.52869C36.4629 3.98909 37.6784 2.77362 39.2181 2.77362ZM39.2181 9.33716C41.3251 9.33716 43.0269 7.6355 43.0269 5.52869C43.0269 3.42187 41.2441 1.72022 39.2181 1.72022C37.1922 1.72022 35.4102 3.42187 35.4102 5.52869C35.4102 7.6355 37.1119 9.33716 39.2181 9.33716Z" fill="#FF4A47"/>
<path d="M3.48293 42.7232C2.34841 42.7232 1.45699 41.8319 1.45699 40.6974C1.45699 39.563 2.34841 38.6717 3.48293 38.6717C4.61746 38.6717 5.50887 39.563 5.50887 40.6974C5.50887 41.8319 4.61746 42.7232 3.48293 42.7232ZM3.48293 37.6993C1.78114 37.6993 0.404297 39.0768 0.404297 40.7785C0.404297 42.4801 1.78114 43.8577 3.48293 43.8577C5.18472 43.8577 6.56156 42.4801 6.56156 40.7785C6.56156 39.0768 5.18472 37.6993 3.48293 37.6993Z" fill="#FF4A47"/>
<path d="M41.7313 14.443C42.1333 14.443 42.4606 14.7696 42.4606 15.1723C42.4606 15.5751 42.1333 15.9016 41.7313 15.9016C41.3285 15.9016 41.002 15.5751 41.002 15.1723C41.002 14.7696 41.3285 14.443 41.7313 14.443Z" fill="#FF4A47"/>
<path d="M30.5496 0.262384C30.9524 0.262384 31.2782 0.58894 31.2782 0.991666C31.2782 1.39439 30.9524 1.72095 30.5496 1.72095C30.1469 1.72095 29.8203 1.39439 29.8203 0.991666C29.8203 0.58894 30.1469 0.262384 30.5496 0.262384Z" fill="#FF4A47"/>
<path d="M9.31839 1.72137C9.72117 1.72137 10.0477 2.04792 10.0477 2.45065C10.0477 2.85338 9.72117 3.17993 9.31839 3.17993C8.9156 3.17993 8.58984 2.85338 8.58984 2.45065C8.58984 2.04792 8.9156 1.72137 9.31839 1.72137Z" fill="#FF4A47"/>
<path d="M1.21569 9.82391C1.61847 9.82391 1.94502 10.1505 1.94502 10.5532C1.94502 10.9559 1.61847 11.2825 1.21569 11.2825C0.812912 11.2825 0.486328 10.9559 0.486328 10.5532C0.486328 10.1505 0.812912 9.82391 1.21569 9.82391Z" fill="#FF4A47"/>
<path d="M43.2696 31.6218C43.6723 31.6218 43.9997 31.9483 43.9997 32.351C43.9997 32.7538 43.6723 33.0803 43.2696 33.0803C42.8676 33.0803 42.541 32.7538 42.541 32.351C42.541 31.9483 42.8676 31.6218 43.2696 31.6218Z" fill="#FF4A47"/>
<path d="M38.1649 41.7507C38.5677 41.7507 38.8942 42.0772 38.8942 42.4799C38.8942 42.8827 38.5677 43.2092 38.1649 43.2092C37.7621 43.2092 37.4355 42.8827 37.4355 42.4799C37.4355 42.0772 37.7621 41.7507 38.1649 41.7507Z" fill="#FF4A47"/>
<path d="M0.728542 31.6218C1.13132 31.6218 1.45787 31.9483 1.45787 32.351C1.45787 32.7538 1.13132 33.0803 0.728542 33.0803C0.325761 33.0803 0 32.7538 0 32.351C0 31.9483 0.325761 31.6218 0.728542 31.6218Z" fill="#FF4A47"/>
</svg>
