<svg width="32" height="32" viewBox="0 0 32 32" fill="none" xmlns="http://www.w3.org/2000/svg">
<path d="M15.8525 21.6287C15.6162 21.8644 15.2036 21.8644 14.9679 21.6287C14.8506 21.5108 14.6148 21.5108 14.438 21.6287C14.3201 21.7466 14.3201 21.9823 14.438 22.1591C14.9679 22.6895 15.8525 22.6895 16.3829 22.1591C16.5002 22.0412 16.5002 21.8055 16.3829 21.6287C16.2651 21.5108 16.0287 21.5108 15.8525 21.6287Z" fill="#F54200"/>
<path d="M17.3259 20.1552C17.4437 20.0374 17.4437 19.8016 17.3259 19.6248C16.9133 19.2123 16.2656 19.2123 15.8531 19.6248C15.7352 19.7427 15.7352 19.9784 15.8531 20.1552C15.9709 20.2731 16.2061 20.2731 16.3835 20.1552C16.5008 20.0374 16.6782 20.0374 16.7954 20.1552C16.9728 20.332 17.208 20.332 17.3259 20.1552Z" fill="#F54200"/>
<path d="M15.0276 20.1552C15.1455 20.0374 15.1455 19.8016 15.0276 19.6248C14.6151 19.2123 13.9662 19.2123 13.5542 19.6248C13.4364 19.7427 13.4364 19.9784 13.5542 20.1552C13.6715 20.2731 13.9078 20.2731 14.0841 20.1552C14.2025 20.0374 14.3788 20.0374 14.4972 20.1552C14.6151 20.332 14.8508 20.332 15.0276 20.1552Z" fill="#F54200"/>
<path d="M22.9822 28.2286C22.6292 27.6982 22.2166 27.3446 21.7445 27.1678L20.9789 26.8731C24.3383 24.9873 26.6958 21.3924 26.8131 17.2671H29.0527C28.9348 21.687 26.6958 25.7534 22.9822 28.2286ZM20.92 31.2341V29.3483C20.92 29.1715 20.7432 28.9947 20.5664 28.9947C20.3896 28.9947 20.2128 29.1715 20.2128 29.3483V31.2931H15.7342V28.1696L15.9699 28.5821C16.0872 28.8179 16.4414 28.8768 16.6177 28.6411L18.0916 26.2838C18.4447 26.5195 18.7989 26.6963 19.034 26.8142L21.5094 27.875C22.0398 28.1107 22.5696 28.7589 22.9239 29.584C23.159 30.1144 23.3364 30.7627 23.3953 31.2931L20.92 31.2341ZM7.77834 29.584C8.13138 28.7 8.66179 28.1107 9.1928 27.875L11.6676 26.8142C11.9033 26.6963 12.1385 26.5784 12.3159 26.4606C12.3748 26.4606 12.3748 26.4016 12.4337 26.4016C12.4927 26.3427 12.5516 26.2838 12.6695 26.2838L14.1429 28.6411C14.3197 28.8768 14.6727 28.8768 14.7906 28.5821L15.0269 28.1696V31.2931H10.6656V29.3483C10.6656 29.1715 10.4888 28.9947 10.312 28.9947C10.1352 28.9947 9.9584 29.1715 9.9584 29.3483V31.2931H7.42412C7.36577 30.7037 7.5426 30.1144 7.77834 29.584ZM1.76682 17.2671H4.0064C4.12427 21.3924 6.42281 24.9283 9.7816 26.8142L8.89813 27.1678C8.48558 27.3446 8.07302 27.6982 7.71882 28.1696C4.12428 25.6944 1.88469 21.6281 1.76682 17.2671ZM15.0269 3.30001V5.53946C9.07493 5.65732 4.18321 10.5487 4.0064 16.5599H1.76682C2.00256 9.31115 7.83668 3.47681 15.0269 3.30001ZM17.0302 25.3998C17.1481 25.5176 17.2665 25.6944 17.4427 25.8123L16.2646 27.6982L15.7342 26.6963L17.0302 25.3998ZM13.6125 25.3998L14.9091 26.6963L14.378 27.6982L13.1999 25.8123C13.3178 25.6355 13.4946 25.5176 13.6125 25.3998ZM11.9622 18.7404C12.6105 16.9724 13.6708 15.2634 15.0853 14.9687C14.9674 16.8545 13.6708 18.3279 11.9622 18.7404ZM15.7925 14.9687C17.2665 15.2044 18.3863 16.9135 19.034 18.7404C17.2665 18.3868 15.9104 16.8545 15.7925 14.9687ZM15.38 24.0443C15.027 23.8675 14.7323 23.6907 14.4965 23.5139L14.4376 23.455C12.9052 22.2763 12.6695 20.803 12.7284 19.3297C13.9655 18.8582 14.9674 17.9153 15.4979 16.6777C16.0283 17.9153 17.0302 18.9172 18.3268 19.3886C18.2679 20.9209 17.9143 22.6299 15.38 24.0443ZM11.1961 22.3942C11.1961 21.687 11.3729 20.6262 11.6676 19.5654C11.7265 19.5654 11.8444 19.5654 11.9033 19.5065C11.9033 20.7441 12.0801 22.4531 13.7303 23.8675C13.3767 24.5747 12.7873 25.223 12.1385 25.6355C11.4907 24.9873 11.1961 23.9854 11.1961 22.3942ZM15.3216 26.048L14.025 24.7515C14.1429 24.5747 14.2602 24.4569 14.3197 24.2801C14.5554 24.4569 14.8501 24.6337 15.2032 24.7515C15.3216 24.8105 15.4395 24.8105 15.5574 24.7515C15.8521 24.6337 16.0872 24.4569 16.323 24.2801C16.3825 24.4569 16.4998 24.5747 16.6177 24.7515L15.3216 26.048ZM16.9123 23.8675C18.7394 22.3353 18.9751 20.6852 19.034 19.5065C19.1519 19.5065 19.2109 19.5654 19.3287 19.5654C19.6234 20.6262 19.8002 21.687 19.8002 22.3942C19.8002 24.1033 19.5055 25.164 18.7394 25.8123C17.9738 25.3408 17.3249 24.6926 16.9123 23.8675ZM22.806 17.2671H26.1059C25.988 21.1566 23.6895 24.7515 20.1539 26.4606L19.4466 26.1659C20.3896 25.164 20.5074 23.6907 20.5074 22.3942C20.5074 20.1548 18.9751 14.2026 15.4979 14.2026H15.4395C13.1999 14.2615 11.7854 16.7367 11.0782 19.094C10.7835 20.0958 10.4888 21.3924 10.4888 22.3942C10.4888 23.5729 10.6067 25.0462 11.5497 26.048C11.3729 26.107 11.3729 26.107 10.6067 26.4606C7.12944 24.6926 4.89045 21.1566 4.71364 17.2671H8.01349C8.19089 17.2671 8.36768 17.0903 8.36768 16.9135C8.36768 16.7367 8.19089 16.5599 8.01349 16.5599H4.71364C4.89045 10.9613 9.42797 6.42345 15.0269 6.24665V9.54688C15.0269 9.72368 15.2032 9.90048 15.38 9.90048C15.5574 9.90048 15.7342 9.72368 15.7342 9.54688V6.24665C21.3326 6.42345 25.8707 10.9613 26.0469 16.5599H22.7465C22.5696 16.5599 22.3934 16.7367 22.3934 16.9135C22.3934 17.0903 22.5696 17.2671 22.806 17.2671ZM29.0527 16.5599H26.8131C26.6363 10.5487 21.7445 5.71626 15.7925 5.53946V3.30001C22.9822 3.47681 28.8759 9.31115 29.0527 16.5599ZM15.4395 2.53389C7.5426 2.53389 1.05957 8.95755 1.05957 16.9135C1.05957 21.687 3.41702 26.107 7.36577 28.8179C6.89369 29.7608 6.59903 30.8216 6.59903 31.6466C6.59903 31.8234 6.77583 32.0002 6.95322 32.0002C7.77833 32.0002 20.2717 32.0002 23.749 32.0002C23.9258 32.0002 24.102 31.8234 24.102 31.6466C24.102 30.8216 23.8663 29.8197 23.3953 28.8768C27.4024 26.2248 29.8188 21.746 29.8188 16.9135C29.7599 8.95755 23.3364 2.53389 15.4395 2.53389Z" fill="#F54200"/>
<path d="M28.5224 1.82679C29.6422 1.82679 30.5262 2.71078 30.5262 3.8305C30.5262 4.95023 29.6422 5.83422 28.5224 5.83422C27.4026 5.83422 26.5185 4.95023 26.5185 3.8305C26.5185 2.71078 27.4026 1.82679 28.5224 1.82679ZM28.5224 6.60034C30.0547 6.60034 31.2924 5.36276 31.2924 3.8305C31.2924 2.29825 29.9958 1.06067 28.5224 1.06067C27.0489 1.06067 25.7529 2.29825 25.7529 3.8305C25.7529 5.36276 26.9906 6.60034 28.5224 6.60034Z" fill="#F54200"/>
<path d="M2.53393 30.8808C1.70882 30.8808 1.06052 30.2325 1.06052 29.4074C1.06052 28.5824 1.70882 27.9341 2.53393 27.9341C3.35904 27.9341 4.00735 28.5824 4.00735 29.4074C4.00735 30.2325 3.35904 30.8808 2.53393 30.8808ZM2.53393 27.2269C1.29627 27.2269 0.294922 28.2288 0.294922 29.4664C0.294922 30.704 1.29627 31.7058 2.53393 31.7058C3.7716 31.7058 4.77294 30.704 4.77294 29.4664C4.77294 28.2288 3.7716 27.2269 2.53393 27.2269Z" fill="#F54200"/>
<path d="M30.3507 10.3135C30.6431 10.3135 30.8812 10.551 30.8812 10.8439C30.8812 11.1368 30.6431 11.3743 30.3507 11.3743C30.0578 11.3743 29.8203 11.1368 29.8203 10.8439C29.8203 10.551 30.0578 10.3135 30.3507 10.3135Z" fill="#F54200"/>
<path d="M22.2169 2.26498e-06C22.5099 2.26498e-06 22.7468 0.237501 22.7468 0.530397C22.7468 0.823292 22.5099 1.06079 22.2169 1.06079C21.924 1.06079 21.6865 0.823292 21.6865 0.530397C21.6865 0.237501 21.924 2.26498e-06 22.2169 2.26498e-06Z" fill="#F54200"/>
<path d="M6.77594 1.06104C7.06888 1.06104 7.30636 1.29854 7.30636 1.59143C7.30636 1.88433 7.06888 2.12183 6.77594 2.12183C6.48301 2.12183 6.24609 1.88433 6.24609 1.59143C6.24609 1.29854 6.48301 1.06104 6.77594 1.06104Z" fill="#F54200"/>
<path d="M0.882987 6.9541C1.17592 6.9541 1.41341 7.1916 1.41341 7.4845C1.41341 7.77739 1.17592 8.01489 0.882987 8.01489C0.590055 8.01489 0.352539 7.77739 0.352539 7.4845C0.352539 7.1916 0.590055 6.9541 0.882987 6.9541Z" fill="#F54200"/>
<path d="M31.4693 22.8069C31.7622 22.8069 32.0003 23.0444 32.0003 23.3373C32.0003 23.6302 31.7622 23.8677 31.4693 23.8677C31.177 23.8677 30.9395 23.6302 30.9395 23.3373C30.9395 23.0444 31.177 22.8069 31.4693 22.8069Z" fill="#F54200"/>
<path d="M27.757 30.1738C28.0499 30.1738 28.2874 30.4113 28.2874 30.7042C28.2874 30.9971 28.0499 31.2346 27.757 31.2346C27.4641 31.2346 27.2266 30.9971 27.2266 30.7042C27.2266 30.4113 27.4641 30.1738 27.757 30.1738Z" fill="#F54200"/>
<path d="M0.52985 22.8062C0.822782 22.8062 1.06027 23.0437 1.06027 23.3365C1.06027 23.6294 0.822782 23.8669 0.52985 23.8669C0.236918 23.8669 0 23.6294 0 23.3365C0 23.0437 0.236918 22.8062 0.52985 22.8062Z" fill="#F54200"/>
</svg>
