<svg width="41" height="45" viewBox="0 0 41 45" fill="none" xmlns="http://www.w3.org/2000/svg">
<path d="M21.8757 28.3664C21.7227 28.216 21.4175 28.216 21.188 28.3664C20.8055 28.7425 20.1936 28.7425 19.8111 28.3664C19.6581 28.216 19.3521 28.216 19.1226 28.3664C18.9696 28.5168 18.9696 28.8177 19.1226 29.0433C19.8875 29.7955 21.1115 29.7955 21.8757 29.0433C22.0287 28.8177 22.0287 28.5168 21.8757 28.3664Z" fill="#FF4A47"/>
<path d="M32.2025 43.8601H29.2191V41.0772C29.2191 40.8516 28.9896 40.6259 28.7601 40.6259C28.5306 40.6259 28.3011 40.8516 28.3011 41.0772V43.8601H23.0235L21.57 37.9934L22.1055 38.7456C22.335 39.0464 22.7933 38.9712 22.9463 38.6704L24.5527 35.3609C25.0125 35.6618 25.4707 35.8874 25.9304 36.1131L29.5251 37.6174C31.0543 38.2943 32.279 41.0772 32.279 43.0328L32.2025 43.8601ZM20.4991 37.843L22.0283 43.9354H18.9691L20.4991 37.843ZM8.79559 43.0328C8.79559 41.0772 10.0196 38.2191 11.5495 37.6174L15.145 36.1131C15.6032 35.8874 16.0629 35.6618 16.5212 35.3609L18.0519 38.6704C18.2041 38.9712 18.6631 39.0464 18.8926 38.7456L19.5811 37.9182L18.1276 43.9354H12.8492V41.1524C12.8492 40.9268 12.6205 40.7011 12.391 40.7011C12.1608 40.7011 11.9313 40.9268 11.9313 41.1524V43.9354H8.79559V43.0328ZM21.9525 32.5028V33.7062L20.4991 35.1353L18.9691 33.631V32.5028C19.9636 32.8037 20.9573 32.8037 21.9525 32.5028ZM15.9092 27.2378V22.725C18.8926 23.2515 20.8051 22.8754 21.8753 22.4241V22.6497C21.7995 23.0258 22.182 23.2515 22.488 23.1762L23.9415 22.6497L23.7885 23.2515C23.7112 23.6275 24.0937 23.9284 24.3997 23.778L25.1647 23.5523V27.313C25.1647 29.7951 23.1 31.8259 20.5755 31.8259C17.9746 31.7507 15.9092 29.7199 15.9092 27.2378ZM19.5811 17.5352C21.6465 17.46 23.4817 18.2121 23.559 18.2121C23.6355 18.2121 23.6355 18.2121 23.7112 18.2121C23.7112 18.2121 23.7112 18.2121 23.7885 18.2121C23.7885 18.2121 23.8642 18.2121 23.8642 18.1369C23.8642 18.1369 23.9415 18.1369 23.9415 18.0617V17.9865C23.9415 17.9113 23.9415 17.9113 23.9415 17.836V17.6104C24.7822 18.2121 26.1599 19.6412 25.8532 23.0258C25.6244 22.5745 25.7002 22.6497 25.7002 22.5745C25.7002 22.5745 25.7002 22.5745 25.6244 22.5745C25.6244 22.5745 25.6244 22.5745 25.5472 22.5745C25.5472 22.5745 25.5472 22.5745 25.4707 22.5745C25.395 22.5745 25.395 22.5745 25.395 22.5745L24.8594 22.8002L25.0124 22.1985C25.0889 21.8224 24.7065 21.5215 24.3997 21.672L22.7933 21.9728L22.8705 21.5968C22.8705 21.4463 22.7932 21.2207 22.641 21.1455C22.488 21.0703 22.2578 21.0703 22.1055 21.1455C22.1055 21.1455 19.5038 23.0258 13.6915 21.1455C14.9147 18.889 16.9036 17.6856 19.5811 17.5352ZM23.0235 34.0071C23.253 34.2327 23.4817 34.4584 23.7112 34.684L22.4107 37.4669L21.1875 35.8122L23.0235 34.0071ZM17.9746 34.0823L18.0519 34.1575L19.8106 35.8874L18.5101 37.5422L17.2861 34.7592C17.5156 34.5336 17.7451 34.3079 17.9746 34.0823ZM29.8311 36.7148L26.2357 35.2105C25.6244 34.9097 25.0125 34.6088 24.477 34.1575C24.0172 33.7814 23.7885 33.5558 23.406 33.0293C23.406 33.0293 23.406 33.0293 23.3287 33.0293C23.3287 33.0293 23.3287 33.0293 23.253 32.9541C23.1757 32.9541 23.253 32.9541 23.1757 32.9541C23.1 32.9541 23.1757 32.9541 23.1 32.9541C23.0235 32.9541 23.0235 32.9541 23.0235 32.9541C23.0235 32.9541 23.0235 32.9541 22.9463 32.9541V32.2019C24.7822 31.2994 26.0827 29.419 26.0827 27.313V25.207C26.1599 25.2822 26.2357 25.2822 26.3129 25.3575C26.3887 25.3575 26.3887 25.3575 26.4652 25.3575H26.5416C26.6181 25.2822 26.6954 25.207 26.7712 25.1318V25.0566C27.3832 22.1232 27.1536 19.7916 25.9304 18.1369C25.0125 16.8583 23.8642 16.4822 23.7885 16.4822C23.4818 16.407 23.1757 16.6326 23.1757 16.9335V17.2343C22.4108 17.0087 21.0345 16.7078 19.4281 16.7078C17.2096 16.783 14.1497 17.6104 12.4668 21.3711C12.391 21.5968 12.4668 21.8224 12.6962 21.8976C13.0787 22.048 13.9967 22.3489 14.7624 22.4993V27.2378C14.7624 29.3438 15.9857 31.2242 17.8216 32.1267V32.8789C17.8216 32.8789 17.8216 32.8789 17.7451 32.8789C17.7451 32.8789 17.7451 32.8789 17.6686 32.8789C17.6686 32.8789 17.6686 32.8789 17.5921 32.8789C17.5156 32.8789 17.5921 32.8789 17.5156 32.9541C17.2096 33.4054 16.8272 33.7062 16.2917 34.1575C15.8327 34.5336 15.2207 34.8344 14.6852 35.1353L11.0905 36.6396C8.94858 37.5422 7.72461 40.9268 7.72461 42.9576V44.2362C7.72461 44.4619 7.95335 44.6875 8.1836 44.6875C9.40682 44.6875 31.361 44.6875 32.585 44.6875C32.8145 44.6875 33.0433 44.4619 33.0433 44.2362V43.0328C33.197 41.002 31.9723 37.6174 29.8311 36.7148Z" fill="#FF4A47"/>
<path d="M18.2049 7.00535C18.4344 7.00535 18.5873 6.85492 18.6638 6.7045L20.0408 2.64293L21.4178 6.7045C21.4935 6.93014 21.6473 7.00535 21.876 7.00535H26.2364L22.7183 9.56263C22.5653 9.71306 22.4888 9.86349 22.5653 10.0891L23.9423 14.1507L20.4226 11.5934C20.2703 11.443 20.0408 11.443 19.8878 11.5934L16.3689 14.1507L17.7459 10.0891C17.8224 9.86349 17.7459 9.71306 17.5929 9.56263L14.0747 7.00535H18.2049ZM12.0858 6.93014L16.5219 10.0891L14.8389 15.2037C14.7632 15.4293 14.8389 15.5798 14.9919 15.7302C15.1457 15.8806 15.3744 15.8806 15.5282 15.7302L19.9643 12.5712L24.4005 15.7302C24.5535 15.8806 24.7829 15.8806 24.9359 15.7302C25.0897 15.5798 25.1655 15.4293 25.0897 15.2037L23.4067 10.0891L27.8429 6.93014C27.9959 6.77971 28.0724 6.62928 27.9959 6.40364C27.9194 6.178 27.7664 6.10278 27.5369 6.10278H22.029L20.4998 0.988219C20.4226 0.762576 20.2703 0.687363 20.0408 0.687363C19.8113 0.687363 19.6583 0.83779 19.5818 0.988219L17.8989 6.10278H12.3918C12.1615 6.10278 12.0093 6.25321 11.932 6.40364C11.8563 6.62928 11.932 6.77971 12.0858 6.93014Z" fill="#FF4A47"/>
<path d="M30.9783 10.9914C31.2078 10.9914 31.3608 10.841 31.4373 10.6906L32.2023 8.43416L32.9673 10.6906C33.043 10.9162 33.1967 10.9914 33.4255 10.9914H35.8742L33.8852 12.4205C33.7322 12.5709 33.6558 12.7214 33.7322 12.947L34.4965 15.2034L32.5075 13.7744C32.3552 13.6239 32.1258 13.6239 31.972 13.7744L29.9073 15.2034L30.6723 12.947C30.7488 12.7214 30.6723 12.5709 30.5193 12.4205L28.5304 10.9914H30.9783ZM26.6179 10.3897C26.5414 10.6154 26.6179 10.7658 26.7709 10.9162L29.6778 12.947L28.6068 16.2564C28.5303 16.4821 28.6068 16.6325 28.7598 16.7829C28.9128 16.9334 29.1423 16.9334 29.2953 16.7829L32.2023 14.7521L35.1092 16.7829C35.1857 16.8581 35.2615 16.8581 35.4144 16.8581C35.7212 16.8581 35.9499 16.5573 35.8742 16.2564L34.7259 12.947L37.6329 10.9162C37.7859 10.7658 37.8631 10.6154 37.7859 10.3897C37.7101 10.1641 37.5564 10.0889 37.3276 10.0889H33.7322L32.6613 6.77944C32.5848 6.5538 32.4318 6.47859 32.2023 6.47859C31.972 6.47859 31.8198 6.62902 31.7433 6.77944L30.6723 10.0889H27.0776C26.8481 10.0137 26.6952 10.1641 26.6179 10.3897Z" fill="#FF4A47"/>
<path d="M6.50205 10.9914C6.73079 10.9914 6.88377 10.841 6.96027 10.6906L7.72526 8.43416L8.49025 10.6906C8.56674 10.9162 8.71974 10.9914 8.94924 10.9914H11.3964L9.40746 12.4205C9.25522 12.5709 9.17874 12.7214 9.25524 12.947L10.0202 15.2034L8.03125 13.7744C7.87826 13.6239 7.64877 13.6239 7.49578 13.7744L5.5068 15.2034L6.27179 12.947C6.34829 12.7214 6.27179 12.5709 6.1188 12.4205L4.1306 10.9914H6.50205ZM2.29466 10.9162L5.20081 12.947L4.1306 16.2564C4.05334 16.4821 4.13062 16.6325 4.28286 16.7829C4.43586 16.9334 4.66534 16.9334 4.81833 16.7829L7.72526 14.7521L10.6322 16.7829C10.708 16.8581 10.7852 16.8581 10.9382 16.8581C11.2434 16.8581 11.4737 16.5573 11.3964 16.2564L10.2497 12.947L13.1566 10.9162C13.3096 10.7658 13.3854 10.6154 13.3096 10.3897C13.2324 10.1641 13.0794 10.0889 12.8499 10.0889H9.25524L8.18425 6.77944C8.10775 6.5538 7.95399 6.47859 7.72526 6.47859C7.49576 6.47859 7.34276 6.62902 7.26626 6.77944L6.19531 10.0889H2.59988C2.37039 10.0889 2.21741 10.2393 2.14166 10.3897C2.06441 10.5402 2.14167 10.7658 2.29466 10.9162Z" fill="#FF4A47"/>
<path d="M36.7925 27.9148C35.492 27.9148 34.421 26.8618 34.421 25.5832C34.421 24.3045 35.492 23.2515 36.7925 23.2515C38.0922 23.2515 39.1639 24.3045 39.1639 25.5832C39.1639 26.8618 38.0922 27.9148 36.7925 27.9148ZM36.7925 22.2737C34.9565 22.2737 33.4258 23.778 33.4258 25.5832C33.4258 27.3883 34.9565 28.8926 36.7925 28.8926C38.6284 28.8926 40.1576 27.3883 40.1576 25.5832C40.1576 23.778 38.6284 22.2737 36.7925 22.2737Z" fill="#FF4A47"/>
<path d="M3.28743 32.5779C2.5232 32.5779 1.83397 31.9762 1.83397 31.1488C1.83397 30.3215 2.44595 29.7198 3.28743 29.7198C4.12967 29.7198 4.74093 30.3215 4.74093 31.1488C4.74093 31.9762 4.05241 32.5779 3.28743 32.5779ZM3.28743 28.8172C1.98772 28.8172 0.916016 29.8702 0.916016 31.1488C0.916016 32.4275 1.98772 33.4805 3.28743 33.4805C4.5879 33.4805 5.65888 32.4275 5.65888 31.1488C5.65888 29.8702 4.5879 28.8172 3.28743 28.8172Z" fill="#FF4A47"/>
<path d="M40.3115 39.6481C40.6917 39.6481 41 39.9512 41 40.325C41 40.6988 40.6917 41.002 40.3115 41.002C39.9313 41.002 39.623 40.6988 39.623 40.325C39.623 39.9512 39.9313 39.6481 40.3115 39.6481Z" fill="#FF4A47"/>
<path d="M29.3721 30.2467C29.7523 30.2467 30.0605 30.5498 30.0605 30.9237C30.0605 31.2975 29.7523 31.6006 29.3721 31.6006C28.9918 31.6006 28.6836 31.2975 28.6836 30.9237C28.6836 30.5498 28.9918 30.2467 29.3721 30.2467Z" fill="#FF4A47"/>
<path d="M39.3936 18.0622C39.7738 18.0622 40.0821 18.3653 40.0821 18.7391C40.0821 19.1129 39.7738 19.416 39.3936 19.416C39.0134 19.416 38.7051 19.1129 38.7051 18.7391C38.7051 18.3653 39.0134 18.0622 39.3936 18.0622Z" fill="#FF4A47"/>
<path d="M36.0283 3.47061C36.4085 3.47061 36.716 3.77372 36.716 4.14754C36.716 4.52135 36.4085 4.82446 36.0283 4.82446C35.6481 4.82446 35.3398 4.52135 35.3398 4.14754C35.3398 3.77372 35.6481 3.47061 36.0283 3.47061Z" fill="#FF4A47"/>
<path d="M11.1678 2.0419C11.548 2.0419 11.8562 2.34501 11.8562 2.71882C11.8562 3.09264 11.548 3.39575 11.1678 3.39575C10.7875 3.39575 10.4785 3.09264 10.4785 2.71882C10.4785 2.34501 10.7875 2.0419 11.1678 2.0419Z" fill="#FF4A47"/>
<path d="M0.688509 16.1813C1.06873 16.1813 1.37698 16.4844 1.37698 16.8582C1.37698 17.232 1.06873 17.5352 0.688509 17.5352C0.30829 17.5352 0 17.232 0 16.8582C0 16.4844 0.30829 16.1813 0.688509 16.1813Z" fill="#FF4A47"/>
<path d="M8.33691 21.3717C8.71713 21.3717 9.02538 21.6748 9.02538 22.0487C9.02538 22.4225 8.71713 22.7256 8.33691 22.7256C7.95593 22.7256 7.64844 22.4225 7.64844 22.0487C7.64844 21.6748 7.95593 21.3717 8.33691 21.3717Z" fill="#FF4A47"/>
<path d="M11.6252 31.6754C12.0062 31.6754 12.3137 31.9786 12.3137 32.3524C12.3137 32.7262 12.0062 33.0293 11.6252 33.0293C11.245 33.0293 10.9375 32.7262 10.9375 32.3524C10.9375 31.9786 11.245 31.6754 11.6252 31.6754Z" fill="#FF4A47"/>
<path d="M3.51781 40.1745C3.89803 40.1745 4.20628 40.4776 4.20628 40.8514C4.20628 41.2252 3.89803 41.5283 3.51781 41.5283C3.13759 41.5283 2.83008 41.2252 2.83008 40.8514C2.83008 40.4776 3.13759 40.1745 3.51781 40.1745Z" fill="#FF4A47"/>
</svg>
