<svg width="42" height="45" viewBox="0 0 42 45" fill="none" xmlns="http://www.w3.org/2000/svg">
<path d="M21.035 33.5608C21.5724 33.5608 22.0083 33.9963 22.0083 34.5336C22.0083 35.0708 21.5724 35.5063 21.035 35.5063C20.4976 35.5063 20.0625 35.0708 20.0625 34.5336C20.0625 33.9963 20.4976 33.5608 21.035 33.5608Z" fill="#FF4A47"/>
<path d="M41.1733 34.9087C41.1733 35.9563 40.2749 36.8543 39.2275 36.8543C37.8051 36.8543 4.56683 36.8543 2.84492 36.8543C1.79679 36.8543 0.8984 35.9563 0.8984 34.9087V9.76582C0.8984 8.7182 1.79679 7.82024 2.84492 7.82024H8.83344V9.69099H3.21923C2.99463 9.69099 2.77005 9.91548 2.77005 10.14V31.691C2.77005 31.9155 2.99463 32.14 3.21923 32.14H38.7784C39.0022 32.14 39.2275 31.9155 39.2275 31.691V10.2148C39.2275 9.99031 39.0022 9.76582 38.7784 9.76582H33.1634V7.89507H39.1519C40.2001 7.89507 41.0985 8.79303 41.0985 9.84065V34.9087H41.1733ZM27.6241 40.5958C28.372 40.5958 29.0465 41.1944 29.0465 42.0176C29.0465 42.8407 28.4468 43.4393 27.6241 43.4393H14.5233C13.7746 43.4393 13.1008 42.8407 13.1008 42.0176C13.1008 41.1944 13.6997 40.5958 14.5233 40.5958C16.1703 40.5958 17.5172 39.3985 17.7425 37.7522H24.33C24.5546 39.3237 25.9014 40.5958 27.6241 40.5958ZM32.265 7.82024V11.1128H9.80671C9.80671 10.2896 9.80671 8.56854 9.80671 7.82024H32.265ZM8.90831 28.9223C8.90831 29.1468 9.13291 29.3713 9.35751 29.3713H32.7891C33.0137 29.3713 33.2383 29.1468 33.2383 28.9223V10.6638H38.404V31.242H3.7433V10.6638H8.90831V28.9223ZM9.80671 12.0856H32.265V28.4733H9.80671V12.0856ZM39.2275 6.92228C38.6279 6.92228 3.51871 6.92228 2.84492 6.92228C1.27273 6.92228 0 8.19439 0 9.76582V34.9087C0 36.4801 1.27273 37.7522 2.84492 37.7522H16.7692C16.5439 38.7999 15.5714 39.623 14.4484 39.623C13.1757 39.623 12.1276 40.6706 12.1276 41.9427C12.1276 43.2148 13.1757 44.2625 14.4484 44.2625H27.5485C28.8219 44.2625 29.8693 43.2148 29.8693 41.9427C29.8693 40.6706 28.8219 39.623 27.5485 39.623C26.4255 39.623 25.453 38.7999 25.2284 37.7522H39.1519C40.7249 37.7522 41.9969 36.4801 41.9969 34.9087V9.76582C42.0717 8.19439 40.799 6.92228 39.2275 6.92228Z" fill="#FF4A47"/>
<path d="M17.6663 21.4394H16.9918V20.5415C16.9918 20.317 16.7679 20.0925 16.5426 20.0925C16.3187 20.0925 16.0934 20.317 16.0934 20.5415V21.4394H13.5487V20.5415C13.5487 20.317 13.3241 20.0925 13.0995 20.0925C12.8749 20.0925 12.6503 20.317 12.6503 20.5415V21.4394H11.9765C11.9016 21.1401 11.8268 20.8408 11.8268 20.5415C11.8268 19.1197 12.8 17.9224 14.1476 17.5483L13.5487 19.0449C13.4738 19.1945 13.5487 19.419 13.6235 19.5687L14.5219 20.4667C14.6717 20.6163 14.9711 20.6163 15.1957 20.4667L16.0934 19.5687C16.2439 19.419 16.2439 19.2694 16.169 19.0449L15.5701 17.5483C16.9176 17.8476 17.8902 19.0449 17.8902 20.5415C17.7412 20.766 17.7412 21.1401 17.6663 21.4394ZM13.3989 15.2286C13.3989 14.5551 13.9979 13.9564 14.6717 13.9564C15.3454 13.9564 15.9444 14.5551 15.9444 15.2286C15.9444 15.902 15.3454 16.5007 14.6717 16.5007C13.9979 16.5007 13.3989 15.902 13.3989 15.2286ZM14.7465 18.2218L15.046 19.0449L14.7465 19.3442L14.4471 19.0449L14.7465 18.2218ZM16.2439 16.8C16.6931 16.4258 16.9176 15.8272 16.9176 15.2286C16.9176 14.0313 15.9444 12.9837 14.6717 12.9837C13.4738 12.9837 12.4257 13.9564 12.4257 15.2286C12.4257 15.8272 12.6503 16.4258 13.0995 16.8C11.677 17.3986 10.6289 18.8204 10.6289 20.4667C10.6289 20.9905 10.7038 21.5891 10.9284 22.0381C11.0032 22.1877 11.153 22.3374 11.3776 22.3374H17.8902C18.1155 22.3374 18.2645 22.1877 18.3393 22.0381C18.4891 21.5891 18.6396 20.9905 18.6396 20.4667C18.7137 18.8204 17.6663 17.3986 16.2439 16.8Z" fill="#FF4A47"/>
<path d="M36.9816 1.31C38.0298 1.31 38.8525 2.13313 38.8525 3.18075C38.8525 4.22837 38.0298 5.0515 36.9816 5.0515C35.9335 5.0515 35.11 4.22837 35.11 3.18075C35.11 2.13313 35.9335 1.31 36.9816 1.31ZM36.9816 5.94946C38.5538 5.94946 39.8265 4.67735 39.8265 3.10592C39.8265 1.53449 38.5538 0.262383 36.9816 0.262383C35.4094 0.262383 34.1367 1.53449 34.1367 3.10592C34.1367 4.67735 35.4094 5.94946 36.9816 5.94946Z" fill="#FF4A47"/>
<path d="M5.16384 42.4661C4.41592 42.4661 3.74213 41.8674 3.74213 41.0443C3.74213 40.2212 4.34106 39.6225 5.16384 39.6225C5.98811 39.6225 6.58631 40.2212 6.58631 41.0443C6.58631 41.8674 5.91324 42.4661 5.16384 42.4661ZM5.16384 38.7246C3.89186 38.7246 2.84375 39.7722 2.84375 41.0443C2.84375 42.3164 3.89186 43.364 5.16384 43.364C6.4373 43.364 7.48469 42.3164 7.48469 41.0443C7.48469 39.7722 6.4373 38.7246 5.16384 38.7246Z" fill="#FF4A47"/>
<path d="M30.6191 1.30955C30.9912 1.30955 31.2922 1.61112 31.2922 1.98302C31.2922 2.35493 30.9912 2.65649 30.6191 2.65649C30.247 2.65649 29.9453 2.35493 29.9453 1.98302C29.9453 1.61112 30.247 1.30955 30.6191 1.30955Z" fill="#FF4A47"/>
<path d="M40.4238 39.1743C40.7959 39.1743 41.0976 39.4759 41.0976 39.8478C41.0976 40.2197 40.7959 40.5212 40.4238 40.5212C40.0517 40.5212 39.75 40.2197 39.75 39.8478C39.75 39.4759 40.0517 39.1743 40.4238 39.1743Z" fill="#FF4A47"/>
<path d="M32.9394 39.1743C33.3123 39.1743 33.6132 39.4759 33.6132 39.8478C33.6132 40.2197 33.3123 40.5212 32.9394 40.5212C32.5673 40.5212 32.2656 40.2197 32.2656 39.8478C32.2656 39.4759 32.5673 39.1743 32.9394 39.1743Z" fill="#FF4A47"/>
<path d="M10.0312 38.7251C10.4033 38.7251 10.705 39.0266 10.705 39.3986C10.705 39.7705 10.4033 40.072 10.0312 40.072C9.65912 40.072 9.35742 39.7705 9.35742 39.3986C9.35742 39.0266 9.65912 38.7251 10.0312 38.7251Z" fill="#FF4A47"/>
<path d="M21.709 4.1533C22.0811 4.1533 22.3827 4.45487 22.3827 4.82677C22.3827 5.19868 22.0811 5.50024 21.709 5.50024C21.3369 5.50024 21.0352 5.19868 21.0352 4.82677C21.0352 4.45487 21.3369 4.1533 21.709 4.1533Z" fill="#FF4A47"/>
<path d="M10.0312 1.75877C10.4033 1.75877 10.705 2.06034 10.705 2.43224C10.705 2.80415 10.4033 3.10571 10.0312 3.10571C9.65912 3.10571 9.35742 2.80415 9.35742 2.43224C9.35742 2.06034 9.65912 1.75877 10.0312 1.75877Z" fill="#FF4A47"/>
<path d="M30.394 18.5957H22.459C22.2344 18.5957 22.0098 18.8202 22.0098 19.0447C22.0098 19.2692 22.2344 19.4937 22.459 19.4937H30.394C30.6194 19.4937 30.8432 19.2692 30.8432 19.0447C30.8432 18.8202 30.6194 18.5957 30.394 18.5957Z" fill="#FF4A47"/>
<path d="M30.394 20.4668H22.459C22.2344 20.4668 22.0098 20.6913 22.0098 20.9158C22.0098 21.1403 22.2344 21.3647 22.459 21.3647H30.394C30.6194 21.3647 30.8432 21.1403 30.8432 20.9158C30.8432 20.6913 30.6194 20.4668 30.394 20.4668Z" fill="#FF4A47"/>
<path d="M30.394 13.4326H22.459C22.2344 13.4326 22.0098 13.6571 22.0098 13.8816C22.0098 14.1061 22.2344 14.3306 22.459 14.3306H30.394C30.6194 14.3306 30.8432 14.1061 30.8432 13.8816C30.8432 13.6571 30.6194 13.4326 30.394 13.4326Z" fill="#FF4A47"/>
<path d="M30.394 15.3027H22.459C22.2344 15.3027 22.0098 15.5272 22.0098 15.7517C22.0098 15.9762 22.2344 16.2007 22.459 16.2007H30.394C30.6194 16.2007 30.8432 15.9762 30.8432 15.7517C30.8432 15.5272 30.6194 15.3027 30.394 15.3027Z" fill="#FF4A47"/>
<path d="M30.394 22.3369H22.459C22.2344 22.3369 22.0098 22.5614 22.0098 22.7859C22.0098 23.0104 22.2344 23.2349 22.459 23.2349H30.394C30.6194 23.2349 30.8432 23.0104 30.8432 22.7859C30.8432 22.5614 30.6194 22.3369 30.394 22.3369Z" fill="#FF4A47"/>
<path d="M30.394 24.208H22.459C22.2344 24.208 22.0098 24.4325 22.0098 24.657C22.0098 24.8815 22.2344 25.106 22.459 25.106H30.394C30.6194 25.106 30.8432 24.8815 30.8432 24.657C30.8432 24.4325 30.6194 24.208 30.394 24.208Z" fill="#FF4A47"/>
<path d="M30.394 26.0791H22.459C22.2344 26.0791 22.0098 26.3036 22.0098 26.5281C22.0098 26.7526 22.2344 26.9771 22.459 26.9771H30.394C30.6194 26.9771 30.8432 26.7526 30.8432 26.5281C30.8432 26.3036 30.6194 26.0791 30.394 26.0791Z" fill="#FF4A47"/>
<path d="M4.19196 3.18075C4.71528 3.18075 5.16447 3.62973 5.16447 4.15354C5.16447 4.67735 4.71528 5.12633 4.19196 5.12633C3.6679 5.12633 3.21869 4.67735 3.21869 4.15354C3.29356 3.5549 3.6679 3.18075 4.19196 3.18075ZM4.19196 5.94946C5.23934 5.94946 6.06287 5.12633 6.06287 4.07871C6.06287 3.03109 5.23934 2.20796 4.19196 2.20796C3.14384 2.20796 2.32031 3.03109 2.32031 4.07871C2.32031 5.12633 3.14384 5.94946 4.19196 5.94946Z" fill="#FF4A47"/>
</svg>
