<svg width="30" height="32" viewBox="0 0 30 32" fill="none" xmlns="http://www.w3.org/2000/svg">
<path d="M14.832 6.15063C16.1854 6.15063 17.3133 7.28438 17.3133 8.64489C17.3133 10.0054 16.1854 11.1391 14.832 11.1391C13.4785 11.1391 12.3505 10.0054 12.3505 8.64489C12.3505 7.28438 13.4785 6.15063 14.832 6.15063ZM14.832 11.8194C16.5802 11.8194 17.9895 10.4022 17.9895 8.64489C17.9895 6.88757 16.5802 5.47038 14.832 5.47038C13.0837 5.47038 11.6738 6.88757 11.6738 8.64489C11.6738 10.4022 13.0837 11.8194 14.832 11.8194Z" fill="#14141E"/>
<path d="M14.8318 7.90843C15.2265 7.90843 15.5649 8.24856 15.5649 8.64537C15.5649 9.04218 15.2265 9.38231 14.8318 9.38231C14.437 9.38231 14.0986 9.04218 14.0986 8.64537C14.0986 8.24856 14.437 7.90843 14.8318 7.90843ZM14.8318 10.0626C15.6213 10.0626 16.2416 9.439 16.2416 8.64537C16.2416 7.85174 15.6213 7.22818 14.8318 7.22818C14.0422 7.22818 13.4219 7.85174 13.4219 8.64537C13.4219 9.439 14.0422 10.0626 14.8318 10.0626Z" fill="#14141E"/>
<path d="M19.3996 13.2367H10.2647C10.0955 13.2367 9.92578 13.4068 9.92578 13.5769C9.92578 13.7469 10.0955 13.917 10.2647 13.917H19.456C19.6251 13.917 19.7943 13.7469 19.7943 13.5769C19.7379 13.4068 19.6252 13.2367 19.3996 13.2367Z" fill="#14141E"/>
<path d="M17.6511 14.6538H12.0122C11.843 14.6538 11.6738 14.8239 11.6738 14.9939C11.6738 15.164 11.843 15.3341 12.0122 15.3341H17.6511C17.8209 15.3341 17.9895 15.164 17.9895 14.9939C17.9895 14.8239 17.8209 14.6538 17.6511 14.6538Z" fill="#14141E"/>
<path d="M16.2421 16.0708H13.4224C13.2532 16.0708 13.084 16.2409 13.084 16.4109C13.084 16.581 13.2532 16.7511 13.4224 16.7511H16.2421C16.4107 16.7511 16.5805 16.581 16.5805 16.4109C16.5805 16.2409 16.4107 16.0708 16.2421 16.0708Z" fill="#14141E"/>
<path d="M22.3874 21.6832C22.049 20.9463 21.5978 20.266 21.0903 19.6424C21.485 18.3386 21.7112 17.0348 21.8234 15.6743C22.4438 16.9214 22.7257 18.1686 22.7257 19.3023C22.7257 20.096 22.6129 20.8896 22.3874 21.6832ZM19.9629 20.6628H9.64264C7.66937 15.3909 8.23333 9.09854 11.4478 4.33677H18.2147C21.3722 9.04185 21.9926 15.3342 19.9629 20.6628ZM14.831 24.8577C13.7595 24.0074 12.8572 22.817 12.2368 21.3998H17.3682C16.8043 22.7603 15.902 23.9507 14.831 24.8577ZM7.21767 21.6832C6.99265 20.8896 6.93625 20.096 6.93625 19.3023C6.93625 18.1119 7.21765 16.9214 7.83856 15.6743C7.95135 17.0348 8.17637 18.3386 8.57114 19.6424C8.06414 20.2093 7.61244 20.9463 7.21767 21.6832ZM14.831 0.822139C15.902 1.61577 16.8612 2.57946 17.7071 3.65652H11.9548C12.8008 2.57946 13.7595 1.61577 14.831 0.822139ZM15.0002 0.0851987C14.8874 -0.0281767 14.7182 -0.0281767 14.6054 0.0851987C10.6014 2.91958 7.78163 8.13485 7.78163 14.2571C6.76708 16.0144 6.20312 17.7151 6.20312 19.3023C6.20312 20.4928 6.42812 21.6832 6.82289 22.817C6.87984 22.9303 6.99265 23.0437 7.16184 23.0437C7.33102 23.0437 7.4438 22.9303 7.49964 22.817C7.83857 21.9666 8.23334 21.173 8.79729 20.4361C8.91008 20.6628 8.96592 20.9463 9.07871 21.173C9.13511 21.2864 9.24789 21.3998 9.41763 21.3998H11.5037C12.1804 23.1571 13.2519 24.5743 14.6054 25.5947C14.7182 25.708 14.8874 25.708 15.0002 25.5947C16.3537 24.5743 17.4252 23.1571 18.1019 21.3998H20.188C20.3572 21.3998 20.4699 21.2864 20.5263 21.173C20.6397 20.9463 20.6955 20.6628 20.8083 20.4361C21.3723 21.173 21.767 21.9666 22.1054 22.817C22.1618 22.9303 22.2746 23.0437 22.4438 23.0437C22.613 23.0437 22.7257 22.9303 22.7816 22.817C23.1769 21.6832 23.4025 20.4928 23.4025 19.3023C23.4025 17.7151 22.8949 16.0144 21.8234 14.2571C21.8234 8.13485 19.0042 2.91958 15.0002 0.0851987Z" fill="#14141E"/>
<path d="M8.12212 24.5745C7.95294 24.5745 7.7832 24.7445 7.7832 24.9146V28.826C7.7832 28.9961 7.95294 29.1662 8.12212 29.1662C8.29075 29.1662 8.45992 28.9961 8.45992 28.826V24.9146C8.45992 24.7445 8.3477 24.5745 8.12212 24.5745Z" fill="#14141E"/>
<path d="M9.53116 23.4969C9.36198 23.4969 9.19336 23.667 9.19336 23.837V30.5829C9.19336 30.7529 9.36198 30.923 9.53116 30.923C9.7009 30.923 9.87011 30.7529 9.87011 30.5829V23.837C9.87011 23.667 9.75674 23.4969 9.53116 23.4969Z" fill="#14141E"/>
<path d="M11.2778 24.9137C11.1086 24.9137 10.9395 25.0838 10.9395 25.2539V28.4851C10.9395 28.6551 11.1086 28.8252 11.2778 28.8252C11.4476 28.8252 11.6162 28.6551 11.6162 28.4851V25.3106C11.6726 25.0838 11.5034 24.9137 11.2778 24.9137Z" fill="#14141E"/>
<path d="M13.7602 26.6718C13.591 26.6718 13.4219 26.8419 13.4219 27.0119V31.3202C13.4219 31.4902 13.591 31.6603 13.7602 31.6603C13.9294 31.6603 14.0986 31.4902 14.0986 31.3202V27.0686C14.0986 26.8419 13.9858 26.6718 13.7602 26.6718Z" fill="#14141E"/>
<path d="M16.5805 25.6512C16.4108 25.6512 16.2422 25.8212 16.2422 25.9913V31.6601C16.2422 31.8301 16.4108 32.0002 16.5805 32.0002C16.7497 32.0002 16.9189 31.8301 16.9189 31.6601V25.9913C16.9189 25.8212 16.8056 25.6512 16.5805 25.6512Z" fill="#14141E"/>
<path d="M18.7226 25.9909C18.5534 25.9909 18.3848 26.161 18.3848 26.3311V29.5056C18.3848 29.6756 18.5534 29.8457 18.7226 29.8457C18.8923 29.8457 19.0609 29.6756 19.0609 29.5056V26.3311C19.0609 26.161 18.8923 25.9909 18.7226 25.9909Z" fill="#14141E"/>
<path d="M20.8091 22.4202C20.6404 22.4202 20.4707 22.5902 20.4707 22.7603V30.1864C20.4707 30.3565 20.6404 30.5265 20.8091 30.5265C20.9783 30.5265 21.1474 30.3565 21.1474 30.1864V22.817C21.1474 22.5902 21.0347 22.4202 20.8091 22.4202Z" fill="#14141E"/>
<path d="M27.8578 10.7426C27.0683 10.7426 26.4485 10.119 26.4485 9.32537C26.4485 8.53175 27.0683 7.90818 27.8578 7.90818C28.6474 7.90818 29.2677 8.53175 29.2677 9.32537C29.2677 10.119 28.6474 10.7426 27.8578 10.7426ZM27.8578 7.22793C26.6736 7.22793 25.7148 8.19162 25.7148 9.38206C25.7148 10.5725 26.6736 11.5362 27.8578 11.5362C29.0421 11.5362 30.0009 10.5725 30.0009 9.38206C30.0009 8.19162 29.0421 7.22793 27.8578 7.22793Z" fill="#14141E"/>
<path d="M2.65058 8.24826C1.57907 8.24826 0.732583 7.39794 0.732583 6.32088C0.732583 5.24381 1.57907 4.3935 2.65058 4.3935C3.72152 4.3935 4.56745 5.24381 4.56745 6.32088C4.62385 7.39794 3.72152 8.24826 2.65058 8.24826ZM2.65058 3.65656C1.18431 3.65656 0 4.847 0 6.32088C0 7.79476 1.18431 8.9852 2.65058 8.9852C4.11629 8.9852 5.30058 7.79476 5.30058 6.32088C5.30058 4.847 4.11629 3.65656 2.65058 3.65656Z" fill="#14141E"/>
<path d="M27.012 25.9913C27.2923 25.9913 27.5196 26.2198 27.5196 26.5015C27.5196 26.7832 27.2923 27.0117 27.012 27.0117C26.7317 27.0117 26.5039 26.7832 26.5039 26.5015C26.5039 26.2198 26.7317 25.9913 27.012 25.9913Z" fill="#14141E"/>
<path d="M27.012 15.7306C27.2923 15.7306 27.5196 15.959 27.5196 16.2408C27.5196 16.5225 27.2923 16.751 27.012 16.751C26.7317 16.751 26.5039 16.5225 26.5039 16.2408C26.5039 15.959 26.7317 15.7306 27.012 15.7306Z" fill="#14141E"/>
<path d="M24.1912 3.31654C24.4715 3.31654 24.6987 3.54499 24.6987 3.82672C24.6987 4.10846 24.4715 4.33691 24.1912 4.33691C23.9109 4.33691 23.6836 4.10846 23.6836 3.82672C23.6836 3.54499 23.9109 3.31654 24.1912 3.31654Z" fill="#14141E"/>
<path d="M7.27515 1.5597C7.55545 1.5597 7.78215 1.78815 7.78215 2.06989C7.78215 2.35163 7.55545 2.58008 7.27515 2.58008C6.99485 2.58008 6.76758 2.35163 6.76758 2.06989C6.76758 1.78815 6.99485 1.5597 7.27515 1.5597Z" fill="#14141E"/>
<path d="M4.45484 11.1398C4.73514 11.1398 4.96239 11.3683 4.96239 11.65C4.96239 11.9318 4.73514 12.1602 4.45484 12.1602C4.17454 12.1602 3.94727 11.9318 3.94727 11.65C3.94727 11.3683 4.17454 11.1398 4.45484 11.1398Z" fill="#14141E"/>
<path d="M2.31223 30.2433C2.59253 30.2433 2.82035 30.4718 2.82035 30.7535C2.82035 31.0351 2.59253 31.2637 2.31223 31.2637C2.03193 31.2637 1.80469 31.0351 1.80469 30.7535C1.80469 30.4718 2.03193 30.2433 2.31223 30.2433Z" fill="#14141E"/>
<path d="M1.97434 19.9826C2.25464 19.9826 2.48134 20.2111 2.48134 20.4927C2.48134 20.7744 2.25464 21.0029 1.97434 21.0029C1.69348 21.0029 1.4668 20.7744 1.4668 20.4927C1.4668 20.2111 1.69348 19.9826 1.97434 19.9826Z" fill="#14141E"/>
</svg>
