<svg width="30" height="32" viewBox="0 0 30 32" fill="none" xmlns="http://www.w3.org/2000/svg">
<path d="M29.2972 10.9716H28.1839V10.2169H29.2972V10.9716ZM27.4807 11.6682H25.2545V9.4623H27.4807C27.4807 10.1589 27.4807 11.0297 27.4807 11.6682ZM23.789 9.52035H24.5513V11.7263H23.789V9.52035ZM15.7616 14.2224V14.5707H13.5354V14.2224C13.5354 13.6419 14.0036 13.1195 14.6482 13.1195C15.2934 13.1195 15.7616 13.6419 15.7616 14.2224ZM20.8596 17.5893V21.827H17.5781V15.3254H18.5743C19.8049 15.3254 20.8596 16.3122 20.8596 17.5893ZM16.2304 31.057C15.5864 28.0384 17.7539 25.1939 20.8596 24.7876V25.0778C20.8596 27.9803 18.8673 30.3604 16.2304 31.057ZM13.7698 31.2311C14.531 27.7481 12.0118 24.4973 8.37874 24.091V22.5817H20.8596V24.091C17.2851 24.4973 14.766 27.8062 15.4692 31.2311C14.9412 31.2892 14.3558 31.2892 13.7698 31.2311ZM8.43732 25.0778V24.7876C11.543 25.1939 13.7106 28.0384 13.0666 31.057C10.3711 30.3604 8.43732 27.9803 8.43732 25.0778ZM10.7227 15.3254H11.7188V21.885H8.43732V17.5893C8.43732 16.3122 9.43351 15.3254 10.7227 15.3254ZM16.8169 15.3254V21.885H12.422V15.3254C14.0628 15.3254 15.3514 15.3254 16.8169 15.3254ZM6.73856 10.2169C5.215 10.2169 3.98442 8.99789 3.98442 7.48859C3.98442 5.97928 5.215 4.76023 6.73856 4.76023H9.90229C12.3042 4.76023 14.238 6.67588 14.238 9.05594V10.2169H6.73856ZM29.6488 9.52035H28.1839V9.17204C28.1839 8.99789 28.0081 8.82374 27.8323 8.82374H23.438C23.2616 8.82374 23.0858 8.99789 23.0858 9.17204V10.275H15.0004V9.11399C15.0004 6.32758 12.7144 4.12167 9.9609 4.12167H6.79658C4.86283 4.12167 3.33984 5.68903 3.33984 7.54664C3.33984 9.40425 4.92201 10.9716 6.79658 10.9716H14.2972V12.4809C13.4768 12.6551 12.8322 13.4097 12.8322 14.2805V14.6288H10.7227C9.02332 14.6288 7.67555 15.9639 7.67555 17.6474V25.1359C7.67555 28.5028 10.0787 31.2892 13.2424 31.8697C14.1208 32.0438 15.0584 32.0438 15.9374 31.8697C19.1017 31.2311 21.5042 28.4447 21.5042 25.1359V17.5893C21.5042 15.9059 20.1565 14.5707 18.4571 14.5707H16.3475V14.2224C16.3475 13.3517 15.7035 12.597 14.8832 12.4229V10.9136H22.9686V12.0165C22.9686 12.1907 23.145 12.3648 23.3208 12.3648H27.7151C27.8909 12.3648 28.0667 12.1907 28.0667 12.0165V11.6682H29.6488C29.8246 11.6682 29.9998 11.4941 29.9998 11.3199V9.86865C29.9998 9.63645 29.8246 9.52035 29.6488 9.52035Z" fill="#14141E"/>
<path d="M25.2541 0.813025C26.0745 0.813025 26.7185 1.45158 26.7185 2.26428C26.7185 3.07698 26.0745 3.71554 25.2541 3.71554C24.4337 3.71554 23.7886 3.01893 23.7886 2.26428C23.7886 1.50963 24.4337 0.813025 25.2541 0.813025ZM25.2541 4.41214C26.4841 4.41214 27.4802 3.42529 27.4802 2.20623C27.4802 0.987175 26.4841 0.000320911 25.2541 0.000320911C24.0235 0.000320911 23.0273 0.987175 23.0273 2.20623C23.0273 3.42529 24.0235 4.41214 25.2541 4.41214Z" fill="#14141E"/>
<path d="M29.473 4.81844C29.7644 4.81844 30.0001 5.05238 30.0001 5.34089C30.0001 5.6294 29.7644 5.86334 29.473 5.86334C29.1816 5.86334 28.9453 5.6294 28.9453 5.34089C28.9453 5.05238 29.1816 4.81844 29.473 4.81844Z" fill="#14141E"/>
<path d="M18.8675 3.36724C19.1589 3.36724 19.3952 3.60118 19.3952 3.88969C19.3952 4.1782 19.1589 4.41214 18.8675 4.41214C18.5761 4.41214 18.3398 4.1782 18.3398 3.88969C18.3398 3.60118 18.5761 3.36724 18.8675 3.36724Z" fill="#14141E"/>
<path d="M7.85248 0.116259C8.14389 0.116259 8.37958 0.350201 8.37958 0.638711C8.37958 0.927221 8.14389 1.16116 7.85248 1.16116C7.56107 1.16116 7.32422 0.927221 7.32422 0.638711C7.32422 0.350201 7.56107 0.116259 7.85248 0.116259Z" fill="#14141E"/>
<path d="M0.527668 3.71492C0.81966 3.71492 1.05534 3.94886 1.05534 4.23737C1.05534 4.52588 0.81966 4.75983 0.527668 4.75983C0.236255 4.75983 0 4.52588 0 4.23737C0 3.94886 0.236255 3.71492 0.527668 3.71492Z" fill="#14141E"/>
<path d="M7.85248 12.7716C8.14389 12.7716 8.37958 13.0056 8.37958 13.2941C8.37958 13.5826 8.14389 13.8165 7.85248 13.8165C7.56107 13.8165 7.32422 13.5826 7.32422 13.2941C7.32422 13.0056 7.56107 12.7716 7.85248 12.7716Z" fill="#14141E"/>
<path d="M29.1214 13.5255C29.4129 13.5255 29.6491 13.7595 29.6491 14.048C29.6491 14.3365 29.4129 14.5704 29.1214 14.5704C28.83 14.5704 28.5938 14.3365 28.5938 14.048C28.5938 13.7595 28.83 13.5255 29.1214 13.5255Z" fill="#14141E"/>
<path d="M27.2464 24.7883C27.5378 24.7883 27.7747 25.0223 27.7747 25.3108C27.7747 25.5993 27.5378 25.8333 27.2464 25.8333C26.955 25.8333 26.7188 25.5993 26.7188 25.3108C26.7188 25.0223 26.955 24.7883 27.2464 24.7883Z" fill="#14141E"/>
<path d="M3.45676 22.4075C3.74817 22.4075 3.98502 22.6414 3.98502 22.9299C3.98502 23.2184 3.74817 23.4524 3.45676 23.4524C3.16535 23.4524 2.92969 23.2184 2.92969 22.9299C2.92969 22.6414 3.16535 22.4075 3.45676 22.4075Z" fill="#14141E"/>
<path d="M2.16812 13.8738C1.58213 13.8738 1.05475 13.4094 1.05475 12.7709C1.05475 12.1323 1.52354 11.6679 2.16812 11.6679C2.8127 11.6679 3.28149 12.1323 3.28149 12.7709C3.28149 13.4094 2.8127 13.8738 2.16812 13.8738ZM2.16812 10.9713C1.17194 10.9713 0.351562 11.784 0.351562 12.7709C0.351562 13.7577 1.17194 14.5704 2.16812 14.5704C3.16429 14.5704 3.98468 13.7577 3.98468 12.7709C3.98468 11.784 3.16429 10.9713 2.16812 10.9713Z" fill="#14141E"/>
<path d="M14.2969 17.125C14.2969 16.9509 14.4727 16.7767 14.648 16.7767C14.8238 16.7767 15.0001 16.9509 15.0001 17.125V18.9246C15.0001 19.0987 14.8238 19.2729 14.648 19.2729C14.4727 19.2729 14.2969 19.0987 14.2969 18.9246V17.125ZM14.648 20.0275C15.2339 20.0275 15.7613 19.5631 15.7613 18.9246V17.125C15.7613 16.5445 15.2931 16.0221 14.648 16.0221C14.0034 16.0221 13.5352 16.4865 13.5352 17.125V18.9246C13.5352 19.5051 14.0034 20.0275 14.648 20.0275Z" fill="#14141E"/>
</svg>
