<svg width="40" height="40" viewBox="0 0 40 40" fill="none" xmlns="http://www.w3.org/2000/svg">
<path d="M4.12673 9.00574C4.12673 7.18547 5.63319 5.69025 7.46724 5.69025C9.30161 5.69025 10.8081 7.18547 10.8081 9.00574C10.8081 10.826 9.30161 12.3212 7.46724 12.3212C5.63319 12.3212 4.12673 10.826 4.12673 9.00574ZM10.4806 12.9063C11.6595 11.9962 12.4453 10.566 12.4453 8.94073C12.4453 6.21033 10.2185 4 7.46724 4C4.71604 4 2.48895 6.21033 2.48895 8.94073C2.48895 10.566 3.27504 11.9962 4.45425 12.9063C1.83404 14.0765 0 16.6769 0 19.7323V26.3633C0 26.8184 0.392851 27.2084 0.851427 27.2084H3.27504V37.1549C3.27504 37.6099 3.66815 38 4.12673 38C4.58505 38 4.97809 37.6099 4.97809 37.1549V23.8929C4.97809 23.4379 4.58505 23.0478 4.12673 23.0478C3.66815 23.0478 3.27504 23.4379 3.27504 23.8929V25.5182H1.63726V19.7323C1.63726 16.5468 4.25746 13.9465 7.46724 13.9465C10.6768 13.9465 13.297 16.5468 13.297 19.7323V25.5182H11.6595V23.8929C11.6595 23.4379 11.2664 23.0478 10.8081 23.0478C10.3492 23.0478 9.95619 23.4379 9.95619 23.8929V37.1549C9.95619 37.6099 10.3492 38 10.8081 38C11.2664 38 11.6595 37.6099 11.6595 37.1549V27.2084H14.1484C14.6072 27.2084 15 26.8184 15 26.3633V19.7323C15 16.6769 13.1005 14.0765 10.4806 12.9063Z" fill="#02111A"/>
<path d="M7.99981 30C7.46158 30 7 30.375 7 30.8125V37.1875C7 37.625 7.46158 38 7.99981 38C8.53834 38 9 37.625 9 37.1875V30.8125C9 30.375 8.53834 30 7.99981 30Z" fill="#02111A"/>
<path d="M7 18H9V20H7V18Z" fill="#02111A"/>
<path d="M36.6205 38.3007H21.3794C20.4518 38.3007 19.7231 37.5817 19.7231 36.6667C19.7231 35.7516 20.4518 35.0327 21.3794 35.0327C23.3012 35.0327 35.0962 35.0327 36.5544 35.0327C37.4819 35.0327 38.211 35.7516 38.211 36.6667C38.2772 37.5817 37.5481 38.3007 36.6205 38.3007ZM31.5183 33.3333H26.4821V30.8497C26.4821 29.4771 27.6088 28.366 29.0002 28.366C30.3915 28.366 31.5183 29.4771 31.5183 30.8497V33.3333ZM22.2406 27.5163C22.2406 23.8562 25.2893 20.8497 29.0002 20.8497C32.7111 20.8497 35.7591 23.7908 35.7591 27.5163V33.3333H33.2411V30.8497C33.2411 28.5621 31.3191 26.6667 29.0002 26.6667C26.6806 26.6667 24.7593 28.5621 24.7593 30.8497V33.3333H22.2406V27.5163ZM22.2406 12.4837V11.634C22.3074 11.634 22.3736 11.634 22.4397 11.634C23.8318 11.3072 27.7412 10.6536 29.464 11.5686C31.2529 12.549 33.904 11.9608 35.7591 11.2418V12.4837C35.7591 16.1438 32.7111 19.1503 29.0002 19.1503C25.2893 19.1503 22.2406 16.2091 22.2406 12.4837ZM19.7231 3.33333C19.7231 2.4183 20.4518 1.69934 21.3794 1.69934H36.6205C37.5481 1.69934 38.2772 2.4183 38.2772 3.33333C38.2772 4.24836 37.5481 4.96732 36.6205 4.96732H21.3794C20.4518 5.03268 19.7231 4.24836 19.7231 3.33333ZM22.2406 6.66666H35.7591V9.47712C34.3678 10.0654 31.6506 10.8497 30.2592 10.1307C27.8735 8.88889 23.3673 9.73856 22.2406 10V6.66666ZM37.4819 33.4641V27.5163C37.4819 24.2484 35.56 21.3725 32.7111 20C35.56 18.6274 37.4819 15.817 37.4819 12.4837V6.53595C38.9401 6.14379 40 4.8366 40 3.33333C40 1.50327 38.4763 -3.8147e-06 36.6205 -3.8147e-06H21.3794C19.524 -3.8147e-06 18 1.50327 18 3.33333C18 4.90196 19.0603 6.20915 20.5181 6.53595V12.4837C20.5181 15.7516 22.4397 18.6274 25.2893 20C22.4397 21.3725 20.5181 24.183 20.5181 27.5163V33.4641C19.1266 33.7908 18.0665 35.098 18.0665 36.6667C18.0665 38.4967 19.5906 40 21.4457 40H36.6205C38.4763 40 40 38.4967 40 36.6667C40 35.098 38.9401 33.7908 37.4819 33.4641Z" fill="#02111A"/>
</svg>
