<svg width="41" height="40" viewBox="0 0 41 40" fill="none" xmlns="http://www.w3.org/2000/svg">
<path d="M14.309 17.5163C14.309 14.3137 16.9471 11.6993 20.1777 11.6993C23.409 11.6993 26.0465 14.3137 26.0465 17.5163V20H24.3985V16.6667C24.3985 16.2091 24.0022 15.817 23.5407 15.817C23.0792 15.817 22.6835 16.2091 22.6835 16.6667V20H17.672V16.6667C17.672 16.2091 17.2763 15.817 16.8148 15.817C16.3533 15.817 15.9576 16.2091 15.9576 16.6667V20H14.309V17.5163ZM17.672 7.51634C17.672 6.14379 18.7932 5.03268 20.1777 5.03268C21.5629 5.03268 22.6835 6.14379 22.6835 7.51634C22.6835 8.88889 21.5629 10 20.1777 10C18.7932 10 17.672 8.88889 17.672 7.51634ZM1.7144 1.69934H38.7076V20H27.7615V17.5163C27.7615 14.3791 25.7831 11.6993 23.0792 10.5882C23.937 9.80392 24.3985 8.75817 24.3985 7.51634C24.3985 5.22876 22.486 3.33333 20.1777 3.33333C17.8701 3.33333 15.9576 5.22876 15.9576 7.51634C15.9576 8.69281 16.4849 9.80392 17.2763 10.5882C14.573 11.6993 12.5946 14.3791 12.5946 17.5163V20H1.7144V1.69934ZM38.6411 35.817C38.6411 37.1895 37.5205 38.3007 36.136 38.3007C34.7514 38.3007 33.6302 37.1895 33.6302 35.817C33.6302 34.4444 34.7514 33.3333 36.136 33.3333C37.5205 33.3333 38.6411 34.4444 38.6411 35.817ZM22.6835 35.817C22.6835 37.1895 21.5629 38.3007 20.1777 38.3007C18.7932 38.3007 17.672 37.1895 17.672 35.817C17.672 34.4444 18.7932 33.3333 20.1777 33.3333C21.5629 33.3333 22.6835 34.4444 22.6835 35.817ZM6.72592 35.817C6.72592 37.1895 5.60471 38.3007 4.22015 38.3007C2.83495 38.3007 1.7144 37.1895 1.7144 35.817C1.7144 34.4444 2.83495 33.3333 4.22015 33.3333C5.60471 33.3333 6.72592 34.4444 6.72592 35.817ZM39.4989 21.634C39.9605 21.634 40.3561 21.2418 40.3561 20.7843V0.84967C40.3561 0.392155 39.9605 -3.8147e-06 39.4989 -3.8147e-06H0.856556C0.395037 -3.8147e-06 0 0.392155 0 0.84967V20.8497C0 21.3072 0.395037 21.6993 0.856556 21.6993C1.38456 21.6993 18.7932 21.6993 19.3205 21.6993V26.6667H4.22015C3.75864 26.6667 3.36296 27.0588 3.36296 27.5163V31.7647C1.4504 32.1569 0 33.8562 0 35.817C0 38.1046 1.91191 40 4.22015 40C6.52775 40 8.44031 38.1046 8.44031 35.817C8.44031 33.7908 6.98927 32.0915 5.07736 31.7647V28.366H19.3864V31.7647C17.4745 32.1569 16.0234 33.8562 16.0234 35.817C16.0234 38.1046 17.936 40 20.2436 40C22.5518 40 24.4637 38.1046 24.4637 35.817C24.4637 33.7908 23.0133 32.0915 21.1008 31.7647V28.366H35.4105V31.7647C33.4985 32.1569 32.0475 33.8562 32.0475 35.817C32.0475 38.1046 33.9601 40 36.2677 40C38.5759 40 40.4878 38.1046 40.4878 35.817C40.4878 33.7908 39.0374 32.0915 37.1248 31.7647V27.5163C37.1248 27.0588 36.7292 26.6667 36.2677 26.6667H21.0349V21.634C21.6288 21.634 38.9709 21.634 39.4989 21.634Z" fill="#0D0701"/>
<path d="M4.39062 8.78073H5.85404V10.2441H4.39062V8.78073Z" fill="#0D0701"/>
<path d="M7.80469 8.78073H9.2681V10.2441H7.80469V8.78073Z" fill="#0D0701"/>
<path d="M11.2197 8.78073H12.6831V10.2441H11.2197V8.78073Z" fill="#0D0701"/>
<path d="M28.7803 8.78073H30.2437V10.2441H28.7803V8.78073Z" fill="#0D0701"/>
<path d="M32.1953 8.78073H33.6587V10.2441H32.1953V8.78073Z" fill="#0D0701"/>
<path d="M35.6094 8.78073H37.0728V10.2441H35.6094V8.78073Z" fill="#0D0701"/>
</svg>
