<svg width="33" height="32" viewBox="0 0 33 32" fill="none" xmlns="http://www.w3.org/2000/svg">
<path d="M8.96511 30.2527C8.96511 30.8161 8.50586 31.3231 7.87362 31.3231C7.24139 31.3231 6.78158 30.8724 6.78158 30.2527V27.4358C6.78158 27.2668 6.60915 27.0977 6.43673 27.0977H4.19574C3.27556 27.0977 2.47089 26.3653 2.47089 25.4076V21.0696C2.47089 20.5062 2.9307 19.9991 3.56293 19.9991C4.19573 19.9991 4.655 20.4498 4.655 21.0696V24.6189C4.655 24.7879 4.8274 24.9569 4.99983 24.9569H7.18393C8.16046 24.9569 8.96511 25.7456 8.96511 26.7034V30.2527ZM2.47089 18.309C2.47089 17.7456 2.9307 17.2385 3.56293 17.2385C4.19573 17.2385 4.655 17.6893 4.655 18.309C4.655 18.9287 4.19573 19.3794 3.56293 19.3794C2.9307 19.3794 2.47089 18.8724 2.47089 18.309ZM7.18393 24.2808H5.34469V21.1259C5.34469 20.5625 5.05731 20.0555 4.59751 19.7174C5.05731 19.3794 5.34469 18.8724 5.34469 18.309C5.34469 17.3512 4.54002 16.5625 3.56293 16.5625C2.58641 16.5625 1.7812 17.3512 1.7812 18.309C1.7812 18.8724 2.06856 19.3794 2.52894 19.7174C2.06856 20.0555 1.7812 20.5625 1.7812 21.1259V25.4076C1.7812 26.7034 2.87323 27.7738 4.19574 27.7738H6.0919V28.8442H0.344859C0.171862 28.8442 0 29.0132 0 29.1823C0 29.3513 0.171862 29.5203 0.344859 29.5203H6.0919V30.2527C6.0919 31.2104 6.89653 31.9992 7.87362 31.9992C8.85015 31.9992 9.65483 31.2104 9.65483 30.2527V26.7034C9.65483 25.3513 8.56279 24.2808 7.18393 24.2808Z" fill="#14141E"/>
<path d="M5.74608 6.30882C5.74608 5.74544 6.20587 5.29473 6.78063 5.29473H8.27501C8.38997 5.29473 8.56183 5.23839 8.61987 5.12572L9.36705 3.66092L10.0562 5.12572C10.1142 5.23839 10.2286 5.35107 10.4016 5.35107H20.9186C21.4933 5.35107 21.9531 5.80178 21.9531 6.36516V7.15389H11.781C10.8039 7.15389 9.99928 7.94263 9.99928 8.90038V12.3934H6.72316C6.1484 12.3934 5.68859 11.9426 5.68859 11.3793V6.30882H5.74608ZM26.8955 8.7877V13.7455C26.8955 14.3089 26.4363 14.7596 25.8615 14.7596H24.3671C24.2522 14.7596 24.0797 14.8159 24.0223 14.9286L23.2751 16.3934L22.5854 14.9286C22.5279 14.8159 22.413 14.7032 22.2411 14.7032H11.781C11.2063 14.7032 10.7459 14.2525 10.7459 13.6891V8.73137C10.7459 8.16798 11.2063 7.71728 11.781 7.71728H25.8615C26.4363 7.77362 26.8955 8.22432 26.8955 8.7877ZM6.78063 12.9567H10.0562V13.7455C10.0562 14.7032 10.8609 15.492 11.8379 15.492H22.1256L23.0452 17.4075C23.1027 17.5201 23.2176 17.6328 23.39 17.6328C23.505 17.6328 23.6774 17.5765 23.7349 17.4638L24.712 15.5483H25.9765C26.9536 15.5483 27.7582 14.7596 27.7582 13.8018V8.84404C27.7582 7.88629 26.9536 7.09756 25.9765 7.09756H22.7003V6.30882C22.7003 5.35107 21.8957 4.56233 20.9186 4.56233H10.516L9.59696 2.64683C9.53891 2.53416 9.42451 2.42148 9.25152 2.42148C9.13657 2.42148 8.96415 2.47782 8.90724 2.59049L7.98762 4.56233H6.72316C5.74607 4.56233 4.94141 5.35107 4.94141 6.30882V11.2666C4.99888 12.2243 5.80354 12.9567 6.78063 12.9567Z" fill="#14141E"/>
<path d="M23.8507 1.40779C24.1364 1.40779 24.368 1.63483 24.368 1.91483C24.368 2.19483 24.1364 2.42188 23.8507 2.42188C23.565 2.42188 23.334 2.19483 23.334 1.91483C23.334 1.63483 23.565 1.40779 23.8507 1.40779Z" fill="#14141E"/>
<path d="M30.1735 12.6754C30.4592 12.6754 30.6908 12.9024 30.6908 13.1824C30.6908 13.4624 30.4592 13.6895 30.1735 13.6895C29.8879 13.6895 29.6562 13.4624 29.6562 13.1824C29.6562 12.9024 29.8879 12.6754 30.1735 12.6754Z" fill="#14141E"/>
<path d="M19.8864 16.5621C20.1721 16.5621 20.4031 16.7891 20.4031 17.0691C20.4031 17.3491 20.1721 17.5762 19.8864 17.5762C19.6007 17.5762 19.3691 17.3491 19.3691 17.0691C19.3691 16.7891 19.6007 16.5621 19.8864 16.5621Z" fill="#14141E"/>
<path d="M9.82727 -0.000416875C10.1135 -0.000416875 10.3446 0.226626 10.3446 0.506628C10.3446 0.786629 10.1135 1.01367 9.82727 1.01367C9.54159 1.01367 9.31055 0.786629 9.31055 0.506628C9.31055 0.226626 9.54159 -0.000416875 9.82727 -0.000416875Z" fill="#14141E"/>
<path d="M3.04602 3.8863C3.33169 3.8863 3.56329 4.11335 3.56329 4.39335C3.56329 4.67335 3.33169 4.90039 3.04602 4.90039C2.76034 4.90039 2.5293 4.67335 2.5293 4.39335C2.5293 4.11335 2.76034 3.8863 3.04602 3.8863Z" fill="#14141E"/>
<path d="M7.70087 15.4918C7.98654 15.4918 8.21814 15.7188 8.21814 15.9988C8.21814 16.2788 7.98654 16.5059 7.70087 16.5059C7.4152 16.5059 7.18359 16.2788 7.18359 15.9988C7.18359 15.7188 7.4152 15.4918 7.70087 15.4918Z" fill="#14141E"/>
<path d="M12.1836 9.12584C12.1836 9.29485 12.3555 9.46387 12.5279 9.46387H25.114C25.287 9.46387 25.4594 9.29485 25.4594 9.12584C25.4594 8.95682 25.287 8.78781 25.114 8.78781H12.5279C12.3555 8.78781 12.1836 8.95682 12.1836 9.12584Z" fill="#14141E"/>
<path d="M25.114 10.196H12.5279C12.3555 10.196 12.1836 10.365 12.1836 10.534C12.1836 10.7031 12.3555 10.8721 12.5279 10.8721H25.114C25.287 10.8721 25.4594 10.7031 25.4594 10.534C25.4594 10.365 25.287 10.196 25.114 10.196Z" fill="#14141E"/>
<path d="M25.114 11.6042H12.5279C12.3555 11.6042 12.1836 11.7732 12.1836 11.9422C12.1836 12.1113 12.3555 12.2803 12.5279 12.2803H25.114C25.287 12.2803 25.4594 12.1113 25.4594 11.9422C25.4594 11.7732 25.287 11.6042 25.114 11.6042Z" fill="#14141E"/>
<path d="M17.93 13.0134H12.5279C12.3555 13.0134 12.1836 13.1824 12.1836 13.3514C12.1836 13.5204 12.3555 13.6895 12.5279 13.6895H17.93C18.103 13.6895 18.2755 13.5204 18.2755 13.3514C18.2755 13.1824 18.103 13.0134 17.93 13.0134Z" fill="#14141E"/>
<path d="M29.4263 1.74561C30.2309 1.74561 30.8626 2.36533 30.8626 3.15407C30.8626 3.9428 30.2309 4.56252 29.4263 4.56252C28.6216 4.56252 27.9888 3.9428 27.9888 3.15407C27.9888 2.36533 28.6216 1.74561 29.4263 1.74561ZM29.4263 5.29492C30.6327 5.29492 31.6098 4.33717 31.6098 3.15407C31.6098 1.97096 30.6327 1.01321 29.4263 1.01321C28.2187 1.01321 27.2422 1.97096 27.2422 3.15407C27.2422 4.33717 28.2187 5.29492 29.4263 5.29492Z" fill="#14141E"/>
<path d="M2.47147 11.9422C2.8738 11.9422 3.21923 12.2802 3.21923 12.6746C3.21923 13.0689 2.8738 13.4069 2.47147 13.4069C2.06914 13.4069 1.72487 13.0689 1.72487 12.6746C1.72487 12.2802 2.06914 11.9422 2.47147 11.9422ZM2.47147 14.083C3.27613 14.083 3.90895 13.4633 3.90895 12.6746C3.90895 11.8858 3.27613 11.2661 2.47147 11.2661C1.66681 11.2661 1.03516 11.8858 1.03516 12.6746C1.03516 13.4633 1.66681 14.083 2.47147 14.083Z" fill="#14141E"/>
<path d="M15.8058 31.323V29.4075L17.2421 28.4497V31.323H15.8058ZM17.2421 22.8722V25.8582L15.8058 26.8159V22.8722H17.2421ZM7.24245 21.1257C7.24245 20.5624 7.70226 20.0553 8.33449 20.0553H24.8864C25.4612 20.0553 25.9785 20.506 25.9785 21.1257C25.9785 21.7455 25.5181 22.1962 24.8864 22.1962C23.622 22.1962 8.96616 22.1962 8.33449 22.1962C7.70226 22.1962 7.24245 21.6891 7.24245 21.1257ZM15.8058 27.661L17.2421 26.7032V27.6046L15.8058 28.5624V27.661ZM18.2773 31.323H17.9318C17.9318 30.9849 17.9318 23.2103 17.9318 22.8722H24.8289C25.806 22.8722 26.6101 22.0835 26.6101 21.1257C26.6101 20.168 25.806 19.3793 24.8289 19.3793H8.33449C7.3574 19.3793 6.55273 20.168 6.55273 21.1257C6.55273 22.0835 7.3574 22.8722 8.33449 22.8722H15.1161C15.1161 24.5624 15.1161 29.5201 15.1161 31.323H14.7712C14.5988 31.323 14.4264 31.492 14.4264 31.661C14.4264 31.83 14.5988 31.999 14.7712 31.999C16.0357 31.999 17.0703 31.999 18.3922 31.999C18.5646 31.999 18.7365 31.83 18.7365 31.661C18.6796 31.492 18.5066 31.323 18.2773 31.323Z" fill="#14141E"/>
<path d="M26.2066 30.2525C26.2066 30.8159 25.7474 31.323 25.1146 31.323C24.4829 31.323 24.0231 30.8723 24.0231 30.2525V26.7032C24.0231 25.7455 24.8278 24.9567 25.8049 24.9567H27.9884C28.1614 24.9567 28.3338 24.7877 28.3338 24.6187V21.0694C28.3338 20.506 28.793 19.999 29.4259 19.999C30.0575 19.999 30.5179 20.4497 30.5179 21.0694V25.4074C30.5179 26.3089 29.7702 27.0976 28.7931 27.0976H26.5521C26.3796 27.0976 26.2066 27.2666 26.2066 27.4356V30.2525ZM28.3338 18.3088C28.3338 17.7454 28.793 17.2384 29.4259 17.2384C30.0575 17.2384 30.5179 17.6891 30.5179 18.3088C30.5179 18.9285 30.0575 19.3793 29.4259 19.3793C28.793 19.3793 28.3338 18.8722 28.3338 18.3088ZM32.644 28.8441H26.8964V27.7737H28.7931C30.1156 27.7737 31.2071 26.7032 31.2071 25.4074V21.0694C31.2071 20.506 30.9202 19.999 30.4599 19.6609C30.9202 19.3229 31.2071 18.8159 31.2071 18.2525C31.2071 17.2947 30.4024 16.506 29.4259 16.506C28.4488 16.506 27.6441 17.2947 27.6441 18.2525C27.6441 18.8159 27.9315 19.3229 28.3907 19.6609C27.9315 19.999 27.6441 20.506 27.6441 21.0694V24.2807H25.8049C24.4249 24.2807 23.334 25.3511 23.334 26.7032V30.2525C23.334 31.2103 24.1381 31.999 25.1146 31.999C26.0917 31.999 26.8964 31.2103 26.8964 30.2525V29.5201H32.644C32.8164 29.5201 32.9888 29.3511 32.9888 29.1821C33.0463 29.0131 32.8739 28.8441 32.644 28.8441Z" fill="#14141E"/>
</svg>
